<mxfile host="app.diagrams.net" modified="2021-01-26T19:29:13.255Z" agent="5.0 (Macintosh; Intel Mac OS X 10_15_7) AppleWebKit/537.36 (KHTML, like Gecko) Chrome/87.0.4280.141 Safari/537.36" etag="SXJ51pYfwTSMBnpT2ZwG" version="14.2.7" type="github">
  <diagram name="Page-1" id="bd83a815-5ea8-2e97-e5ec-87c9f400f2fa">
    <mxGraphModel dx="2867.5" dy="734" grid="0" gridSize="10" guides="1" tooltips="1" connect="1" arrows="1" fold="1" page="1" pageScale="1.5" pageWidth="1169" pageHeight="826" background="#ffffff" math="0" shadow="0">
      <root>
        <mxCell id="0" style=";html=1;" />
        <mxCell id="1" style=";html=1;" parent="0" />
        <mxCell id="1516e18e63f93b96-3" value="Stuck Puzzle (not all values displayed)" style="text;strokeColor=none;fillColor=none;html=1;fontSize=24;fontStyle=1;verticalAlign=middle;align=center;rounded=0;shadow=1;" parent="1" vertex="1">
          <mxGeometry x="-148" y="73" width="780" height="40" as="geometry" />
        </mxCell>
        <mxCell id="Im4FhcCXqjplq8VreH-y-1" value="" style="shape=table;html=1;whiteSpace=wrap;startSize=0;container=1;collapsible=0;childLayout=tableLayout;aspect=fixed;rowLines=1;columnLines=1;" vertex="1" parent="1">
          <mxGeometry x="38" y="113" width="400" height="400" as="geometry" />
        </mxCell>
        <mxCell id="Im4FhcCXqjplq8VreH-y-2" value="" style="shape=partialRectangle;html=1;whiteSpace=wrap;collapsible=0;dropTarget=0;pointerEvents=0;fillColor=none;top=0;left=0;bottom=0;right=0;points=[[0,0.5],[1,0.5]];portConstraint=eastwest;" vertex="1" parent="Im4FhcCXqjplq8VreH-y-1">
          <mxGeometry width="400" height="40" as="geometry" />
        </mxCell>
        <mxCell id="Im4FhcCXqjplq8VreH-y-3" value="" style="shape=partialRectangle;html=1;whiteSpace=wrap;connectable=0;overflow=hidden;fillColor=#b0e3e6;top=0;left=0;bottom=0;right=0;strokeColor=#0e8088;fontStyle=1;fontSize=18;" vertex="1" parent="Im4FhcCXqjplq8VreH-y-2">
          <mxGeometry width="40" height="40" as="geometry" />
        </mxCell>
        <mxCell id="Im4FhcCXqjplq8VreH-y-4" value="A" style="shape=partialRectangle;html=1;whiteSpace=wrap;connectable=0;overflow=hidden;fillColor=#b0e3e6;top=0;left=0;bottom=0;right=0;strokeColor=#0e8088;fontStyle=1;fontSize=18;" vertex="1" parent="Im4FhcCXqjplq8VreH-y-2">
          <mxGeometry x="40" width="40" height="40" as="geometry" />
        </mxCell>
        <mxCell id="Im4FhcCXqjplq8VreH-y-5" value="B" style="shape=partialRectangle;html=1;whiteSpace=wrap;connectable=0;overflow=hidden;fillColor=#b0e3e6;top=0;left=0;bottom=0;right=0;strokeColor=#0e8088;fontStyle=1;fontSize=18;" vertex="1" parent="Im4FhcCXqjplq8VreH-y-2">
          <mxGeometry x="80" width="40" height="40" as="geometry" />
        </mxCell>
        <mxCell id="Im4FhcCXqjplq8VreH-y-6" value="C" style="shape=partialRectangle;html=1;whiteSpace=wrap;connectable=0;overflow=hidden;fillColor=#b0e3e6;top=0;left=0;bottom=0;right=0;strokeColor=#0e8088;fontStyle=1;fontSize=18;" vertex="1" parent="Im4FhcCXqjplq8VreH-y-2">
          <mxGeometry x="120" width="40" height="40" as="geometry" />
        </mxCell>
        <mxCell id="Im4FhcCXqjplq8VreH-y-7" value="D" style="shape=partialRectangle;html=1;whiteSpace=wrap;connectable=0;overflow=hidden;fillColor=#b0e3e6;top=0;left=0;bottom=0;right=0;strokeColor=#0e8088;fontStyle=1;fontSize=18;" vertex="1" parent="Im4FhcCXqjplq8VreH-y-2">
          <mxGeometry x="160" width="40" height="40" as="geometry" />
        </mxCell>
        <mxCell id="Im4FhcCXqjplq8VreH-y-8" value="E" style="shape=partialRectangle;html=1;whiteSpace=wrap;connectable=0;overflow=hidden;fillColor=#b0e3e6;top=0;left=0;bottom=0;right=0;strokeColor=#0e8088;fontStyle=1;fontSize=18;" vertex="1" parent="Im4FhcCXqjplq8VreH-y-2">
          <mxGeometry x="200" width="40" height="40" as="geometry" />
        </mxCell>
        <mxCell id="Im4FhcCXqjplq8VreH-y-9" value="F" style="shape=partialRectangle;html=1;whiteSpace=wrap;connectable=0;overflow=hidden;fillColor=#b0e3e6;top=0;left=0;bottom=0;right=0;strokeColor=#0e8088;fontStyle=1;fontSize=18;" vertex="1" parent="Im4FhcCXqjplq8VreH-y-2">
          <mxGeometry x="240" width="40" height="40" as="geometry" />
        </mxCell>
        <mxCell id="Im4FhcCXqjplq8VreH-y-10" value="G" style="shape=partialRectangle;html=1;whiteSpace=wrap;connectable=0;overflow=hidden;fillColor=#b0e3e6;top=0;left=0;bottom=0;right=0;strokeColor=#0e8088;fontStyle=1;fontSize=18;" vertex="1" parent="Im4FhcCXqjplq8VreH-y-2">
          <mxGeometry x="280" width="40" height="40" as="geometry" />
        </mxCell>
        <mxCell id="Im4FhcCXqjplq8VreH-y-11" value="H" style="shape=partialRectangle;html=1;whiteSpace=wrap;connectable=0;overflow=hidden;fillColor=#b0e3e6;top=0;left=0;bottom=0;right=0;strokeColor=#0e8088;fontStyle=1;fontSize=18;" vertex="1" parent="Im4FhcCXqjplq8VreH-y-2">
          <mxGeometry x="320" width="40" height="40" as="geometry" />
        </mxCell>
        <mxCell id="Im4FhcCXqjplq8VreH-y-12" value="I" style="shape=partialRectangle;html=1;whiteSpace=wrap;connectable=0;overflow=hidden;fillColor=#b0e3e6;top=0;left=0;bottom=0;right=0;strokeColor=#0e8088;fontStyle=1;fontSize=18;" vertex="1" parent="Im4FhcCXqjplq8VreH-y-2">
          <mxGeometry x="360" width="40" height="40" as="geometry" />
        </mxCell>
        <mxCell id="Im4FhcCXqjplq8VreH-y-13" value="" style="shape=partialRectangle;html=1;whiteSpace=wrap;collapsible=0;dropTarget=0;pointerEvents=0;fillColor=none;top=0;left=0;bottom=0;right=0;points=[[0,0.5],[1,0.5]];portConstraint=eastwest;" vertex="1" parent="Im4FhcCXqjplq8VreH-y-1">
          <mxGeometry y="40" width="400" height="40" as="geometry" />
        </mxCell>
        <mxCell id="Im4FhcCXqjplq8VreH-y-14" value="1" style="shape=partialRectangle;html=1;whiteSpace=wrap;connectable=0;overflow=hidden;fillColor=#b0e3e6;top=0;left=0;bottom=0;right=0;strokeColor=#0e8088;fontStyle=1;fontSize=18;" vertex="1" parent="Im4FhcCXqjplq8VreH-y-13">
          <mxGeometry width="40" height="40" as="geometry" />
        </mxCell>
        <mxCell id="Im4FhcCXqjplq8VreH-y-15" value="1" style="shape=partialRectangle;html=1;whiteSpace=wrap;connectable=0;overflow=hidden;fillColor=#fad9d5;top=1;left=1;bottom=1;right=1;" vertex="1" parent="Im4FhcCXqjplq8VreH-y-13">
          <mxGeometry x="40" width="40" height="40" as="geometry" />
        </mxCell>
        <mxCell id="Im4FhcCXqjplq8VreH-y-16" value="5" style="shape=partialRectangle;html=1;whiteSpace=wrap;connectable=0;overflow=hidden;fillColor=#fad9d5;top=1;left=1;bottom=1;right=1;" vertex="1" parent="Im4FhcCXqjplq8VreH-y-13">
          <mxGeometry x="80" width="40" height="40" as="geometry" />
        </mxCell>
        <mxCell id="Im4FhcCXqjplq8VreH-y-17" value="3" style="shape=partialRectangle;html=1;whiteSpace=wrap;connectable=0;overflow=hidden;fillColor=#fad9d5;top=1;left=1;bottom=1;right=1;" vertex="1" parent="Im4FhcCXqjplq8VreH-y-13">
          <mxGeometry x="120" width="40" height="40" as="geometry" />
        </mxCell>
        <mxCell id="Im4FhcCXqjplq8VreH-y-18" value="2" style="shape=partialRectangle;html=1;whiteSpace=wrap;connectable=0;overflow=hidden;fillColor=none;top=1;left=1;bottom=1;right=1;" vertex="1" parent="Im4FhcCXqjplq8VreH-y-13">
          <mxGeometry x="160" width="40" height="40" as="geometry" />
        </mxCell>
        <mxCell id="Im4FhcCXqjplq8VreH-y-19" value="8" style="shape=partialRectangle;html=1;whiteSpace=wrap;connectable=0;overflow=hidden;fillColor=none;top=1;left=1;bottom=1;right=1;" vertex="1" parent="Im4FhcCXqjplq8VreH-y-13">
          <mxGeometry x="200" width="40" height="40" as="geometry" />
        </mxCell>
        <mxCell id="Im4FhcCXqjplq8VreH-y-20" value="4" style="shape=partialRectangle;html=1;whiteSpace=wrap;connectable=0;overflow=hidden;fillColor=none;top=1;left=1;bottom=1;right=1;" vertex="1" parent="Im4FhcCXqjplq8VreH-y-13">
          <mxGeometry x="240" width="40" height="40" as="geometry" />
        </mxCell>
        <mxCell id="Im4FhcCXqjplq8VreH-y-21" value="9" style="shape=partialRectangle;html=1;whiteSpace=wrap;connectable=0;overflow=hidden;fillColor=#fad9d5;top=1;left=1;bottom=1;right=1;perimeterSpacing=2;" vertex="1" parent="Im4FhcCXqjplq8VreH-y-13">
          <mxGeometry x="280" width="40" height="40" as="geometry" />
        </mxCell>
        <mxCell id="Im4FhcCXqjplq8VreH-y-22" value="6" style="shape=partialRectangle;html=1;whiteSpace=wrap;connectable=0;overflow=hidden;fillColor=#fad9d5;top=1;left=1;bottom=1;right=1;" vertex="1" parent="Im4FhcCXqjplq8VreH-y-13">
          <mxGeometry x="320" width="40" height="40" as="geometry" />
        </mxCell>
        <mxCell id="Im4FhcCXqjplq8VreH-y-23" value="7" style="shape=partialRectangle;html=1;whiteSpace=wrap;connectable=0;overflow=hidden;fillColor=#fad9d5;top=1;left=1;bottom=1;right=1;" vertex="1" parent="Im4FhcCXqjplq8VreH-y-13">
          <mxGeometry x="360" width="40" height="40" as="geometry" />
        </mxCell>
        <mxCell id="Im4FhcCXqjplq8VreH-y-24" value="" style="shape=partialRectangle;html=1;whiteSpace=wrap;collapsible=0;dropTarget=0;pointerEvents=0;fillColor=none;top=0;left=0;bottom=0;right=0;points=[[0,0.5],[1,0.5]];portConstraint=eastwest;" vertex="1" parent="Im4FhcCXqjplq8VreH-y-1">
          <mxGeometry y="80" width="400" height="40" as="geometry" />
        </mxCell>
        <mxCell id="Im4FhcCXqjplq8VreH-y-25" value="2" style="shape=partialRectangle;html=1;whiteSpace=wrap;connectable=0;overflow=hidden;fillColor=#b0e3e6;top=0;left=0;bottom=0;right=0;strokeColor=#0e8088;fontStyle=1;fontSize=18;" vertex="1" parent="Im4FhcCXqjplq8VreH-y-24">
          <mxGeometry width="40" height="40" as="geometry" />
        </mxCell>
        <mxCell id="Im4FhcCXqjplq8VreH-y-26" value="8" style="shape=partialRectangle;html=1;whiteSpace=wrap;connectable=0;overflow=hidden;fillColor=#fad9d5;top=1;left=1;bottom=1;right=1;" vertex="1" parent="Im4FhcCXqjplq8VreH-y-24">
          <mxGeometry x="40" width="40" height="40" as="geometry" />
        </mxCell>
        <mxCell id="Im4FhcCXqjplq8VreH-y-27" value="2" style="shape=partialRectangle;html=1;whiteSpace=wrap;connectable=0;overflow=hidden;fillColor=#fad9d5;top=1;left=1;bottom=1;right=1;" vertex="1" parent="Im4FhcCXqjplq8VreH-y-24">
          <mxGeometry x="80" width="40" height="40" as="geometry" />
        </mxCell>
        <mxCell id="Im4FhcCXqjplq8VreH-y-28" value="7" style="shape=partialRectangle;html=1;whiteSpace=wrap;connectable=0;overflow=hidden;fillColor=#fad9d5;top=1;left=1;bottom=1;right=1;" vertex="1" parent="Im4FhcCXqjplq8VreH-y-24">
          <mxGeometry x="120" width="40" height="40" as="geometry" />
        </mxCell>
        <mxCell id="Im4FhcCXqjplq8VreH-y-29" value="9" style="shape=partialRectangle;html=1;whiteSpace=wrap;connectable=0;overflow=hidden;fillColor=none;top=1;left=1;bottom=1;right=1;" vertex="1" parent="Im4FhcCXqjplq8VreH-y-24">
          <mxGeometry x="160" width="40" height="40" as="geometry" />
        </mxCell>
        <mxCell id="Im4FhcCXqjplq8VreH-y-30" value="5" style="shape=partialRectangle;html=1;whiteSpace=wrap;connectable=0;overflow=hidden;fillColor=none;top=1;left=1;bottom=1;right=1;" vertex="1" parent="Im4FhcCXqjplq8VreH-y-24">
          <mxGeometry x="200" width="40" height="40" as="geometry" />
        </mxCell>
        <mxCell id="Im4FhcCXqjplq8VreH-y-31" value="6" style="shape=partialRectangle;html=1;whiteSpace=wrap;connectable=0;overflow=hidden;fillColor=none;top=1;left=1;bottom=1;right=1;" vertex="1" parent="Im4FhcCXqjplq8VreH-y-24">
          <mxGeometry x="240" width="40" height="40" as="geometry" />
        </mxCell>
        <mxCell id="Im4FhcCXqjplq8VreH-y-32" value="1" style="shape=partialRectangle;html=1;whiteSpace=wrap;connectable=0;overflow=hidden;fillColor=#fad9d5;top=1;left=1;bottom=1;right=1;" vertex="1" parent="Im4FhcCXqjplq8VreH-y-24">
          <mxGeometry x="280" width="40" height="40" as="geometry" />
        </mxCell>
        <mxCell id="Im4FhcCXqjplq8VreH-y-33" value="4" style="shape=partialRectangle;html=1;whiteSpace=wrap;connectable=0;overflow=hidden;fillColor=#fad9d5;top=1;left=1;bottom=1;right=1;" vertex="1" parent="Im4FhcCXqjplq8VreH-y-24">
          <mxGeometry x="320" width="40" height="40" as="geometry" />
        </mxCell>
        <mxCell id="Im4FhcCXqjplq8VreH-y-34" value="3" style="shape=partialRectangle;html=1;whiteSpace=wrap;connectable=0;overflow=hidden;fillColor=#fad9d5;top=1;left=1;bottom=1;right=1;" vertex="1" parent="Im4FhcCXqjplq8VreH-y-24">
          <mxGeometry x="360" width="40" height="40" as="geometry" />
        </mxCell>
        <mxCell id="Im4FhcCXqjplq8VreH-y-35" value="" style="shape=partialRectangle;html=1;whiteSpace=wrap;collapsible=0;dropTarget=0;pointerEvents=0;fillColor=none;top=0;left=0;bottom=0;right=0;points=[[0,0.5],[1,0.5]];portConstraint=eastwest;" vertex="1" parent="Im4FhcCXqjplq8VreH-y-1">
          <mxGeometry y="120" width="400" height="40" as="geometry" />
        </mxCell>
        <mxCell id="Im4FhcCXqjplq8VreH-y-36" value="3" style="shape=partialRectangle;html=1;whiteSpace=wrap;connectable=0;overflow=hidden;fillColor=#b0e3e6;top=0;left=0;bottom=0;right=0;strokeColor=#0e8088;fontStyle=1;fontSize=18;" vertex="1" parent="Im4FhcCXqjplq8VreH-y-35">
          <mxGeometry width="40" height="40" as="geometry" />
        </mxCell>
        <mxCell id="Im4FhcCXqjplq8VreH-y-37" value="4" style="shape=partialRectangle;html=1;whiteSpace=wrap;connectable=0;overflow=hidden;fillColor=#fad9d5;top=1;left=1;bottom=1;right=1;" vertex="1" parent="Im4FhcCXqjplq8VreH-y-35">
          <mxGeometry x="40" width="40" height="40" as="geometry" />
        </mxCell>
        <mxCell id="Im4FhcCXqjplq8VreH-y-38" value="6" style="shape=partialRectangle;html=1;whiteSpace=wrap;connectable=0;overflow=hidden;fillColor=#fad9d5;top=1;left=1;bottom=1;right=1;" vertex="1" parent="Im4FhcCXqjplq8VreH-y-35">
          <mxGeometry x="80" width="40" height="40" as="geometry" />
        </mxCell>
        <mxCell id="Im4FhcCXqjplq8VreH-y-39" value="9" style="shape=partialRectangle;html=1;whiteSpace=wrap;connectable=0;overflow=hidden;fillColor=#fad9d5;top=1;left=1;bottom=1;right=1;" vertex="1" parent="Im4FhcCXqjplq8VreH-y-35">
          <mxGeometry x="120" width="40" height="40" as="geometry" />
        </mxCell>
        <mxCell id="Im4FhcCXqjplq8VreH-y-40" value="&lt;font style=&quot;font-size: 8px&quot;&gt;17&lt;/font&gt;" style="shape=partialRectangle;html=1;whiteSpace=wrap;connectable=0;overflow=hidden;fillColor=none;top=1;left=1;bottom=1;right=1;" vertex="1" parent="Im4FhcCXqjplq8VreH-y-35">
          <mxGeometry x="160" width="40" height="40" as="geometry" />
        </mxCell>
        <mxCell id="Im4FhcCXqjplq8VreH-y-41" value="&lt;font style=&quot;font-size: 8px&quot;&gt;17&lt;/font&gt;" style="shape=partialRectangle;html=1;whiteSpace=wrap;connectable=0;overflow=hidden;fillColor=none;top=1;left=1;bottom=1;right=1;" vertex="1" parent="Im4FhcCXqjplq8VreH-y-35">
          <mxGeometry x="200" width="40" height="40" as="geometry" />
        </mxCell>
        <mxCell id="Im4FhcCXqjplq8VreH-y-42" value="3" style="shape=partialRectangle;html=1;whiteSpace=wrap;connectable=0;overflow=hidden;fillColor=none;top=1;left=1;bottom=1;right=1;" vertex="1" parent="Im4FhcCXqjplq8VreH-y-35">
          <mxGeometry x="240" width="40" height="40" as="geometry" />
        </mxCell>
        <mxCell id="Im4FhcCXqjplq8VreH-y-43" value="58" style="shape=partialRectangle;html=1;whiteSpace=wrap;connectable=0;overflow=hidden;fillColor=#fad9d5;top=1;left=1;bottom=1;right=1;fontSize=8;" vertex="1" parent="Im4FhcCXqjplq8VreH-y-35">
          <mxGeometry x="280" width="40" height="40" as="geometry" />
        </mxCell>
        <mxCell id="Im4FhcCXqjplq8VreH-y-44" value="58" style="shape=partialRectangle;html=1;whiteSpace=wrap;connectable=0;overflow=hidden;fillColor=#fad9d5;top=1;left=1;bottom=1;right=1;fontSize=8;" vertex="1" parent="Im4FhcCXqjplq8VreH-y-35">
          <mxGeometry x="320" width="40" height="40" as="geometry" />
        </mxCell>
        <mxCell id="Im4FhcCXqjplq8VreH-y-45" value="2" style="shape=partialRectangle;html=1;whiteSpace=wrap;connectable=0;overflow=hidden;fillColor=#fad9d5;top=1;left=1;bottom=1;right=1;" vertex="1" parent="Im4FhcCXqjplq8VreH-y-35">
          <mxGeometry x="360" width="40" height="40" as="geometry" />
        </mxCell>
        <mxCell id="Im4FhcCXqjplq8VreH-y-46" value="" style="shape=partialRectangle;html=1;whiteSpace=wrap;collapsible=0;dropTarget=0;pointerEvents=0;fillColor=none;top=0;left=0;bottom=0;right=0;points=[[0,0.5],[1,0.5]];portConstraint=eastwest;" vertex="1" parent="Im4FhcCXqjplq8VreH-y-1">
          <mxGeometry y="160" width="400" height="40" as="geometry" />
        </mxCell>
        <mxCell id="Im4FhcCXqjplq8VreH-y-47" value="4" style="shape=partialRectangle;html=1;whiteSpace=wrap;connectable=0;overflow=hidden;fillColor=#b0e3e6;top=0;left=0;bottom=0;right=0;strokeColor=#0e8088;fontStyle=1;fontSize=18;" vertex="1" parent="Im4FhcCXqjplq8VreH-y-46">
          <mxGeometry width="40" height="40" as="geometry" />
        </mxCell>
        <mxCell id="Im4FhcCXqjplq8VreH-y-48" value="" style="shape=partialRectangle;html=1;whiteSpace=wrap;connectable=0;overflow=hidden;fillColor=none;top=1;left=1;bottom=1;right=1;" vertex="1" parent="Im4FhcCXqjplq8VreH-y-46">
          <mxGeometry x="40" width="40" height="40" as="geometry" />
        </mxCell>
        <mxCell id="Im4FhcCXqjplq8VreH-y-49" value="" style="shape=partialRectangle;html=1;whiteSpace=wrap;connectable=0;overflow=hidden;fillColor=none;top=1;left=1;bottom=1;right=1;" vertex="1" parent="Im4FhcCXqjplq8VreH-y-46">
          <mxGeometry x="80" width="40" height="40" as="geometry" />
        </mxCell>
        <mxCell id="Im4FhcCXqjplq8VreH-y-50" value="" style="shape=partialRectangle;html=1;whiteSpace=wrap;connectable=0;overflow=hidden;fillColor=none;top=1;left=1;bottom=1;right=1;" vertex="1" parent="Im4FhcCXqjplq8VreH-y-46">
          <mxGeometry x="120" width="40" height="40" as="geometry" />
        </mxCell>
        <mxCell id="Im4FhcCXqjplq8VreH-y-51" value="&lt;font style=&quot;font-size: 8px&quot;&gt;345678&lt;/font&gt;" style="shape=partialRectangle;html=1;whiteSpace=wrap;connectable=0;overflow=hidden;fillColor=#fad9d5;top=1;left=1;bottom=1;right=1;" vertex="1" parent="Im4FhcCXqjplq8VreH-y-46">
          <mxGeometry x="160" width="40" height="40" as="geometry" />
        </mxCell>
        <mxCell id="Im4FhcCXqjplq8VreH-y-52" value="2" style="shape=partialRectangle;html=1;whiteSpace=wrap;connectable=0;overflow=hidden;fillColor=#fad9d5;top=1;left=1;bottom=1;right=1;" vertex="1" parent="Im4FhcCXqjplq8VreH-y-46">
          <mxGeometry x="200" width="40" height="40" as="geometry" />
        </mxCell>
        <mxCell id="Im4FhcCXqjplq8VreH-y-53" value="5789" style="shape=partialRectangle;html=1;whiteSpace=wrap;connectable=0;overflow=hidden;fillColor=#fad9d5;top=1;left=1;bottom=1;right=1;fontSize=8;" vertex="1" parent="Im4FhcCXqjplq8VreH-y-46">
          <mxGeometry x="240" width="40" height="40" as="geometry" />
        </mxCell>
        <mxCell id="Im4FhcCXqjplq8VreH-y-54" value="" style="shape=partialRectangle;html=1;whiteSpace=wrap;connectable=0;overflow=hidden;fillColor=none;top=1;left=1;bottom=1;right=1;" vertex="1" parent="Im4FhcCXqjplq8VreH-y-46">
          <mxGeometry x="280" width="40" height="40" as="geometry" />
        </mxCell>
        <mxCell id="Im4FhcCXqjplq8VreH-y-55" value="" style="shape=partialRectangle;html=1;whiteSpace=wrap;connectable=0;overflow=hidden;fillColor=none;top=1;left=1;bottom=1;right=1;" vertex="1" parent="Im4FhcCXqjplq8VreH-y-46">
          <mxGeometry x="320" width="40" height="40" as="geometry" />
        </mxCell>
        <mxCell id="Im4FhcCXqjplq8VreH-y-56" value="" style="shape=partialRectangle;html=1;whiteSpace=wrap;connectable=0;overflow=hidden;fillColor=none;top=1;left=1;bottom=1;right=1;" vertex="1" parent="Im4FhcCXqjplq8VreH-y-46">
          <mxGeometry x="360" width="40" height="40" as="geometry" />
        </mxCell>
        <mxCell id="Im4FhcCXqjplq8VreH-y-57" value="" style="shape=partialRectangle;html=1;whiteSpace=wrap;collapsible=0;dropTarget=0;pointerEvents=0;fillColor=none;top=0;left=0;bottom=0;right=0;points=[[0,0.5],[1,0.5]];portConstraint=eastwest;" vertex="1" parent="Im4FhcCXqjplq8VreH-y-1">
          <mxGeometry y="200" width="400" height="40" as="geometry" />
        </mxCell>
        <mxCell id="Im4FhcCXqjplq8VreH-y-58" value="5" style="shape=partialRectangle;html=1;whiteSpace=wrap;connectable=0;overflow=hidden;fillColor=#b0e3e6;top=0;left=0;bottom=0;right=0;strokeColor=#0e8088;fontStyle=1;fontSize=18;" vertex="1" parent="Im4FhcCXqjplq8VreH-y-57">
          <mxGeometry width="40" height="40" as="geometry" />
        </mxCell>
        <mxCell id="Im4FhcCXqjplq8VreH-y-59" value="" style="shape=partialRectangle;html=1;whiteSpace=wrap;connectable=0;overflow=hidden;fillColor=none;top=1;left=1;bottom=1;right=1;" vertex="1" parent="Im4FhcCXqjplq8VreH-y-57">
          <mxGeometry x="40" width="40" height="40" as="geometry" />
        </mxCell>
        <mxCell id="Im4FhcCXqjplq8VreH-y-60" value="" style="shape=partialRectangle;html=1;whiteSpace=wrap;connectable=0;overflow=hidden;fillColor=none;top=1;left=1;bottom=1;right=1;" vertex="1" parent="Im4FhcCXqjplq8VreH-y-57">
          <mxGeometry x="80" width="40" height="40" as="geometry" />
        </mxCell>
        <mxCell id="Im4FhcCXqjplq8VreH-y-61" value="" style="shape=partialRectangle;html=1;whiteSpace=wrap;connectable=0;overflow=hidden;fillColor=none;top=1;left=1;bottom=1;right=1;" vertex="1" parent="Im4FhcCXqjplq8VreH-y-57">
          <mxGeometry x="120" width="40" height="40" as="geometry" />
        </mxCell>
        <mxCell id="Im4FhcCXqjplq8VreH-y-62" value="&lt;font style=&quot;font-size: 8px&quot;&gt;1345678&lt;/font&gt;" style="shape=partialRectangle;html=1;whiteSpace=wrap;connectable=0;overflow=hidden;fillColor=#fad9d5;top=1;left=1;bottom=1;right=1;" vertex="1" parent="Im4FhcCXqjplq8VreH-y-57">
          <mxGeometry x="160" width="40" height="40" as="geometry" />
        </mxCell>
        <mxCell id="Im4FhcCXqjplq8VreH-y-63" value="13679" style="shape=partialRectangle;html=1;whiteSpace=wrap;connectable=0;overflow=hidden;fillColor=#fad9d5;top=1;left=1;bottom=1;right=1;fontSize=8;" vertex="1" parent="Im4FhcCXqjplq8VreH-y-57">
          <mxGeometry x="200" width="40" height="40" as="geometry" />
        </mxCell>
        <mxCell id="Im4FhcCXqjplq8VreH-y-64" value="&lt;span style=&quot;font-size: 8px;&quot;&gt;5789&lt;/span&gt;" style="shape=partialRectangle;html=1;whiteSpace=wrap;connectable=0;overflow=hidden;fillColor=#fad9d5;top=1;left=1;bottom=1;right=1;fontSize=8;" vertex="1" parent="Im4FhcCXqjplq8VreH-y-57">
          <mxGeometry x="240" width="40" height="40" as="geometry" />
        </mxCell>
        <mxCell id="Im4FhcCXqjplq8VreH-y-65" value="" style="shape=partialRectangle;html=1;whiteSpace=wrap;connectable=0;overflow=hidden;fillColor=none;top=1;left=1;bottom=1;right=1;" vertex="1" parent="Im4FhcCXqjplq8VreH-y-57">
          <mxGeometry x="280" width="40" height="40" as="geometry" />
        </mxCell>
        <mxCell id="Im4FhcCXqjplq8VreH-y-66" value="" style="shape=partialRectangle;html=1;whiteSpace=wrap;connectable=0;overflow=hidden;fillColor=none;top=1;left=1;bottom=1;right=1;" vertex="1" parent="Im4FhcCXqjplq8VreH-y-57">
          <mxGeometry x="320" width="40" height="40" as="geometry" />
        </mxCell>
        <mxCell id="Im4FhcCXqjplq8VreH-y-67" value="" style="shape=partialRectangle;html=1;whiteSpace=wrap;connectable=0;overflow=hidden;fillColor=none;top=1;left=1;bottom=1;right=1;" vertex="1" parent="Im4FhcCXqjplq8VreH-y-57">
          <mxGeometry x="360" width="40" height="40" as="geometry" />
        </mxCell>
        <mxCell id="Im4FhcCXqjplq8VreH-y-68" value="" style="shape=partialRectangle;html=1;whiteSpace=wrap;collapsible=0;dropTarget=0;pointerEvents=0;fillColor=none;top=0;left=0;bottom=0;right=0;points=[[0,0.5],[1,0.5]];portConstraint=eastwest;" vertex="1" parent="Im4FhcCXqjplq8VreH-y-1">
          <mxGeometry y="240" width="400" height="40" as="geometry" />
        </mxCell>
        <mxCell id="Im4FhcCXqjplq8VreH-y-69" value="6" style="shape=partialRectangle;html=1;whiteSpace=wrap;connectable=0;overflow=hidden;fillColor=#b0e3e6;top=0;left=0;bottom=0;right=0;strokeColor=#0e8088;fontStyle=1;fontSize=18;" vertex="1" parent="Im4FhcCXqjplq8VreH-y-68">
          <mxGeometry width="40" height="40" as="geometry" />
        </mxCell>
        <mxCell id="Im4FhcCXqjplq8VreH-y-70" value="" style="shape=partialRectangle;html=1;whiteSpace=wrap;connectable=0;overflow=hidden;fillColor=none;top=1;left=1;bottom=1;right=1;" vertex="1" parent="Im4FhcCXqjplq8VreH-y-68">
          <mxGeometry x="40" width="40" height="40" as="geometry" />
        </mxCell>
        <mxCell id="Im4FhcCXqjplq8VreH-y-71" value="" style="shape=partialRectangle;html=1;whiteSpace=wrap;connectable=0;overflow=hidden;fillColor=none;top=1;left=1;bottom=1;right=1;" vertex="1" parent="Im4FhcCXqjplq8VreH-y-68">
          <mxGeometry x="80" width="40" height="40" as="geometry" />
        </mxCell>
        <mxCell id="Im4FhcCXqjplq8VreH-y-72" value="" style="shape=partialRectangle;html=1;whiteSpace=wrap;connectable=0;overflow=hidden;fillColor=none;top=1;left=1;bottom=1;right=1;" vertex="1" parent="Im4FhcCXqjplq8VreH-y-68">
          <mxGeometry x="120" width="40" height="40" as="geometry" />
        </mxCell>
        <mxCell id="Im4FhcCXqjplq8VreH-y-73" value="4578" style="shape=partialRectangle;html=1;whiteSpace=wrap;connectable=0;overflow=hidden;fillColor=#fad9d5;top=1;left=1;bottom=1;right=1;fontSize=8;" vertex="1" parent="Im4FhcCXqjplq8VreH-y-68">
          <mxGeometry x="160" width="40" height="40" as="geometry" />
        </mxCell>
        <mxCell id="Im4FhcCXqjplq8VreH-y-74" value="79" style="shape=partialRectangle;html=1;whiteSpace=wrap;connectable=0;overflow=hidden;fillColor=#fad9d5;top=1;left=1;bottom=1;right=1;fontSize=8;" vertex="1" parent="Im4FhcCXqjplq8VreH-y-68">
          <mxGeometry x="200" width="40" height="40" as="geometry" />
        </mxCell>
        <mxCell id="Im4FhcCXqjplq8VreH-y-75" value="&lt;span style=&quot;font-size: 8px;&quot;&gt;5789&lt;/span&gt;" style="shape=partialRectangle;html=1;whiteSpace=wrap;connectable=0;overflow=hidden;fillColor=#fad9d5;top=1;left=1;bottom=1;right=1;fontSize=8;" vertex="1" parent="Im4FhcCXqjplq8VreH-y-68">
          <mxGeometry x="240" width="40" height="40" as="geometry" />
        </mxCell>
        <mxCell id="Im4FhcCXqjplq8VreH-y-76" value="" style="shape=partialRectangle;html=1;whiteSpace=wrap;connectable=0;overflow=hidden;fillColor=none;top=1;left=1;bottom=1;right=1;" vertex="1" parent="Im4FhcCXqjplq8VreH-y-68">
          <mxGeometry x="280" width="40" height="40" as="geometry" />
        </mxCell>
        <mxCell id="Im4FhcCXqjplq8VreH-y-77" value="" style="shape=partialRectangle;html=1;whiteSpace=wrap;connectable=0;overflow=hidden;fillColor=none;top=1;left=1;bottom=1;right=1;" vertex="1" parent="Im4FhcCXqjplq8VreH-y-68">
          <mxGeometry x="320" width="40" height="40" as="geometry" />
        </mxCell>
        <mxCell id="Im4FhcCXqjplq8VreH-y-78" value="" style="shape=partialRectangle;html=1;whiteSpace=wrap;connectable=0;overflow=hidden;fillColor=none;top=1;left=1;bottom=1;right=1;" vertex="1" parent="Im4FhcCXqjplq8VreH-y-68">
          <mxGeometry x="360" width="40" height="40" as="geometry" />
        </mxCell>
        <mxCell id="Im4FhcCXqjplq8VreH-y-79" value="" style="shape=partialRectangle;html=1;whiteSpace=wrap;collapsible=0;dropTarget=0;pointerEvents=0;fillColor=none;top=0;left=0;bottom=0;right=0;points=[[0,0.5],[1,0.5]];portConstraint=eastwest;" vertex="1" parent="Im4FhcCXqjplq8VreH-y-1">
          <mxGeometry y="280" width="400" height="40" as="geometry" />
        </mxCell>
        <mxCell id="Im4FhcCXqjplq8VreH-y-80" value="7" style="shape=partialRectangle;html=1;whiteSpace=wrap;connectable=0;overflow=hidden;fillColor=#b0e3e6;top=0;left=0;bottom=0;right=0;strokeColor=#0e8088;fontStyle=1;fontSize=18;" vertex="1" parent="Im4FhcCXqjplq8VreH-y-79">
          <mxGeometry width="40" height="40" as="geometry" />
        </mxCell>
        <mxCell id="Im4FhcCXqjplq8VreH-y-81" value="" style="shape=partialRectangle;html=1;whiteSpace=wrap;connectable=0;overflow=hidden;fillColor=#fad9d5;top=1;left=1;bottom=1;right=1;" vertex="1" parent="Im4FhcCXqjplq8VreH-y-79">
          <mxGeometry x="40" width="40" height="40" as="geometry" />
        </mxCell>
        <mxCell id="Im4FhcCXqjplq8VreH-y-82" value="" style="shape=partialRectangle;html=1;whiteSpace=wrap;connectable=0;overflow=hidden;fillColor=#fad9d5;top=1;left=1;bottom=1;right=1;" vertex="1" parent="Im4FhcCXqjplq8VreH-y-79">
          <mxGeometry x="80" width="40" height="40" as="geometry" />
        </mxCell>
        <mxCell id="Im4FhcCXqjplq8VreH-y-83" value="" style="shape=partialRectangle;html=1;whiteSpace=wrap;connectable=0;overflow=hidden;fillColor=#fad9d5;top=1;left=1;bottom=1;right=1;" vertex="1" parent="Im4FhcCXqjplq8VreH-y-79">
          <mxGeometry x="120" width="40" height="40" as="geometry" />
        </mxCell>
        <mxCell id="Im4FhcCXqjplq8VreH-y-84" value="5678" style="shape=partialRectangle;html=1;whiteSpace=wrap;connectable=0;overflow=hidden;fillColor=none;top=1;left=1;bottom=1;right=1;fontSize=8;" vertex="1" parent="Im4FhcCXqjplq8VreH-y-79">
          <mxGeometry x="160" width="40" height="40" as="geometry" />
        </mxCell>
        <mxCell id="Im4FhcCXqjplq8VreH-y-85" value="679" style="shape=partialRectangle;html=1;whiteSpace=wrap;connectable=0;overflow=hidden;fillColor=none;top=1;left=1;bottom=1;right=1;fontSize=8;" vertex="1" parent="Im4FhcCXqjplq8VreH-y-79">
          <mxGeometry x="200" width="40" height="40" as="geometry" />
        </mxCell>
        <mxCell id="Im4FhcCXqjplq8VreH-y-86" value="5789" style="shape=partialRectangle;html=1;whiteSpace=wrap;connectable=0;overflow=hidden;fillColor=none;top=1;left=1;bottom=1;right=1;fontSize=8;" vertex="1" parent="Im4FhcCXqjplq8VreH-y-79">
          <mxGeometry x="240" width="40" height="40" as="geometry" />
        </mxCell>
        <mxCell id="Im4FhcCXqjplq8VreH-y-87" value="" style="shape=partialRectangle;html=1;whiteSpace=wrap;connectable=0;overflow=hidden;fillColor=#fad9d5;top=1;left=1;bottom=1;right=1;" vertex="1" parent="Im4FhcCXqjplq8VreH-y-79">
          <mxGeometry x="280" width="40" height="40" as="geometry" />
        </mxCell>
        <mxCell id="Im4FhcCXqjplq8VreH-y-88" value="" style="shape=partialRectangle;html=1;whiteSpace=wrap;connectable=0;overflow=hidden;fillColor=#fad9d5;top=1;left=1;bottom=1;right=1;" vertex="1" parent="Im4FhcCXqjplq8VreH-y-79">
          <mxGeometry x="320" width="40" height="40" as="geometry" />
        </mxCell>
        <mxCell id="Im4FhcCXqjplq8VreH-y-89" value="" style="shape=partialRectangle;html=1;whiteSpace=wrap;connectable=0;overflow=hidden;fillColor=#fad9d5;top=1;left=1;bottom=1;right=1;" vertex="1" parent="Im4FhcCXqjplq8VreH-y-79">
          <mxGeometry x="360" width="40" height="40" as="geometry" />
        </mxCell>
        <mxCell id="Im4FhcCXqjplq8VreH-y-90" value="" style="shape=partialRectangle;html=1;whiteSpace=wrap;collapsible=0;dropTarget=0;pointerEvents=0;fillColor=none;top=0;left=0;bottom=0;right=0;points=[[0,0.5],[1,0.5]];portConstraint=eastwest;" vertex="1" parent="Im4FhcCXqjplq8VreH-y-1">
          <mxGeometry y="320" width="400" height="40" as="geometry" />
        </mxCell>
        <mxCell id="Im4FhcCXqjplq8VreH-y-91" value="8" style="shape=partialRectangle;html=1;whiteSpace=wrap;connectable=0;overflow=hidden;fillColor=#b0e3e6;top=0;left=0;bottom=0;right=0;strokeColor=#0e8088;fontStyle=1;fontSize=18;" vertex="1" parent="Im4FhcCXqjplq8VreH-y-90">
          <mxGeometry width="40" height="40" as="geometry" />
        </mxCell>
        <mxCell id="Im4FhcCXqjplq8VreH-y-92" value="" style="shape=partialRectangle;html=1;whiteSpace=wrap;connectable=0;overflow=hidden;fillColor=#fad9d5;top=1;left=1;bottom=1;right=1;" vertex="1" parent="Im4FhcCXqjplq8VreH-y-90">
          <mxGeometry x="40" width="40" height="40" as="geometry" />
        </mxCell>
        <mxCell id="Im4FhcCXqjplq8VreH-y-93" value="" style="shape=partialRectangle;html=1;whiteSpace=wrap;connectable=0;overflow=hidden;fillColor=#fad9d5;top=1;left=1;bottom=1;right=1;" vertex="1" parent="Im4FhcCXqjplq8VreH-y-90">
          <mxGeometry x="80" width="40" height="40" as="geometry" />
        </mxCell>
        <mxCell id="Im4FhcCXqjplq8VreH-y-94" value="" style="shape=partialRectangle;html=1;whiteSpace=wrap;connectable=0;overflow=hidden;fillColor=#fad9d5;top=1;left=1;bottom=1;right=1;" vertex="1" parent="Im4FhcCXqjplq8VreH-y-90">
          <mxGeometry x="120" width="40" height="40" as="geometry" />
        </mxCell>
        <mxCell id="Im4FhcCXqjplq8VreH-y-95" value="3567" style="shape=partialRectangle;html=1;whiteSpace=wrap;connectable=0;overflow=hidden;fillColor=none;top=1;left=1;bottom=1;right=1;fontSize=8;" vertex="1" parent="Im4FhcCXqjplq8VreH-y-90">
          <mxGeometry x="160" width="40" height="40" as="geometry" />
        </mxCell>
        <mxCell id="Im4FhcCXqjplq8VreH-y-96" value="4" style="shape=partialRectangle;html=1;whiteSpace=wrap;connectable=0;overflow=hidden;fillColor=none;top=1;left=1;bottom=1;right=1;fontSize=8;" vertex="1" parent="Im4FhcCXqjplq8VreH-y-90">
          <mxGeometry x="200" width="40" height="40" as="geometry" />
        </mxCell>
        <mxCell id="Im4FhcCXqjplq8VreH-y-97" value="2579" style="shape=partialRectangle;html=1;whiteSpace=wrap;connectable=0;overflow=hidden;fillColor=none;top=1;left=1;bottom=1;right=1;fontSize=8;" vertex="1" parent="Im4FhcCXqjplq8VreH-y-90">
          <mxGeometry x="240" width="40" height="40" as="geometry" />
        </mxCell>
        <mxCell id="Im4FhcCXqjplq8VreH-y-98" value="" style="shape=partialRectangle;html=1;whiteSpace=wrap;connectable=0;overflow=hidden;fillColor=#fad9d5;top=1;left=1;bottom=1;right=1;" vertex="1" parent="Im4FhcCXqjplq8VreH-y-90">
          <mxGeometry x="280" width="40" height="40" as="geometry" />
        </mxCell>
        <mxCell id="Im4FhcCXqjplq8VreH-y-99" value="" style="shape=partialRectangle;html=1;whiteSpace=wrap;connectable=0;overflow=hidden;fillColor=#fad9d5;top=1;left=1;bottom=1;right=1;" vertex="1" parent="Im4FhcCXqjplq8VreH-y-90">
          <mxGeometry x="320" width="40" height="40" as="geometry" />
        </mxCell>
        <mxCell id="Im4FhcCXqjplq8VreH-y-100" value="" style="shape=partialRectangle;html=1;whiteSpace=wrap;connectable=0;overflow=hidden;fillColor=#fad9d5;top=1;left=1;bottom=1;right=1;" vertex="1" parent="Im4FhcCXqjplq8VreH-y-90">
          <mxGeometry x="360" width="40" height="40" as="geometry" />
        </mxCell>
        <mxCell id="Im4FhcCXqjplq8VreH-y-101" value="" style="shape=partialRectangle;html=1;whiteSpace=wrap;collapsible=0;dropTarget=0;pointerEvents=0;fillColor=none;top=0;left=0;bottom=0;right=0;points=[[0,0.5],[1,0.5]];portConstraint=eastwest;" vertex="1" parent="Im4FhcCXqjplq8VreH-y-1">
          <mxGeometry y="360" width="400" height="40" as="geometry" />
        </mxCell>
        <mxCell id="Im4FhcCXqjplq8VreH-y-102" value="9" style="shape=partialRectangle;html=1;whiteSpace=wrap;connectable=0;overflow=hidden;fillColor=#b0e3e6;top=0;left=0;bottom=0;right=0;strokeColor=#0e8088;fontStyle=1;fontSize=18;" vertex="1" parent="Im4FhcCXqjplq8VreH-y-101">
          <mxGeometry width="40" height="40" as="geometry" />
        </mxCell>
        <mxCell id="Im4FhcCXqjplq8VreH-y-103" value="" style="shape=partialRectangle;html=1;whiteSpace=wrap;connectable=0;overflow=hidden;fillColor=#fad9d5;top=1;left=1;bottom=1;right=1;" vertex="1" parent="Im4FhcCXqjplq8VreH-y-101">
          <mxGeometry x="40" width="40" height="40" as="geometry" />
        </mxCell>
        <mxCell id="Im4FhcCXqjplq8VreH-y-104" value="" style="shape=partialRectangle;html=1;whiteSpace=wrap;connectable=0;overflow=hidden;fillColor=#fad9d5;top=1;left=1;bottom=1;right=1;" vertex="1" parent="Im4FhcCXqjplq8VreH-y-101">
          <mxGeometry x="80" width="40" height="40" as="geometry" />
        </mxCell>
        <mxCell id="Im4FhcCXqjplq8VreH-y-105" value="" style="shape=partialRectangle;html=1;whiteSpace=wrap;connectable=0;overflow=hidden;fillColor=#fad9d5;top=1;left=1;bottom=1;right=1;" vertex="1" parent="Im4FhcCXqjplq8VreH-y-101">
          <mxGeometry x="120" width="40" height="40" as="geometry" />
        </mxCell>
        <mxCell id="Im4FhcCXqjplq8VreH-y-106" value="368" style="shape=partialRectangle;html=1;whiteSpace=wrap;connectable=0;overflow=hidden;fillColor=none;top=1;left=1;bottom=1;right=1;fontSize=8;" vertex="1" parent="Im4FhcCXqjplq8VreH-y-101">
          <mxGeometry x="160" width="40" height="40" as="geometry" />
        </mxCell>
        <mxCell id="Im4FhcCXqjplq8VreH-y-107" value="369" style="shape=partialRectangle;html=1;whiteSpace=wrap;connectable=0;overflow=hidden;fillColor=none;top=1;left=1;bottom=1;right=1;fontSize=8;" vertex="1" parent="Im4FhcCXqjplq8VreH-y-101">
          <mxGeometry x="200" width="40" height="40" as="geometry" />
        </mxCell>
        <mxCell id="Im4FhcCXqjplq8VreH-y-108" value="1" style="shape=partialRectangle;html=1;whiteSpace=wrap;connectable=0;overflow=hidden;fillColor=none;top=1;left=1;bottom=1;right=1;fontSize=8;" vertex="1" parent="Im4FhcCXqjplq8VreH-y-101">
          <mxGeometry x="240" width="40" height="40" as="geometry" />
        </mxCell>
        <mxCell id="Im4FhcCXqjplq8VreH-y-109" value="" style="shape=partialRectangle;html=1;whiteSpace=wrap;connectable=0;overflow=hidden;fillColor=#fad9d5;top=1;left=1;bottom=1;right=1;" vertex="1" parent="Im4FhcCXqjplq8VreH-y-101">
          <mxGeometry x="280" width="40" height="40" as="geometry" />
        </mxCell>
        <mxCell id="Im4FhcCXqjplq8VreH-y-110" value="" style="shape=partialRectangle;html=1;whiteSpace=wrap;connectable=0;overflow=hidden;fillColor=#fad9d5;top=1;left=1;bottom=1;right=1;" vertex="1" parent="Im4FhcCXqjplq8VreH-y-101">
          <mxGeometry x="320" width="40" height="40" as="geometry" />
        </mxCell>
        <mxCell id="Im4FhcCXqjplq8VreH-y-111" value="" style="shape=partialRectangle;html=1;whiteSpace=wrap;connectable=0;overflow=hidden;fillColor=#fad9d5;top=1;left=1;bottom=1;right=1;" vertex="1" parent="Im4FhcCXqjplq8VreH-y-101">
          <mxGeometry x="360" width="40" height="40" as="geometry" />
        </mxCell>
        <mxCell id="Im4FhcCXqjplq8VreH-y-112" value="Copied Table (with guess in cell D3)" style="text;strokeColor=none;fillColor=none;html=1;fontSize=24;fontStyle=1;verticalAlign=middle;align=center;rounded=0;shadow=1;" vertex="1" parent="1">
          <mxGeometry x="535" y="73" width="780" height="40" as="geometry" />
        </mxCell>
        <mxCell id="Im4FhcCXqjplq8VreH-y-113" value="" style="shape=table;html=1;whiteSpace=wrap;startSize=0;container=1;collapsible=0;childLayout=tableLayout;aspect=fixed;rowLines=1;columnLines=1;" vertex="1" parent="1">
          <mxGeometry x="727" y="113" width="400" height="403.5" as="geometry" />
        </mxCell>
        <mxCell id="Im4FhcCXqjplq8VreH-y-114" value="" style="shape=partialRectangle;html=1;whiteSpace=wrap;collapsible=0;dropTarget=0;pointerEvents=0;fillColor=none;top=0;left=0;bottom=0;right=0;points=[[0,0.5],[1,0.5]];portConstraint=eastwest;" vertex="1" parent="Im4FhcCXqjplq8VreH-y-113">
          <mxGeometry width="400" height="40" as="geometry" />
        </mxCell>
        <mxCell id="Im4FhcCXqjplq8VreH-y-115" value="" style="shape=partialRectangle;html=1;whiteSpace=wrap;connectable=0;overflow=hidden;fillColor=#b0e3e6;top=0;left=0;bottom=0;right=0;strokeColor=#0e8088;fontStyle=1;fontSize=18;" vertex="1" parent="Im4FhcCXqjplq8VreH-y-114">
          <mxGeometry width="40" height="40" as="geometry" />
        </mxCell>
        <mxCell id="Im4FhcCXqjplq8VreH-y-116" value="A" style="shape=partialRectangle;html=1;whiteSpace=wrap;connectable=0;overflow=hidden;fillColor=#b0e3e6;top=0;left=0;bottom=0;right=0;strokeColor=#0e8088;fontStyle=1;fontSize=18;" vertex="1" parent="Im4FhcCXqjplq8VreH-y-114">
          <mxGeometry x="40" width="40" height="40" as="geometry" />
        </mxCell>
        <mxCell id="Im4FhcCXqjplq8VreH-y-117" value="B" style="shape=partialRectangle;html=1;whiteSpace=wrap;connectable=0;overflow=hidden;fillColor=#b0e3e6;top=0;left=0;bottom=0;right=0;strokeColor=#0e8088;fontStyle=1;fontSize=18;" vertex="1" parent="Im4FhcCXqjplq8VreH-y-114">
          <mxGeometry x="80" width="40" height="40" as="geometry" />
        </mxCell>
        <mxCell id="Im4FhcCXqjplq8VreH-y-118" value="C" style="shape=partialRectangle;html=1;whiteSpace=wrap;connectable=0;overflow=hidden;fillColor=#b0e3e6;top=0;left=0;bottom=0;right=0;strokeColor=#0e8088;fontStyle=1;fontSize=18;" vertex="1" parent="Im4FhcCXqjplq8VreH-y-114">
          <mxGeometry x="120" width="40" height="40" as="geometry" />
        </mxCell>
        <mxCell id="Im4FhcCXqjplq8VreH-y-119" value="D" style="shape=partialRectangle;html=1;whiteSpace=wrap;connectable=0;overflow=hidden;fillColor=#b0e3e6;top=0;left=0;bottom=0;right=0;strokeColor=#0e8088;fontStyle=1;fontSize=18;" vertex="1" parent="Im4FhcCXqjplq8VreH-y-114">
          <mxGeometry x="160" width="40" height="40" as="geometry" />
        </mxCell>
        <mxCell id="Im4FhcCXqjplq8VreH-y-120" value="E" style="shape=partialRectangle;html=1;whiteSpace=wrap;connectable=0;overflow=hidden;fillColor=#b0e3e6;top=0;left=0;bottom=0;right=0;strokeColor=#0e8088;fontStyle=1;fontSize=18;" vertex="1" parent="Im4FhcCXqjplq8VreH-y-114">
          <mxGeometry x="200" width="40" height="40" as="geometry" />
        </mxCell>
        <mxCell id="Im4FhcCXqjplq8VreH-y-121" value="F" style="shape=partialRectangle;html=1;whiteSpace=wrap;connectable=0;overflow=hidden;fillColor=#b0e3e6;top=0;left=0;bottom=0;right=0;strokeColor=#0e8088;fontStyle=1;fontSize=18;" vertex="1" parent="Im4FhcCXqjplq8VreH-y-114">
          <mxGeometry x="240" width="40" height="40" as="geometry" />
        </mxCell>
        <mxCell id="Im4FhcCXqjplq8VreH-y-122" value="G" style="shape=partialRectangle;html=1;whiteSpace=wrap;connectable=0;overflow=hidden;fillColor=#b0e3e6;top=0;left=0;bottom=0;right=0;strokeColor=#0e8088;fontStyle=1;fontSize=18;" vertex="1" parent="Im4FhcCXqjplq8VreH-y-114">
          <mxGeometry x="280" width="40" height="40" as="geometry" />
        </mxCell>
        <mxCell id="Im4FhcCXqjplq8VreH-y-123" value="H" style="shape=partialRectangle;html=1;whiteSpace=wrap;connectable=0;overflow=hidden;fillColor=#b0e3e6;top=0;left=0;bottom=0;right=0;strokeColor=#0e8088;fontStyle=1;fontSize=18;" vertex="1" parent="Im4FhcCXqjplq8VreH-y-114">
          <mxGeometry x="320" width="40" height="40" as="geometry" />
        </mxCell>
        <mxCell id="Im4FhcCXqjplq8VreH-y-124" value="I" style="shape=partialRectangle;html=1;whiteSpace=wrap;connectable=0;overflow=hidden;fillColor=#b0e3e6;top=0;left=0;bottom=0;right=0;strokeColor=#0e8088;fontStyle=1;fontSize=18;" vertex="1" parent="Im4FhcCXqjplq8VreH-y-114">
          <mxGeometry x="360" width="40" height="40" as="geometry" />
        </mxCell>
        <mxCell id="Im4FhcCXqjplq8VreH-y-125" value="" style="shape=partialRectangle;html=1;whiteSpace=wrap;collapsible=0;dropTarget=0;pointerEvents=0;fillColor=none;top=0;left=0;bottom=0;right=0;points=[[0,0.5],[1,0.5]];portConstraint=eastwest;" vertex="1" parent="Im4FhcCXqjplq8VreH-y-113">
          <mxGeometry y="40" width="400" height="44" as="geometry" />
        </mxCell>
        <mxCell id="Im4FhcCXqjplq8VreH-y-126" value="1" style="shape=partialRectangle;html=1;whiteSpace=wrap;connectable=0;overflow=hidden;fillColor=#b0e3e6;top=0;left=0;bottom=0;right=0;strokeColor=#0e8088;fontStyle=1;fontSize=18;" vertex="1" parent="Im4FhcCXqjplq8VreH-y-125">
          <mxGeometry width="40" height="44" as="geometry" />
        </mxCell>
        <mxCell id="Im4FhcCXqjplq8VreH-y-127" value="1" style="shape=partialRectangle;html=1;whiteSpace=wrap;connectable=0;overflow=hidden;fillColor=#fad9d5;top=1;left=1;bottom=1;right=1;" vertex="1" parent="Im4FhcCXqjplq8VreH-y-125">
          <mxGeometry x="40" width="40" height="44" as="geometry" />
        </mxCell>
        <mxCell id="Im4FhcCXqjplq8VreH-y-128" value="5" style="shape=partialRectangle;html=1;whiteSpace=wrap;connectable=0;overflow=hidden;fillColor=#fad9d5;top=1;left=1;bottom=1;right=1;" vertex="1" parent="Im4FhcCXqjplq8VreH-y-125">
          <mxGeometry x="80" width="40" height="44" as="geometry" />
        </mxCell>
        <mxCell id="Im4FhcCXqjplq8VreH-y-129" value="3" style="shape=partialRectangle;html=1;whiteSpace=wrap;connectable=0;overflow=hidden;fillColor=#fad9d5;top=1;left=1;bottom=1;right=1;" vertex="1" parent="Im4FhcCXqjplq8VreH-y-125">
          <mxGeometry x="120" width="40" height="44" as="geometry" />
        </mxCell>
        <mxCell id="Im4FhcCXqjplq8VreH-y-130" value="2" style="shape=partialRectangle;html=1;whiteSpace=wrap;connectable=0;overflow=hidden;fillColor=none;top=1;left=1;bottom=1;right=1;" vertex="1" parent="Im4FhcCXqjplq8VreH-y-125">
          <mxGeometry x="160" width="40" height="44" as="geometry" />
        </mxCell>
        <mxCell id="Im4FhcCXqjplq8VreH-y-131" value="8" style="shape=partialRectangle;html=1;whiteSpace=wrap;connectable=0;overflow=hidden;fillColor=none;top=1;left=1;bottom=1;right=1;" vertex="1" parent="Im4FhcCXqjplq8VreH-y-125">
          <mxGeometry x="200" width="40" height="44" as="geometry" />
        </mxCell>
        <mxCell id="Im4FhcCXqjplq8VreH-y-132" value="4" style="shape=partialRectangle;html=1;whiteSpace=wrap;connectable=0;overflow=hidden;fillColor=none;top=1;left=1;bottom=1;right=1;" vertex="1" parent="Im4FhcCXqjplq8VreH-y-125">
          <mxGeometry x="240" width="40" height="44" as="geometry" />
        </mxCell>
        <mxCell id="Im4FhcCXqjplq8VreH-y-133" value="9" style="shape=partialRectangle;html=1;whiteSpace=wrap;connectable=0;overflow=hidden;fillColor=#fad9d5;top=1;left=1;bottom=1;right=1;perimeterSpacing=2;" vertex="1" parent="Im4FhcCXqjplq8VreH-y-125">
          <mxGeometry x="280" width="40" height="44" as="geometry" />
        </mxCell>
        <mxCell id="Im4FhcCXqjplq8VreH-y-134" value="6" style="shape=partialRectangle;html=1;whiteSpace=wrap;connectable=0;overflow=hidden;fillColor=#fad9d5;top=1;left=1;bottom=1;right=1;" vertex="1" parent="Im4FhcCXqjplq8VreH-y-125">
          <mxGeometry x="320" width="40" height="44" as="geometry" />
        </mxCell>
        <mxCell id="Im4FhcCXqjplq8VreH-y-135" value="7" style="shape=partialRectangle;html=1;whiteSpace=wrap;connectable=0;overflow=hidden;fillColor=#fad9d5;top=1;left=1;bottom=1;right=1;" vertex="1" parent="Im4FhcCXqjplq8VreH-y-125">
          <mxGeometry x="360" width="40" height="44" as="geometry" />
        </mxCell>
        <mxCell id="Im4FhcCXqjplq8VreH-y-136" value="" style="shape=partialRectangle;html=1;whiteSpace=wrap;collapsible=0;dropTarget=0;pointerEvents=0;fillColor=none;top=0;left=0;bottom=0;right=0;points=[[0,0.5],[1,0.5]];portConstraint=eastwest;" vertex="1" parent="Im4FhcCXqjplq8VreH-y-113">
          <mxGeometry y="84" width="400" height="40" as="geometry" />
        </mxCell>
        <mxCell id="Im4FhcCXqjplq8VreH-y-137" value="2" style="shape=partialRectangle;html=1;whiteSpace=wrap;connectable=0;overflow=hidden;fillColor=#b0e3e6;top=0;left=0;bottom=0;right=0;strokeColor=#0e8088;fontStyle=1;fontSize=18;" vertex="1" parent="Im4FhcCXqjplq8VreH-y-136">
          <mxGeometry width="40" height="40" as="geometry" />
        </mxCell>
        <mxCell id="Im4FhcCXqjplq8VreH-y-138" value="8" style="shape=partialRectangle;html=1;whiteSpace=wrap;connectable=0;overflow=hidden;fillColor=#fad9d5;top=1;left=1;bottom=1;right=1;" vertex="1" parent="Im4FhcCXqjplq8VreH-y-136">
          <mxGeometry x="40" width="40" height="40" as="geometry" />
        </mxCell>
        <mxCell id="Im4FhcCXqjplq8VreH-y-139" value="2" style="shape=partialRectangle;html=1;whiteSpace=wrap;connectable=0;overflow=hidden;fillColor=#fad9d5;top=1;left=1;bottom=1;right=1;" vertex="1" parent="Im4FhcCXqjplq8VreH-y-136">
          <mxGeometry x="80" width="40" height="40" as="geometry" />
        </mxCell>
        <mxCell id="Im4FhcCXqjplq8VreH-y-140" value="7" style="shape=partialRectangle;html=1;whiteSpace=wrap;connectable=0;overflow=hidden;fillColor=#fad9d5;top=1;left=1;bottom=1;right=1;" vertex="1" parent="Im4FhcCXqjplq8VreH-y-136">
          <mxGeometry x="120" width="40" height="40" as="geometry" />
        </mxCell>
        <mxCell id="Im4FhcCXqjplq8VreH-y-141" value="9" style="shape=partialRectangle;html=1;whiteSpace=wrap;connectable=0;overflow=hidden;fillColor=none;top=1;left=1;bottom=1;right=1;" vertex="1" parent="Im4FhcCXqjplq8VreH-y-136">
          <mxGeometry x="160" width="40" height="40" as="geometry" />
        </mxCell>
        <mxCell id="Im4FhcCXqjplq8VreH-y-142" value="5" style="shape=partialRectangle;html=1;whiteSpace=wrap;connectable=0;overflow=hidden;fillColor=none;top=1;left=1;bottom=1;right=1;" vertex="1" parent="Im4FhcCXqjplq8VreH-y-136">
          <mxGeometry x="200" width="40" height="40" as="geometry" />
        </mxCell>
        <mxCell id="Im4FhcCXqjplq8VreH-y-143" value="6" style="shape=partialRectangle;html=1;whiteSpace=wrap;connectable=0;overflow=hidden;fillColor=none;top=1;left=1;bottom=1;right=1;" vertex="1" parent="Im4FhcCXqjplq8VreH-y-136">
          <mxGeometry x="240" width="40" height="40" as="geometry" />
        </mxCell>
        <mxCell id="Im4FhcCXqjplq8VreH-y-144" value="1" style="shape=partialRectangle;html=1;whiteSpace=wrap;connectable=0;overflow=hidden;fillColor=#fad9d5;top=1;left=1;bottom=1;right=1;" vertex="1" parent="Im4FhcCXqjplq8VreH-y-136">
          <mxGeometry x="280" width="40" height="40" as="geometry" />
        </mxCell>
        <mxCell id="Im4FhcCXqjplq8VreH-y-145" value="4" style="shape=partialRectangle;html=1;whiteSpace=wrap;connectable=0;overflow=hidden;fillColor=#fad9d5;top=1;left=1;bottom=1;right=1;" vertex="1" parent="Im4FhcCXqjplq8VreH-y-136">
          <mxGeometry x="320" width="40" height="40" as="geometry" />
        </mxCell>
        <mxCell id="Im4FhcCXqjplq8VreH-y-146" value="3" style="shape=partialRectangle;html=1;whiteSpace=wrap;connectable=0;overflow=hidden;fillColor=#fad9d5;top=1;left=1;bottom=1;right=1;" vertex="1" parent="Im4FhcCXqjplq8VreH-y-136">
          <mxGeometry x="360" width="40" height="40" as="geometry" />
        </mxCell>
        <mxCell id="Im4FhcCXqjplq8VreH-y-147" value="" style="shape=partialRectangle;html=1;whiteSpace=wrap;collapsible=0;dropTarget=0;pointerEvents=0;fillColor=none;top=0;left=0;bottom=0;right=0;points=[[0,0.5],[1,0.5]];portConstraint=eastwest;" vertex="1" parent="Im4FhcCXqjplq8VreH-y-113">
          <mxGeometry y="124" width="400" height="40" as="geometry" />
        </mxCell>
        <mxCell id="Im4FhcCXqjplq8VreH-y-148" value="3" style="shape=partialRectangle;html=1;whiteSpace=wrap;connectable=0;overflow=hidden;fillColor=#b0e3e6;top=0;left=0;bottom=0;right=0;strokeColor=#0e8088;fontStyle=1;fontSize=18;" vertex="1" parent="Im4FhcCXqjplq8VreH-y-147">
          <mxGeometry width="40" height="40" as="geometry" />
        </mxCell>
        <mxCell id="Im4FhcCXqjplq8VreH-y-149" value="4" style="shape=partialRectangle;html=1;whiteSpace=wrap;connectable=0;overflow=hidden;fillColor=#fad9d5;top=1;left=1;bottom=1;right=1;" vertex="1" parent="Im4FhcCXqjplq8VreH-y-147">
          <mxGeometry x="40" width="40" height="40" as="geometry" />
        </mxCell>
        <mxCell id="Im4FhcCXqjplq8VreH-y-150" value="6" style="shape=partialRectangle;html=1;whiteSpace=wrap;connectable=0;overflow=hidden;fillColor=#fad9d5;top=1;left=1;bottom=1;right=1;" vertex="1" parent="Im4FhcCXqjplq8VreH-y-147">
          <mxGeometry x="80" width="40" height="40" as="geometry" />
        </mxCell>
        <mxCell id="Im4FhcCXqjplq8VreH-y-151" value="9" style="shape=partialRectangle;html=1;whiteSpace=wrap;connectable=0;overflow=hidden;fillColor=#fad9d5;top=1;left=1;bottom=1;right=1;" vertex="1" parent="Im4FhcCXqjplq8VreH-y-147">
          <mxGeometry x="120" width="40" height="40" as="geometry" />
        </mxCell>
        <mxCell id="Im4FhcCXqjplq8VreH-y-152" value="&lt;font style=&quot;font-size: 12px&quot;&gt;1&lt;/font&gt;" style="shape=partialRectangle;html=1;whiteSpace=wrap;connectable=0;overflow=hidden;top=1;left=1;bottom=1;right=1;labelBackgroundColor=#ffffff;fillColor=#00FF00;" vertex="1" parent="Im4FhcCXqjplq8VreH-y-147">
          <mxGeometry x="160" width="40" height="40" as="geometry" />
        </mxCell>
        <mxCell id="Im4FhcCXqjplq8VreH-y-153" value="&lt;font style=&quot;font-size: 8px&quot;&gt;17&lt;/font&gt;" style="shape=partialRectangle;html=1;whiteSpace=wrap;connectable=0;overflow=hidden;fillColor=none;top=1;left=1;bottom=1;right=1;" vertex="1" parent="Im4FhcCXqjplq8VreH-y-147">
          <mxGeometry x="200" width="40" height="40" as="geometry" />
        </mxCell>
        <mxCell id="Im4FhcCXqjplq8VreH-y-154" value="3" style="shape=partialRectangle;html=1;whiteSpace=wrap;connectable=0;overflow=hidden;fillColor=none;top=1;left=1;bottom=1;right=1;" vertex="1" parent="Im4FhcCXqjplq8VreH-y-147">
          <mxGeometry x="240" width="40" height="40" as="geometry" />
        </mxCell>
        <mxCell id="Im4FhcCXqjplq8VreH-y-155" value="58" style="shape=partialRectangle;html=1;whiteSpace=wrap;connectable=0;overflow=hidden;fillColor=#fad9d5;top=1;left=1;bottom=1;right=1;fontSize=8;" vertex="1" parent="Im4FhcCXqjplq8VreH-y-147">
          <mxGeometry x="280" width="40" height="40" as="geometry" />
        </mxCell>
        <mxCell id="Im4FhcCXqjplq8VreH-y-156" value="58" style="shape=partialRectangle;html=1;whiteSpace=wrap;connectable=0;overflow=hidden;fillColor=#fad9d5;top=1;left=1;bottom=1;right=1;fontSize=8;" vertex="1" parent="Im4FhcCXqjplq8VreH-y-147">
          <mxGeometry x="320" width="40" height="40" as="geometry" />
        </mxCell>
        <mxCell id="Im4FhcCXqjplq8VreH-y-157" value="2" style="shape=partialRectangle;html=1;whiteSpace=wrap;connectable=0;overflow=hidden;fillColor=#fad9d5;top=1;left=1;bottom=1;right=1;" vertex="1" parent="Im4FhcCXqjplq8VreH-y-147">
          <mxGeometry x="360" width="40" height="40" as="geometry" />
        </mxCell>
        <mxCell id="Im4FhcCXqjplq8VreH-y-158" value="" style="shape=partialRectangle;html=1;whiteSpace=wrap;collapsible=0;dropTarget=0;pointerEvents=0;fillColor=none;top=0;left=0;bottom=0;right=0;points=[[0,0.5],[1,0.5]];portConstraint=eastwest;" vertex="1" parent="Im4FhcCXqjplq8VreH-y-113">
          <mxGeometry y="164" width="400" height="40" as="geometry" />
        </mxCell>
        <mxCell id="Im4FhcCXqjplq8VreH-y-159" value="4" style="shape=partialRectangle;html=1;whiteSpace=wrap;connectable=0;overflow=hidden;fillColor=#b0e3e6;top=0;left=0;bottom=0;right=0;strokeColor=#0e8088;fontStyle=1;fontSize=18;" vertex="1" parent="Im4FhcCXqjplq8VreH-y-158">
          <mxGeometry width="40" height="40" as="geometry" />
        </mxCell>
        <mxCell id="Im4FhcCXqjplq8VreH-y-160" value="" style="shape=partialRectangle;html=1;whiteSpace=wrap;connectable=0;overflow=hidden;fillColor=none;top=1;left=1;bottom=1;right=1;" vertex="1" parent="Im4FhcCXqjplq8VreH-y-158">
          <mxGeometry x="40" width="40" height="40" as="geometry" />
        </mxCell>
        <mxCell id="Im4FhcCXqjplq8VreH-y-161" value="" style="shape=partialRectangle;html=1;whiteSpace=wrap;connectable=0;overflow=hidden;fillColor=none;top=1;left=1;bottom=1;right=1;" vertex="1" parent="Im4FhcCXqjplq8VreH-y-158">
          <mxGeometry x="80" width="40" height="40" as="geometry" />
        </mxCell>
        <mxCell id="Im4FhcCXqjplq8VreH-y-162" value="" style="shape=partialRectangle;html=1;whiteSpace=wrap;connectable=0;overflow=hidden;fillColor=none;top=1;left=1;bottom=1;right=1;" vertex="1" parent="Im4FhcCXqjplq8VreH-y-158">
          <mxGeometry x="120" width="40" height="40" as="geometry" />
        </mxCell>
        <mxCell id="Im4FhcCXqjplq8VreH-y-163" value="&lt;font style=&quot;font-size: 8px&quot;&gt;345678&lt;/font&gt;" style="shape=partialRectangle;html=1;whiteSpace=wrap;connectable=0;overflow=hidden;fillColor=#fad9d5;top=1;left=1;bottom=1;right=1;" vertex="1" parent="Im4FhcCXqjplq8VreH-y-158">
          <mxGeometry x="160" width="40" height="40" as="geometry" />
        </mxCell>
        <mxCell id="Im4FhcCXqjplq8VreH-y-164" value="2" style="shape=partialRectangle;html=1;whiteSpace=wrap;connectable=0;overflow=hidden;fillColor=#fad9d5;top=1;left=1;bottom=1;right=1;" vertex="1" parent="Im4FhcCXqjplq8VreH-y-158">
          <mxGeometry x="200" width="40" height="40" as="geometry" />
        </mxCell>
        <mxCell id="Im4FhcCXqjplq8VreH-y-165" value="5789" style="shape=partialRectangle;html=1;whiteSpace=wrap;connectable=0;overflow=hidden;fillColor=#fad9d5;top=1;left=1;bottom=1;right=1;fontSize=8;" vertex="1" parent="Im4FhcCXqjplq8VreH-y-158">
          <mxGeometry x="240" width="40" height="40" as="geometry" />
        </mxCell>
        <mxCell id="Im4FhcCXqjplq8VreH-y-166" value="" style="shape=partialRectangle;html=1;whiteSpace=wrap;connectable=0;overflow=hidden;fillColor=none;top=1;left=1;bottom=1;right=1;" vertex="1" parent="Im4FhcCXqjplq8VreH-y-158">
          <mxGeometry x="280" width="40" height="40" as="geometry" />
        </mxCell>
        <mxCell id="Im4FhcCXqjplq8VreH-y-167" value="" style="shape=partialRectangle;html=1;whiteSpace=wrap;connectable=0;overflow=hidden;fillColor=none;top=1;left=1;bottom=1;right=1;" vertex="1" parent="Im4FhcCXqjplq8VreH-y-158">
          <mxGeometry x="320" width="40" height="40" as="geometry" />
        </mxCell>
        <mxCell id="Im4FhcCXqjplq8VreH-y-168" value="" style="shape=partialRectangle;html=1;whiteSpace=wrap;connectable=0;overflow=hidden;fillColor=none;top=1;left=1;bottom=1;right=1;" vertex="1" parent="Im4FhcCXqjplq8VreH-y-158">
          <mxGeometry x="360" width="40" height="40" as="geometry" />
        </mxCell>
        <mxCell id="Im4FhcCXqjplq8VreH-y-169" value="" style="shape=partialRectangle;html=1;whiteSpace=wrap;collapsible=0;dropTarget=0;pointerEvents=0;fillColor=none;top=0;left=0;bottom=0;right=0;points=[[0,0.5],[1,0.5]];portConstraint=eastwest;" vertex="1" parent="Im4FhcCXqjplq8VreH-y-113">
          <mxGeometry y="204" width="400" height="40" as="geometry" />
        </mxCell>
        <mxCell id="Im4FhcCXqjplq8VreH-y-170" value="5" style="shape=partialRectangle;html=1;whiteSpace=wrap;connectable=0;overflow=hidden;fillColor=#b0e3e6;top=0;left=0;bottom=0;right=0;strokeColor=#0e8088;fontStyle=1;fontSize=18;" vertex="1" parent="Im4FhcCXqjplq8VreH-y-169">
          <mxGeometry width="40" height="40" as="geometry" />
        </mxCell>
        <mxCell id="Im4FhcCXqjplq8VreH-y-171" value="" style="shape=partialRectangle;html=1;whiteSpace=wrap;connectable=0;overflow=hidden;fillColor=none;top=1;left=1;bottom=1;right=1;" vertex="1" parent="Im4FhcCXqjplq8VreH-y-169">
          <mxGeometry x="40" width="40" height="40" as="geometry" />
        </mxCell>
        <mxCell id="Im4FhcCXqjplq8VreH-y-172" value="" style="shape=partialRectangle;html=1;whiteSpace=wrap;connectable=0;overflow=hidden;fillColor=none;top=1;left=1;bottom=1;right=1;" vertex="1" parent="Im4FhcCXqjplq8VreH-y-169">
          <mxGeometry x="80" width="40" height="40" as="geometry" />
        </mxCell>
        <mxCell id="Im4FhcCXqjplq8VreH-y-173" value="" style="shape=partialRectangle;html=1;whiteSpace=wrap;connectable=0;overflow=hidden;fillColor=none;top=1;left=1;bottom=1;right=1;" vertex="1" parent="Im4FhcCXqjplq8VreH-y-169">
          <mxGeometry x="120" width="40" height="40" as="geometry" />
        </mxCell>
        <mxCell id="Im4FhcCXqjplq8VreH-y-174" value="&lt;font style=&quot;font-size: 8px&quot;&gt;1345678&lt;/font&gt;" style="shape=partialRectangle;html=1;whiteSpace=wrap;connectable=0;overflow=hidden;fillColor=#fad9d5;top=1;left=1;bottom=1;right=1;" vertex="1" parent="Im4FhcCXqjplq8VreH-y-169">
          <mxGeometry x="160" width="40" height="40" as="geometry" />
        </mxCell>
        <mxCell id="Im4FhcCXqjplq8VreH-y-175" value="13679" style="shape=partialRectangle;html=1;whiteSpace=wrap;connectable=0;overflow=hidden;fillColor=#fad9d5;top=1;left=1;bottom=1;right=1;fontSize=8;" vertex="1" parent="Im4FhcCXqjplq8VreH-y-169">
          <mxGeometry x="200" width="40" height="40" as="geometry" />
        </mxCell>
        <mxCell id="Im4FhcCXqjplq8VreH-y-176" value="&lt;span style=&quot;font-size: 8px;&quot;&gt;5789&lt;/span&gt;" style="shape=partialRectangle;html=1;whiteSpace=wrap;connectable=0;overflow=hidden;fillColor=#fad9d5;top=1;left=1;bottom=1;right=1;fontSize=8;" vertex="1" parent="Im4FhcCXqjplq8VreH-y-169">
          <mxGeometry x="240" width="40" height="40" as="geometry" />
        </mxCell>
        <mxCell id="Im4FhcCXqjplq8VreH-y-177" value="" style="shape=partialRectangle;html=1;whiteSpace=wrap;connectable=0;overflow=hidden;fillColor=none;top=1;left=1;bottom=1;right=1;" vertex="1" parent="Im4FhcCXqjplq8VreH-y-169">
          <mxGeometry x="280" width="40" height="40" as="geometry" />
        </mxCell>
        <mxCell id="Im4FhcCXqjplq8VreH-y-178" value="" style="shape=partialRectangle;html=1;whiteSpace=wrap;connectable=0;overflow=hidden;fillColor=none;top=1;left=1;bottom=1;right=1;" vertex="1" parent="Im4FhcCXqjplq8VreH-y-169">
          <mxGeometry x="320" width="40" height="40" as="geometry" />
        </mxCell>
        <mxCell id="Im4FhcCXqjplq8VreH-y-179" value="" style="shape=partialRectangle;html=1;whiteSpace=wrap;connectable=0;overflow=hidden;fillColor=none;top=1;left=1;bottom=1;right=1;" vertex="1" parent="Im4FhcCXqjplq8VreH-y-169">
          <mxGeometry x="360" width="40" height="40" as="geometry" />
        </mxCell>
        <mxCell id="Im4FhcCXqjplq8VreH-y-180" value="" style="shape=partialRectangle;html=1;whiteSpace=wrap;collapsible=0;dropTarget=0;pointerEvents=0;fillColor=none;top=0;left=0;bottom=0;right=0;points=[[0,0.5],[1,0.5]];portConstraint=eastwest;" vertex="1" parent="Im4FhcCXqjplq8VreH-y-113">
          <mxGeometry y="244" width="400" height="40" as="geometry" />
        </mxCell>
        <mxCell id="Im4FhcCXqjplq8VreH-y-181" value="6" style="shape=partialRectangle;html=1;whiteSpace=wrap;connectable=0;overflow=hidden;fillColor=#b0e3e6;top=0;left=0;bottom=0;right=0;strokeColor=#0e8088;fontStyle=1;fontSize=18;" vertex="1" parent="Im4FhcCXqjplq8VreH-y-180">
          <mxGeometry width="40" height="40" as="geometry" />
        </mxCell>
        <mxCell id="Im4FhcCXqjplq8VreH-y-182" value="" style="shape=partialRectangle;html=1;whiteSpace=wrap;connectable=0;overflow=hidden;fillColor=none;top=1;left=1;bottom=1;right=1;" vertex="1" parent="Im4FhcCXqjplq8VreH-y-180">
          <mxGeometry x="40" width="40" height="40" as="geometry" />
        </mxCell>
        <mxCell id="Im4FhcCXqjplq8VreH-y-183" value="" style="shape=partialRectangle;html=1;whiteSpace=wrap;connectable=0;overflow=hidden;fillColor=none;top=1;left=1;bottom=1;right=1;" vertex="1" parent="Im4FhcCXqjplq8VreH-y-180">
          <mxGeometry x="80" width="40" height="40" as="geometry" />
        </mxCell>
        <mxCell id="Im4FhcCXqjplq8VreH-y-184" value="" style="shape=partialRectangle;html=1;whiteSpace=wrap;connectable=0;overflow=hidden;fillColor=none;top=1;left=1;bottom=1;right=1;" vertex="1" parent="Im4FhcCXqjplq8VreH-y-180">
          <mxGeometry x="120" width="40" height="40" as="geometry" />
        </mxCell>
        <mxCell id="Im4FhcCXqjplq8VreH-y-185" value="4578" style="shape=partialRectangle;html=1;whiteSpace=wrap;connectable=0;overflow=hidden;fillColor=#fad9d5;top=1;left=1;bottom=1;right=1;fontSize=8;" vertex="1" parent="Im4FhcCXqjplq8VreH-y-180">
          <mxGeometry x="160" width="40" height="40" as="geometry" />
        </mxCell>
        <mxCell id="Im4FhcCXqjplq8VreH-y-186" value="79" style="shape=partialRectangle;html=1;whiteSpace=wrap;connectable=0;overflow=hidden;fillColor=#fad9d5;top=1;left=1;bottom=1;right=1;fontSize=8;" vertex="1" parent="Im4FhcCXqjplq8VreH-y-180">
          <mxGeometry x="200" width="40" height="40" as="geometry" />
        </mxCell>
        <mxCell id="Im4FhcCXqjplq8VreH-y-187" value="&lt;span style=&quot;font-size: 8px;&quot;&gt;5789&lt;/span&gt;" style="shape=partialRectangle;html=1;whiteSpace=wrap;connectable=0;overflow=hidden;fillColor=#fad9d5;top=1;left=1;bottom=1;right=1;fontSize=8;" vertex="1" parent="Im4FhcCXqjplq8VreH-y-180">
          <mxGeometry x="240" width="40" height="40" as="geometry" />
        </mxCell>
        <mxCell id="Im4FhcCXqjplq8VreH-y-188" value="" style="shape=partialRectangle;html=1;whiteSpace=wrap;connectable=0;overflow=hidden;fillColor=none;top=1;left=1;bottom=1;right=1;" vertex="1" parent="Im4FhcCXqjplq8VreH-y-180">
          <mxGeometry x="280" width="40" height="40" as="geometry" />
        </mxCell>
        <mxCell id="Im4FhcCXqjplq8VreH-y-189" value="" style="shape=partialRectangle;html=1;whiteSpace=wrap;connectable=0;overflow=hidden;fillColor=none;top=1;left=1;bottom=1;right=1;" vertex="1" parent="Im4FhcCXqjplq8VreH-y-180">
          <mxGeometry x="320" width="40" height="40" as="geometry" />
        </mxCell>
        <mxCell id="Im4FhcCXqjplq8VreH-y-190" value="" style="shape=partialRectangle;html=1;whiteSpace=wrap;connectable=0;overflow=hidden;fillColor=none;top=1;left=1;bottom=1;right=1;" vertex="1" parent="Im4FhcCXqjplq8VreH-y-180">
          <mxGeometry x="360" width="40" height="40" as="geometry" />
        </mxCell>
        <mxCell id="Im4FhcCXqjplq8VreH-y-191" value="" style="shape=partialRectangle;html=1;whiteSpace=wrap;collapsible=0;dropTarget=0;pointerEvents=0;fillColor=none;top=0;left=0;bottom=0;right=0;points=[[0,0.5],[1,0.5]];portConstraint=eastwest;" vertex="1" parent="Im4FhcCXqjplq8VreH-y-113">
          <mxGeometry y="284" width="400" height="40" as="geometry" />
        </mxCell>
        <mxCell id="Im4FhcCXqjplq8VreH-y-192" value="7" style="shape=partialRectangle;html=1;whiteSpace=wrap;connectable=0;overflow=hidden;fillColor=#b0e3e6;top=0;left=0;bottom=0;right=0;strokeColor=#0e8088;fontStyle=1;fontSize=18;" vertex="1" parent="Im4FhcCXqjplq8VreH-y-191">
          <mxGeometry width="40" height="40" as="geometry" />
        </mxCell>
        <mxCell id="Im4FhcCXqjplq8VreH-y-193" value="" style="shape=partialRectangle;html=1;whiteSpace=wrap;connectable=0;overflow=hidden;fillColor=#fad9d5;top=1;left=1;bottom=1;right=1;" vertex="1" parent="Im4FhcCXqjplq8VreH-y-191">
          <mxGeometry x="40" width="40" height="40" as="geometry" />
        </mxCell>
        <mxCell id="Im4FhcCXqjplq8VreH-y-194" value="" style="shape=partialRectangle;html=1;whiteSpace=wrap;connectable=0;overflow=hidden;fillColor=#fad9d5;top=1;left=1;bottom=1;right=1;" vertex="1" parent="Im4FhcCXqjplq8VreH-y-191">
          <mxGeometry x="80" width="40" height="40" as="geometry" />
        </mxCell>
        <mxCell id="Im4FhcCXqjplq8VreH-y-195" value="" style="shape=partialRectangle;html=1;whiteSpace=wrap;connectable=0;overflow=hidden;fillColor=#fad9d5;top=1;left=1;bottom=1;right=1;" vertex="1" parent="Im4FhcCXqjplq8VreH-y-191">
          <mxGeometry x="120" width="40" height="40" as="geometry" />
        </mxCell>
        <mxCell id="Im4FhcCXqjplq8VreH-y-196" value="5678" style="shape=partialRectangle;html=1;whiteSpace=wrap;connectable=0;overflow=hidden;fillColor=none;top=1;left=1;bottom=1;right=1;fontSize=8;" vertex="1" parent="Im4FhcCXqjplq8VreH-y-191">
          <mxGeometry x="160" width="40" height="40" as="geometry" />
        </mxCell>
        <mxCell id="Im4FhcCXqjplq8VreH-y-197" value="679" style="shape=partialRectangle;html=1;whiteSpace=wrap;connectable=0;overflow=hidden;fillColor=none;top=1;left=1;bottom=1;right=1;fontSize=8;" vertex="1" parent="Im4FhcCXqjplq8VreH-y-191">
          <mxGeometry x="200" width="40" height="40" as="geometry" />
        </mxCell>
        <mxCell id="Im4FhcCXqjplq8VreH-y-198" value="5789" style="shape=partialRectangle;html=1;whiteSpace=wrap;connectable=0;overflow=hidden;fillColor=none;top=1;left=1;bottom=1;right=1;fontSize=8;" vertex="1" parent="Im4FhcCXqjplq8VreH-y-191">
          <mxGeometry x="240" width="40" height="40" as="geometry" />
        </mxCell>
        <mxCell id="Im4FhcCXqjplq8VreH-y-199" value="" style="shape=partialRectangle;html=1;whiteSpace=wrap;connectable=0;overflow=hidden;fillColor=#fad9d5;top=1;left=1;bottom=1;right=1;" vertex="1" parent="Im4FhcCXqjplq8VreH-y-191">
          <mxGeometry x="280" width="40" height="40" as="geometry" />
        </mxCell>
        <mxCell id="Im4FhcCXqjplq8VreH-y-200" value="" style="shape=partialRectangle;html=1;whiteSpace=wrap;connectable=0;overflow=hidden;fillColor=#fad9d5;top=1;left=1;bottom=1;right=1;" vertex="1" parent="Im4FhcCXqjplq8VreH-y-191">
          <mxGeometry x="320" width="40" height="40" as="geometry" />
        </mxCell>
        <mxCell id="Im4FhcCXqjplq8VreH-y-201" value="" style="shape=partialRectangle;html=1;whiteSpace=wrap;connectable=0;overflow=hidden;fillColor=#fad9d5;top=1;left=1;bottom=1;right=1;" vertex="1" parent="Im4FhcCXqjplq8VreH-y-191">
          <mxGeometry x="360" width="40" height="40" as="geometry" />
        </mxCell>
        <mxCell id="Im4FhcCXqjplq8VreH-y-202" value="" style="shape=partialRectangle;html=1;whiteSpace=wrap;collapsible=0;dropTarget=0;pointerEvents=0;fillColor=none;top=0;left=0;bottom=0;right=0;points=[[0,0.5],[1,0.5]];portConstraint=eastwest;" vertex="1" parent="Im4FhcCXqjplq8VreH-y-113">
          <mxGeometry y="324" width="400" height="40" as="geometry" />
        </mxCell>
        <mxCell id="Im4FhcCXqjplq8VreH-y-203" value="8" style="shape=partialRectangle;html=1;whiteSpace=wrap;connectable=0;overflow=hidden;fillColor=#b0e3e6;top=0;left=0;bottom=0;right=0;strokeColor=#0e8088;fontStyle=1;fontSize=18;" vertex="1" parent="Im4FhcCXqjplq8VreH-y-202">
          <mxGeometry width="40" height="40" as="geometry" />
        </mxCell>
        <mxCell id="Im4FhcCXqjplq8VreH-y-204" value="" style="shape=partialRectangle;html=1;whiteSpace=wrap;connectable=0;overflow=hidden;fillColor=#fad9d5;top=1;left=1;bottom=1;right=1;" vertex="1" parent="Im4FhcCXqjplq8VreH-y-202">
          <mxGeometry x="40" width="40" height="40" as="geometry" />
        </mxCell>
        <mxCell id="Im4FhcCXqjplq8VreH-y-205" value="" style="shape=partialRectangle;html=1;whiteSpace=wrap;connectable=0;overflow=hidden;fillColor=#fad9d5;top=1;left=1;bottom=1;right=1;" vertex="1" parent="Im4FhcCXqjplq8VreH-y-202">
          <mxGeometry x="80" width="40" height="40" as="geometry" />
        </mxCell>
        <mxCell id="Im4FhcCXqjplq8VreH-y-206" value="" style="shape=partialRectangle;html=1;whiteSpace=wrap;connectable=0;overflow=hidden;fillColor=#fad9d5;top=1;left=1;bottom=1;right=1;" vertex="1" parent="Im4FhcCXqjplq8VreH-y-202">
          <mxGeometry x="120" width="40" height="40" as="geometry" />
        </mxCell>
        <mxCell id="Im4FhcCXqjplq8VreH-y-207" value="3567" style="shape=partialRectangle;html=1;whiteSpace=wrap;connectable=0;overflow=hidden;fillColor=none;top=1;left=1;bottom=1;right=1;fontSize=8;" vertex="1" parent="Im4FhcCXqjplq8VreH-y-202">
          <mxGeometry x="160" width="40" height="40" as="geometry" />
        </mxCell>
        <mxCell id="Im4FhcCXqjplq8VreH-y-208" value="4" style="shape=partialRectangle;html=1;whiteSpace=wrap;connectable=0;overflow=hidden;fillColor=none;top=1;left=1;bottom=1;right=1;fontSize=8;" vertex="1" parent="Im4FhcCXqjplq8VreH-y-202">
          <mxGeometry x="200" width="40" height="40" as="geometry" />
        </mxCell>
        <mxCell id="Im4FhcCXqjplq8VreH-y-209" value="2579" style="shape=partialRectangle;html=1;whiteSpace=wrap;connectable=0;overflow=hidden;fillColor=none;top=1;left=1;bottom=1;right=1;fontSize=8;" vertex="1" parent="Im4FhcCXqjplq8VreH-y-202">
          <mxGeometry x="240" width="40" height="40" as="geometry" />
        </mxCell>
        <mxCell id="Im4FhcCXqjplq8VreH-y-210" value="" style="shape=partialRectangle;html=1;whiteSpace=wrap;connectable=0;overflow=hidden;fillColor=#fad9d5;top=1;left=1;bottom=1;right=1;" vertex="1" parent="Im4FhcCXqjplq8VreH-y-202">
          <mxGeometry x="280" width="40" height="40" as="geometry" />
        </mxCell>
        <mxCell id="Im4FhcCXqjplq8VreH-y-211" value="" style="shape=partialRectangle;html=1;whiteSpace=wrap;connectable=0;overflow=hidden;fillColor=#fad9d5;top=1;left=1;bottom=1;right=1;" vertex="1" parent="Im4FhcCXqjplq8VreH-y-202">
          <mxGeometry x="320" width="40" height="40" as="geometry" />
        </mxCell>
        <mxCell id="Im4FhcCXqjplq8VreH-y-212" value="" style="shape=partialRectangle;html=1;whiteSpace=wrap;connectable=0;overflow=hidden;fillColor=#fad9d5;top=1;left=1;bottom=1;right=1;" vertex="1" parent="Im4FhcCXqjplq8VreH-y-202">
          <mxGeometry x="360" width="40" height="40" as="geometry" />
        </mxCell>
        <mxCell id="Im4FhcCXqjplq8VreH-y-213" value="" style="shape=partialRectangle;html=1;whiteSpace=wrap;collapsible=0;dropTarget=0;pointerEvents=0;fillColor=none;top=0;left=0;bottom=0;right=0;points=[[0,0.5],[1,0.5]];portConstraint=eastwest;" vertex="1" parent="Im4FhcCXqjplq8VreH-y-113">
          <mxGeometry y="364" width="400" height="40" as="geometry" />
        </mxCell>
        <mxCell id="Im4FhcCXqjplq8VreH-y-214" value="9" style="shape=partialRectangle;html=1;whiteSpace=wrap;connectable=0;overflow=hidden;fillColor=#b0e3e6;top=0;left=0;bottom=0;right=0;strokeColor=#0e8088;fontStyle=1;fontSize=18;" vertex="1" parent="Im4FhcCXqjplq8VreH-y-213">
          <mxGeometry width="40" height="40" as="geometry" />
        </mxCell>
        <mxCell id="Im4FhcCXqjplq8VreH-y-215" value="" style="shape=partialRectangle;html=1;whiteSpace=wrap;connectable=0;overflow=hidden;fillColor=#fad9d5;top=1;left=1;bottom=1;right=1;" vertex="1" parent="Im4FhcCXqjplq8VreH-y-213">
          <mxGeometry x="40" width="40" height="40" as="geometry" />
        </mxCell>
        <mxCell id="Im4FhcCXqjplq8VreH-y-216" value="" style="shape=partialRectangle;html=1;whiteSpace=wrap;connectable=0;overflow=hidden;fillColor=#fad9d5;top=1;left=1;bottom=1;right=1;" vertex="1" parent="Im4FhcCXqjplq8VreH-y-213">
          <mxGeometry x="80" width="40" height="40" as="geometry" />
        </mxCell>
        <mxCell id="Im4FhcCXqjplq8VreH-y-217" value="" style="shape=partialRectangle;html=1;whiteSpace=wrap;connectable=0;overflow=hidden;fillColor=#fad9d5;top=1;left=1;bottom=1;right=1;" vertex="1" parent="Im4FhcCXqjplq8VreH-y-213">
          <mxGeometry x="120" width="40" height="40" as="geometry" />
        </mxCell>
        <mxCell id="Im4FhcCXqjplq8VreH-y-218" value="368" style="shape=partialRectangle;html=1;whiteSpace=wrap;connectable=0;overflow=hidden;fillColor=none;top=1;left=1;bottom=1;right=1;fontSize=8;" vertex="1" parent="Im4FhcCXqjplq8VreH-y-213">
          <mxGeometry x="160" width="40" height="40" as="geometry" />
        </mxCell>
        <mxCell id="Im4FhcCXqjplq8VreH-y-219" value="369" style="shape=partialRectangle;html=1;whiteSpace=wrap;connectable=0;overflow=hidden;fillColor=none;top=1;left=1;bottom=1;right=1;fontSize=8;" vertex="1" parent="Im4FhcCXqjplq8VreH-y-213">
          <mxGeometry x="200" width="40" height="40" as="geometry" />
        </mxCell>
        <mxCell id="Im4FhcCXqjplq8VreH-y-220" value="1" style="shape=partialRectangle;html=1;whiteSpace=wrap;connectable=0;overflow=hidden;fillColor=none;top=1;left=1;bottom=1;right=1;fontSize=8;" vertex="1" parent="Im4FhcCXqjplq8VreH-y-213">
          <mxGeometry x="240" width="40" height="40" as="geometry" />
        </mxCell>
        <mxCell id="Im4FhcCXqjplq8VreH-y-221" value="" style="shape=partialRectangle;html=1;whiteSpace=wrap;connectable=0;overflow=hidden;fillColor=#fad9d5;top=1;left=1;bottom=1;right=1;" vertex="1" parent="Im4FhcCXqjplq8VreH-y-213">
          <mxGeometry x="280" width="40" height="40" as="geometry" />
        </mxCell>
        <mxCell id="Im4FhcCXqjplq8VreH-y-222" value="" style="shape=partialRectangle;html=1;whiteSpace=wrap;connectable=0;overflow=hidden;fillColor=#fad9d5;top=1;left=1;bottom=1;right=1;" vertex="1" parent="Im4FhcCXqjplq8VreH-y-213">
          <mxGeometry x="320" width="40" height="40" as="geometry" />
        </mxCell>
        <mxCell id="Im4FhcCXqjplq8VreH-y-223" value="" style="shape=partialRectangle;html=1;whiteSpace=wrap;connectable=0;overflow=hidden;fillColor=#fad9d5;top=1;left=1;bottom=1;right=1;" vertex="1" parent="Im4FhcCXqjplq8VreH-y-213">
          <mxGeometry x="360" width="40" height="40" as="geometry" />
        </mxCell>
        <mxCell id="Im4FhcCXqjplq8VreH-y-224" value="" style="shape=table;html=1;whiteSpace=wrap;startSize=0;container=1;collapsible=0;childLayout=tableLayout;aspect=fixed;rowLines=1;columnLines=1;" vertex="1" parent="1">
          <mxGeometry x="730" y="589" width="400" height="403.5" as="geometry" />
        </mxCell>
        <mxCell id="Im4FhcCXqjplq8VreH-y-225" value="" style="shape=partialRectangle;html=1;whiteSpace=wrap;collapsible=0;dropTarget=0;pointerEvents=0;fillColor=none;top=0;left=0;bottom=0;right=0;points=[[0,0.5],[1,0.5]];portConstraint=eastwest;" vertex="1" parent="Im4FhcCXqjplq8VreH-y-224">
          <mxGeometry width="400" height="40" as="geometry" />
        </mxCell>
        <mxCell id="Im4FhcCXqjplq8VreH-y-226" value="" style="shape=partialRectangle;html=1;whiteSpace=wrap;connectable=0;overflow=hidden;fillColor=#b0e3e6;top=0;left=0;bottom=0;right=0;strokeColor=#0e8088;fontStyle=1;fontSize=18;" vertex="1" parent="Im4FhcCXqjplq8VreH-y-225">
          <mxGeometry width="40" height="40" as="geometry" />
        </mxCell>
        <mxCell id="Im4FhcCXqjplq8VreH-y-227" value="A" style="shape=partialRectangle;html=1;whiteSpace=wrap;connectable=0;overflow=hidden;fillColor=#b0e3e6;top=0;left=0;bottom=0;right=0;strokeColor=#0e8088;fontStyle=1;fontSize=18;" vertex="1" parent="Im4FhcCXqjplq8VreH-y-225">
          <mxGeometry x="40" width="40" height="40" as="geometry" />
        </mxCell>
        <mxCell id="Im4FhcCXqjplq8VreH-y-228" value="B" style="shape=partialRectangle;html=1;whiteSpace=wrap;connectable=0;overflow=hidden;fillColor=#b0e3e6;top=0;left=0;bottom=0;right=0;strokeColor=#0e8088;fontStyle=1;fontSize=18;" vertex="1" parent="Im4FhcCXqjplq8VreH-y-225">
          <mxGeometry x="80" width="40" height="40" as="geometry" />
        </mxCell>
        <mxCell id="Im4FhcCXqjplq8VreH-y-229" value="C" style="shape=partialRectangle;html=1;whiteSpace=wrap;connectable=0;overflow=hidden;fillColor=#b0e3e6;top=0;left=0;bottom=0;right=0;strokeColor=#0e8088;fontStyle=1;fontSize=18;" vertex="1" parent="Im4FhcCXqjplq8VreH-y-225">
          <mxGeometry x="120" width="40" height="40" as="geometry" />
        </mxCell>
        <mxCell id="Im4FhcCXqjplq8VreH-y-230" value="D" style="shape=partialRectangle;html=1;whiteSpace=wrap;connectable=0;overflow=hidden;fillColor=#b0e3e6;top=0;left=0;bottom=0;right=0;strokeColor=#0e8088;fontStyle=1;fontSize=18;" vertex="1" parent="Im4FhcCXqjplq8VreH-y-225">
          <mxGeometry x="160" width="40" height="40" as="geometry" />
        </mxCell>
        <mxCell id="Im4FhcCXqjplq8VreH-y-231" value="E" style="shape=partialRectangle;html=1;whiteSpace=wrap;connectable=0;overflow=hidden;fillColor=#b0e3e6;top=0;left=0;bottom=0;right=0;strokeColor=#0e8088;fontStyle=1;fontSize=18;" vertex="1" parent="Im4FhcCXqjplq8VreH-y-225">
          <mxGeometry x="200" width="40" height="40" as="geometry" />
        </mxCell>
        <mxCell id="Im4FhcCXqjplq8VreH-y-232" value="F" style="shape=partialRectangle;html=1;whiteSpace=wrap;connectable=0;overflow=hidden;fillColor=#b0e3e6;top=0;left=0;bottom=0;right=0;strokeColor=#0e8088;fontStyle=1;fontSize=18;" vertex="1" parent="Im4FhcCXqjplq8VreH-y-225">
          <mxGeometry x="240" width="40" height="40" as="geometry" />
        </mxCell>
        <mxCell id="Im4FhcCXqjplq8VreH-y-233" value="G" style="shape=partialRectangle;html=1;whiteSpace=wrap;connectable=0;overflow=hidden;fillColor=#b0e3e6;top=0;left=0;bottom=0;right=0;strokeColor=#0e8088;fontStyle=1;fontSize=18;" vertex="1" parent="Im4FhcCXqjplq8VreH-y-225">
          <mxGeometry x="280" width="40" height="40" as="geometry" />
        </mxCell>
        <mxCell id="Im4FhcCXqjplq8VreH-y-234" value="H" style="shape=partialRectangle;html=1;whiteSpace=wrap;connectable=0;overflow=hidden;fillColor=#b0e3e6;top=0;left=0;bottom=0;right=0;strokeColor=#0e8088;fontStyle=1;fontSize=18;" vertex="1" parent="Im4FhcCXqjplq8VreH-y-225">
          <mxGeometry x="320" width="40" height="40" as="geometry" />
        </mxCell>
        <mxCell id="Im4FhcCXqjplq8VreH-y-235" value="I" style="shape=partialRectangle;html=1;whiteSpace=wrap;connectable=0;overflow=hidden;fillColor=#b0e3e6;top=0;left=0;bottom=0;right=0;strokeColor=#0e8088;fontStyle=1;fontSize=18;" vertex="1" parent="Im4FhcCXqjplq8VreH-y-225">
          <mxGeometry x="360" width="40" height="40" as="geometry" />
        </mxCell>
        <mxCell id="Im4FhcCXqjplq8VreH-y-236" value="" style="shape=partialRectangle;html=1;whiteSpace=wrap;collapsible=0;dropTarget=0;pointerEvents=0;fillColor=none;top=0;left=0;bottom=0;right=0;points=[[0,0.5],[1,0.5]];portConstraint=eastwest;" vertex="1" parent="Im4FhcCXqjplq8VreH-y-224">
          <mxGeometry y="40" width="400" height="44" as="geometry" />
        </mxCell>
        <mxCell id="Im4FhcCXqjplq8VreH-y-237" value="1" style="shape=partialRectangle;html=1;whiteSpace=wrap;connectable=0;overflow=hidden;fillColor=#b0e3e6;top=0;left=0;bottom=0;right=0;strokeColor=#0e8088;fontStyle=1;fontSize=18;" vertex="1" parent="Im4FhcCXqjplq8VreH-y-236">
          <mxGeometry width="40" height="44" as="geometry" />
        </mxCell>
        <mxCell id="Im4FhcCXqjplq8VreH-y-238" value="1" style="shape=partialRectangle;html=1;whiteSpace=wrap;connectable=0;overflow=hidden;fillColor=#fad9d5;top=1;left=1;bottom=1;right=1;" vertex="1" parent="Im4FhcCXqjplq8VreH-y-236">
          <mxGeometry x="40" width="40" height="44" as="geometry" />
        </mxCell>
        <mxCell id="Im4FhcCXqjplq8VreH-y-239" value="5" style="shape=partialRectangle;html=1;whiteSpace=wrap;connectable=0;overflow=hidden;fillColor=#fad9d5;top=1;left=1;bottom=1;right=1;" vertex="1" parent="Im4FhcCXqjplq8VreH-y-236">
          <mxGeometry x="80" width="40" height="44" as="geometry" />
        </mxCell>
        <mxCell id="Im4FhcCXqjplq8VreH-y-240" value="3" style="shape=partialRectangle;html=1;whiteSpace=wrap;connectable=0;overflow=hidden;fillColor=#fad9d5;top=1;left=1;bottom=1;right=1;" vertex="1" parent="Im4FhcCXqjplq8VreH-y-236">
          <mxGeometry x="120" width="40" height="44" as="geometry" />
        </mxCell>
        <mxCell id="Im4FhcCXqjplq8VreH-y-241" value="2" style="shape=partialRectangle;html=1;whiteSpace=wrap;connectable=0;overflow=hidden;fillColor=none;top=1;left=1;bottom=1;right=1;" vertex="1" parent="Im4FhcCXqjplq8VreH-y-236">
          <mxGeometry x="160" width="40" height="44" as="geometry" />
        </mxCell>
        <mxCell id="Im4FhcCXqjplq8VreH-y-242" value="8" style="shape=partialRectangle;html=1;whiteSpace=wrap;connectable=0;overflow=hidden;fillColor=none;top=1;left=1;bottom=1;right=1;" vertex="1" parent="Im4FhcCXqjplq8VreH-y-236">
          <mxGeometry x="200" width="40" height="44" as="geometry" />
        </mxCell>
        <mxCell id="Im4FhcCXqjplq8VreH-y-243" value="4" style="shape=partialRectangle;html=1;whiteSpace=wrap;connectable=0;overflow=hidden;fillColor=none;top=1;left=1;bottom=1;right=1;" vertex="1" parent="Im4FhcCXqjplq8VreH-y-236">
          <mxGeometry x="240" width="40" height="44" as="geometry" />
        </mxCell>
        <mxCell id="Im4FhcCXqjplq8VreH-y-244" value="9" style="shape=partialRectangle;html=1;whiteSpace=wrap;connectable=0;overflow=hidden;fillColor=#fad9d5;top=1;left=1;bottom=1;right=1;perimeterSpacing=2;" vertex="1" parent="Im4FhcCXqjplq8VreH-y-236">
          <mxGeometry x="280" width="40" height="44" as="geometry" />
        </mxCell>
        <mxCell id="Im4FhcCXqjplq8VreH-y-245" value="6" style="shape=partialRectangle;html=1;whiteSpace=wrap;connectable=0;overflow=hidden;fillColor=#fad9d5;top=1;left=1;bottom=1;right=1;" vertex="1" parent="Im4FhcCXqjplq8VreH-y-236">
          <mxGeometry x="320" width="40" height="44" as="geometry" />
        </mxCell>
        <mxCell id="Im4FhcCXqjplq8VreH-y-246" value="7" style="shape=partialRectangle;html=1;whiteSpace=wrap;connectable=0;overflow=hidden;fillColor=#fad9d5;top=1;left=1;bottom=1;right=1;" vertex="1" parent="Im4FhcCXqjplq8VreH-y-236">
          <mxGeometry x="360" width="40" height="44" as="geometry" />
        </mxCell>
        <mxCell id="Im4FhcCXqjplq8VreH-y-247" value="" style="shape=partialRectangle;html=1;whiteSpace=wrap;collapsible=0;dropTarget=0;pointerEvents=0;fillColor=none;top=0;left=0;bottom=0;right=0;points=[[0,0.5],[1,0.5]];portConstraint=eastwest;" vertex="1" parent="Im4FhcCXqjplq8VreH-y-224">
          <mxGeometry y="84" width="400" height="40" as="geometry" />
        </mxCell>
        <mxCell id="Im4FhcCXqjplq8VreH-y-248" value="2" style="shape=partialRectangle;html=1;whiteSpace=wrap;connectable=0;overflow=hidden;fillColor=#b0e3e6;top=0;left=0;bottom=0;right=0;strokeColor=#0e8088;fontStyle=1;fontSize=18;" vertex="1" parent="Im4FhcCXqjplq8VreH-y-247">
          <mxGeometry width="40" height="40" as="geometry" />
        </mxCell>
        <mxCell id="Im4FhcCXqjplq8VreH-y-249" value="8" style="shape=partialRectangle;html=1;whiteSpace=wrap;connectable=0;overflow=hidden;fillColor=#fad9d5;top=1;left=1;bottom=1;right=1;" vertex="1" parent="Im4FhcCXqjplq8VreH-y-247">
          <mxGeometry x="40" width="40" height="40" as="geometry" />
        </mxCell>
        <mxCell id="Im4FhcCXqjplq8VreH-y-250" value="2" style="shape=partialRectangle;html=1;whiteSpace=wrap;connectable=0;overflow=hidden;fillColor=#fad9d5;top=1;left=1;bottom=1;right=1;" vertex="1" parent="Im4FhcCXqjplq8VreH-y-247">
          <mxGeometry x="80" width="40" height="40" as="geometry" />
        </mxCell>
        <mxCell id="Im4FhcCXqjplq8VreH-y-251" value="7" style="shape=partialRectangle;html=1;whiteSpace=wrap;connectable=0;overflow=hidden;fillColor=#fad9d5;top=1;left=1;bottom=1;right=1;" vertex="1" parent="Im4FhcCXqjplq8VreH-y-247">
          <mxGeometry x="120" width="40" height="40" as="geometry" />
        </mxCell>
        <mxCell id="Im4FhcCXqjplq8VreH-y-252" value="9" style="shape=partialRectangle;html=1;whiteSpace=wrap;connectable=0;overflow=hidden;fillColor=none;top=1;left=1;bottom=1;right=1;" vertex="1" parent="Im4FhcCXqjplq8VreH-y-247">
          <mxGeometry x="160" width="40" height="40" as="geometry" />
        </mxCell>
        <mxCell id="Im4FhcCXqjplq8VreH-y-253" value="5" style="shape=partialRectangle;html=1;whiteSpace=wrap;connectable=0;overflow=hidden;fillColor=none;top=1;left=1;bottom=1;right=1;" vertex="1" parent="Im4FhcCXqjplq8VreH-y-247">
          <mxGeometry x="200" width="40" height="40" as="geometry" />
        </mxCell>
        <mxCell id="Im4FhcCXqjplq8VreH-y-254" value="6" style="shape=partialRectangle;html=1;whiteSpace=wrap;connectable=0;overflow=hidden;fillColor=none;top=1;left=1;bottom=1;right=1;" vertex="1" parent="Im4FhcCXqjplq8VreH-y-247">
          <mxGeometry x="240" width="40" height="40" as="geometry" />
        </mxCell>
        <mxCell id="Im4FhcCXqjplq8VreH-y-255" value="1" style="shape=partialRectangle;html=1;whiteSpace=wrap;connectable=0;overflow=hidden;fillColor=#fad9d5;top=1;left=1;bottom=1;right=1;" vertex="1" parent="Im4FhcCXqjplq8VreH-y-247">
          <mxGeometry x="280" width="40" height="40" as="geometry" />
        </mxCell>
        <mxCell id="Im4FhcCXqjplq8VreH-y-256" value="4" style="shape=partialRectangle;html=1;whiteSpace=wrap;connectable=0;overflow=hidden;fillColor=#fad9d5;top=1;left=1;bottom=1;right=1;" vertex="1" parent="Im4FhcCXqjplq8VreH-y-247">
          <mxGeometry x="320" width="40" height="40" as="geometry" />
        </mxCell>
        <mxCell id="Im4FhcCXqjplq8VreH-y-257" value="3" style="shape=partialRectangle;html=1;whiteSpace=wrap;connectable=0;overflow=hidden;fillColor=#fad9d5;top=1;left=1;bottom=1;right=1;" vertex="1" parent="Im4FhcCXqjplq8VreH-y-247">
          <mxGeometry x="360" width="40" height="40" as="geometry" />
        </mxCell>
        <mxCell id="Im4FhcCXqjplq8VreH-y-258" value="" style="shape=partialRectangle;html=1;whiteSpace=wrap;collapsible=0;dropTarget=0;pointerEvents=0;fillColor=none;top=0;left=0;bottom=0;right=0;points=[[0,0.5],[1,0.5]];portConstraint=eastwest;" vertex="1" parent="Im4FhcCXqjplq8VreH-y-224">
          <mxGeometry y="124" width="400" height="40" as="geometry" />
        </mxCell>
        <mxCell id="Im4FhcCXqjplq8VreH-y-259" value="3" style="shape=partialRectangle;html=1;whiteSpace=wrap;connectable=0;overflow=hidden;fillColor=#b0e3e6;top=0;left=0;bottom=0;right=0;strokeColor=#0e8088;fontStyle=1;fontSize=18;" vertex="1" parent="Im4FhcCXqjplq8VreH-y-258">
          <mxGeometry width="40" height="40" as="geometry" />
        </mxCell>
        <mxCell id="Im4FhcCXqjplq8VreH-y-260" value="4" style="shape=partialRectangle;html=1;whiteSpace=wrap;connectable=0;overflow=hidden;fillColor=#fad9d5;top=1;left=1;bottom=1;right=1;" vertex="1" parent="Im4FhcCXqjplq8VreH-y-258">
          <mxGeometry x="40" width="40" height="40" as="geometry" />
        </mxCell>
        <mxCell id="Im4FhcCXqjplq8VreH-y-261" value="6" style="shape=partialRectangle;html=1;whiteSpace=wrap;connectable=0;overflow=hidden;fillColor=#fad9d5;top=1;left=1;bottom=1;right=1;" vertex="1" parent="Im4FhcCXqjplq8VreH-y-258">
          <mxGeometry x="80" width="40" height="40" as="geometry" />
        </mxCell>
        <mxCell id="Im4FhcCXqjplq8VreH-y-262" value="9" style="shape=partialRectangle;html=1;whiteSpace=wrap;connectable=0;overflow=hidden;fillColor=#fad9d5;top=1;left=1;bottom=1;right=1;" vertex="1" parent="Im4FhcCXqjplq8VreH-y-258">
          <mxGeometry x="120" width="40" height="40" as="geometry" />
        </mxCell>
        <mxCell id="Im4FhcCXqjplq8VreH-y-263" value="&lt;font style=&quot;font-size: 12px&quot;&gt;7&lt;/font&gt;" style="shape=partialRectangle;html=1;whiteSpace=wrap;connectable=0;overflow=hidden;top=1;left=1;bottom=1;right=1;labelBackgroundColor=#ffffff;fillColor=#00FF00;" vertex="1" parent="Im4FhcCXqjplq8VreH-y-258">
          <mxGeometry x="160" width="40" height="40" as="geometry" />
        </mxCell>
        <mxCell id="Im4FhcCXqjplq8VreH-y-264" value="&lt;font style=&quot;font-size: 8px&quot;&gt;17&lt;/font&gt;" style="shape=partialRectangle;html=1;whiteSpace=wrap;connectable=0;overflow=hidden;fillColor=none;top=1;left=1;bottom=1;right=1;" vertex="1" parent="Im4FhcCXqjplq8VreH-y-258">
          <mxGeometry x="200" width="40" height="40" as="geometry" />
        </mxCell>
        <mxCell id="Im4FhcCXqjplq8VreH-y-265" value="3" style="shape=partialRectangle;html=1;whiteSpace=wrap;connectable=0;overflow=hidden;fillColor=none;top=1;left=1;bottom=1;right=1;" vertex="1" parent="Im4FhcCXqjplq8VreH-y-258">
          <mxGeometry x="240" width="40" height="40" as="geometry" />
        </mxCell>
        <mxCell id="Im4FhcCXqjplq8VreH-y-266" value="58" style="shape=partialRectangle;html=1;whiteSpace=wrap;connectable=0;overflow=hidden;fillColor=#fad9d5;top=1;left=1;bottom=1;right=1;fontSize=8;" vertex="1" parent="Im4FhcCXqjplq8VreH-y-258">
          <mxGeometry x="280" width="40" height="40" as="geometry" />
        </mxCell>
        <mxCell id="Im4FhcCXqjplq8VreH-y-267" value="58" style="shape=partialRectangle;html=1;whiteSpace=wrap;connectable=0;overflow=hidden;fillColor=#fad9d5;top=1;left=1;bottom=1;right=1;fontSize=8;" vertex="1" parent="Im4FhcCXqjplq8VreH-y-258">
          <mxGeometry x="320" width="40" height="40" as="geometry" />
        </mxCell>
        <mxCell id="Im4FhcCXqjplq8VreH-y-268" value="2" style="shape=partialRectangle;html=1;whiteSpace=wrap;connectable=0;overflow=hidden;fillColor=#fad9d5;top=1;left=1;bottom=1;right=1;" vertex="1" parent="Im4FhcCXqjplq8VreH-y-258">
          <mxGeometry x="360" width="40" height="40" as="geometry" />
        </mxCell>
        <mxCell id="Im4FhcCXqjplq8VreH-y-269" value="" style="shape=partialRectangle;html=1;whiteSpace=wrap;collapsible=0;dropTarget=0;pointerEvents=0;fillColor=none;top=0;left=0;bottom=0;right=0;points=[[0,0.5],[1,0.5]];portConstraint=eastwest;" vertex="1" parent="Im4FhcCXqjplq8VreH-y-224">
          <mxGeometry y="164" width="400" height="40" as="geometry" />
        </mxCell>
        <mxCell id="Im4FhcCXqjplq8VreH-y-270" value="4" style="shape=partialRectangle;html=1;whiteSpace=wrap;connectable=0;overflow=hidden;fillColor=#b0e3e6;top=0;left=0;bottom=0;right=0;strokeColor=#0e8088;fontStyle=1;fontSize=18;" vertex="1" parent="Im4FhcCXqjplq8VreH-y-269">
          <mxGeometry width="40" height="40" as="geometry" />
        </mxCell>
        <mxCell id="Im4FhcCXqjplq8VreH-y-271" value="" style="shape=partialRectangle;html=1;whiteSpace=wrap;connectable=0;overflow=hidden;fillColor=none;top=1;left=1;bottom=1;right=1;" vertex="1" parent="Im4FhcCXqjplq8VreH-y-269">
          <mxGeometry x="40" width="40" height="40" as="geometry" />
        </mxCell>
        <mxCell id="Im4FhcCXqjplq8VreH-y-272" value="" style="shape=partialRectangle;html=1;whiteSpace=wrap;connectable=0;overflow=hidden;fillColor=none;top=1;left=1;bottom=1;right=1;" vertex="1" parent="Im4FhcCXqjplq8VreH-y-269">
          <mxGeometry x="80" width="40" height="40" as="geometry" />
        </mxCell>
        <mxCell id="Im4FhcCXqjplq8VreH-y-273" value="" style="shape=partialRectangle;html=1;whiteSpace=wrap;connectable=0;overflow=hidden;fillColor=none;top=1;left=1;bottom=1;right=1;" vertex="1" parent="Im4FhcCXqjplq8VreH-y-269">
          <mxGeometry x="120" width="40" height="40" as="geometry" />
        </mxCell>
        <mxCell id="Im4FhcCXqjplq8VreH-y-274" value="&lt;font style=&quot;font-size: 8px&quot;&gt;345678&lt;/font&gt;" style="shape=partialRectangle;html=1;whiteSpace=wrap;connectable=0;overflow=hidden;fillColor=#fad9d5;top=1;left=1;bottom=1;right=1;" vertex="1" parent="Im4FhcCXqjplq8VreH-y-269">
          <mxGeometry x="160" width="40" height="40" as="geometry" />
        </mxCell>
        <mxCell id="Im4FhcCXqjplq8VreH-y-275" value="2" style="shape=partialRectangle;html=1;whiteSpace=wrap;connectable=0;overflow=hidden;fillColor=#fad9d5;top=1;left=1;bottom=1;right=1;" vertex="1" parent="Im4FhcCXqjplq8VreH-y-269">
          <mxGeometry x="200" width="40" height="40" as="geometry" />
        </mxCell>
        <mxCell id="Im4FhcCXqjplq8VreH-y-276" value="5789" style="shape=partialRectangle;html=1;whiteSpace=wrap;connectable=0;overflow=hidden;fillColor=#fad9d5;top=1;left=1;bottom=1;right=1;fontSize=8;" vertex="1" parent="Im4FhcCXqjplq8VreH-y-269">
          <mxGeometry x="240" width="40" height="40" as="geometry" />
        </mxCell>
        <mxCell id="Im4FhcCXqjplq8VreH-y-277" value="" style="shape=partialRectangle;html=1;whiteSpace=wrap;connectable=0;overflow=hidden;fillColor=none;top=1;left=1;bottom=1;right=1;" vertex="1" parent="Im4FhcCXqjplq8VreH-y-269">
          <mxGeometry x="280" width="40" height="40" as="geometry" />
        </mxCell>
        <mxCell id="Im4FhcCXqjplq8VreH-y-278" value="" style="shape=partialRectangle;html=1;whiteSpace=wrap;connectable=0;overflow=hidden;fillColor=none;top=1;left=1;bottom=1;right=1;" vertex="1" parent="Im4FhcCXqjplq8VreH-y-269">
          <mxGeometry x="320" width="40" height="40" as="geometry" />
        </mxCell>
        <mxCell id="Im4FhcCXqjplq8VreH-y-279" value="" style="shape=partialRectangle;html=1;whiteSpace=wrap;connectable=0;overflow=hidden;fillColor=none;top=1;left=1;bottom=1;right=1;" vertex="1" parent="Im4FhcCXqjplq8VreH-y-269">
          <mxGeometry x="360" width="40" height="40" as="geometry" />
        </mxCell>
        <mxCell id="Im4FhcCXqjplq8VreH-y-280" value="" style="shape=partialRectangle;html=1;whiteSpace=wrap;collapsible=0;dropTarget=0;pointerEvents=0;fillColor=none;top=0;left=0;bottom=0;right=0;points=[[0,0.5],[1,0.5]];portConstraint=eastwest;" vertex="1" parent="Im4FhcCXqjplq8VreH-y-224">
          <mxGeometry y="204" width="400" height="40" as="geometry" />
        </mxCell>
        <mxCell id="Im4FhcCXqjplq8VreH-y-281" value="5" style="shape=partialRectangle;html=1;whiteSpace=wrap;connectable=0;overflow=hidden;fillColor=#b0e3e6;top=0;left=0;bottom=0;right=0;strokeColor=#0e8088;fontStyle=1;fontSize=18;" vertex="1" parent="Im4FhcCXqjplq8VreH-y-280">
          <mxGeometry width="40" height="40" as="geometry" />
        </mxCell>
        <mxCell id="Im4FhcCXqjplq8VreH-y-282" value="" style="shape=partialRectangle;html=1;whiteSpace=wrap;connectable=0;overflow=hidden;fillColor=none;top=1;left=1;bottom=1;right=1;" vertex="1" parent="Im4FhcCXqjplq8VreH-y-280">
          <mxGeometry x="40" width="40" height="40" as="geometry" />
        </mxCell>
        <mxCell id="Im4FhcCXqjplq8VreH-y-283" value="" style="shape=partialRectangle;html=1;whiteSpace=wrap;connectable=0;overflow=hidden;fillColor=none;top=1;left=1;bottom=1;right=1;" vertex="1" parent="Im4FhcCXqjplq8VreH-y-280">
          <mxGeometry x="80" width="40" height="40" as="geometry" />
        </mxCell>
        <mxCell id="Im4FhcCXqjplq8VreH-y-284" value="" style="shape=partialRectangle;html=1;whiteSpace=wrap;connectable=0;overflow=hidden;fillColor=none;top=1;left=1;bottom=1;right=1;" vertex="1" parent="Im4FhcCXqjplq8VreH-y-280">
          <mxGeometry x="120" width="40" height="40" as="geometry" />
        </mxCell>
        <mxCell id="Im4FhcCXqjplq8VreH-y-285" value="&lt;font style=&quot;font-size: 8px&quot;&gt;1345678&lt;/font&gt;" style="shape=partialRectangle;html=1;whiteSpace=wrap;connectable=0;overflow=hidden;fillColor=#fad9d5;top=1;left=1;bottom=1;right=1;" vertex="1" parent="Im4FhcCXqjplq8VreH-y-280">
          <mxGeometry x="160" width="40" height="40" as="geometry" />
        </mxCell>
        <mxCell id="Im4FhcCXqjplq8VreH-y-286" value="13679" style="shape=partialRectangle;html=1;whiteSpace=wrap;connectable=0;overflow=hidden;fillColor=#fad9d5;top=1;left=1;bottom=1;right=1;fontSize=8;" vertex="1" parent="Im4FhcCXqjplq8VreH-y-280">
          <mxGeometry x="200" width="40" height="40" as="geometry" />
        </mxCell>
        <mxCell id="Im4FhcCXqjplq8VreH-y-287" value="&lt;span style=&quot;font-size: 8px;&quot;&gt;5789&lt;/span&gt;" style="shape=partialRectangle;html=1;whiteSpace=wrap;connectable=0;overflow=hidden;fillColor=#fad9d5;top=1;left=1;bottom=1;right=1;fontSize=8;" vertex="1" parent="Im4FhcCXqjplq8VreH-y-280">
          <mxGeometry x="240" width="40" height="40" as="geometry" />
        </mxCell>
        <mxCell id="Im4FhcCXqjplq8VreH-y-288" value="" style="shape=partialRectangle;html=1;whiteSpace=wrap;connectable=0;overflow=hidden;fillColor=none;top=1;left=1;bottom=1;right=1;" vertex="1" parent="Im4FhcCXqjplq8VreH-y-280">
          <mxGeometry x="280" width="40" height="40" as="geometry" />
        </mxCell>
        <mxCell id="Im4FhcCXqjplq8VreH-y-289" value="" style="shape=partialRectangle;html=1;whiteSpace=wrap;connectable=0;overflow=hidden;fillColor=none;top=1;left=1;bottom=1;right=1;" vertex="1" parent="Im4FhcCXqjplq8VreH-y-280">
          <mxGeometry x="320" width="40" height="40" as="geometry" />
        </mxCell>
        <mxCell id="Im4FhcCXqjplq8VreH-y-290" value="" style="shape=partialRectangle;html=1;whiteSpace=wrap;connectable=0;overflow=hidden;fillColor=none;top=1;left=1;bottom=1;right=1;" vertex="1" parent="Im4FhcCXqjplq8VreH-y-280">
          <mxGeometry x="360" width="40" height="40" as="geometry" />
        </mxCell>
        <mxCell id="Im4FhcCXqjplq8VreH-y-291" value="" style="shape=partialRectangle;html=1;whiteSpace=wrap;collapsible=0;dropTarget=0;pointerEvents=0;fillColor=none;top=0;left=0;bottom=0;right=0;points=[[0,0.5],[1,0.5]];portConstraint=eastwest;" vertex="1" parent="Im4FhcCXqjplq8VreH-y-224">
          <mxGeometry y="244" width="400" height="40" as="geometry" />
        </mxCell>
        <mxCell id="Im4FhcCXqjplq8VreH-y-292" value="6" style="shape=partialRectangle;html=1;whiteSpace=wrap;connectable=0;overflow=hidden;fillColor=#b0e3e6;top=0;left=0;bottom=0;right=0;strokeColor=#0e8088;fontStyle=1;fontSize=18;" vertex="1" parent="Im4FhcCXqjplq8VreH-y-291">
          <mxGeometry width="40" height="40" as="geometry" />
        </mxCell>
        <mxCell id="Im4FhcCXqjplq8VreH-y-293" value="" style="shape=partialRectangle;html=1;whiteSpace=wrap;connectable=0;overflow=hidden;fillColor=none;top=1;left=1;bottom=1;right=1;" vertex="1" parent="Im4FhcCXqjplq8VreH-y-291">
          <mxGeometry x="40" width="40" height="40" as="geometry" />
        </mxCell>
        <mxCell id="Im4FhcCXqjplq8VreH-y-294" value="" style="shape=partialRectangle;html=1;whiteSpace=wrap;connectable=0;overflow=hidden;fillColor=none;top=1;left=1;bottom=1;right=1;" vertex="1" parent="Im4FhcCXqjplq8VreH-y-291">
          <mxGeometry x="80" width="40" height="40" as="geometry" />
        </mxCell>
        <mxCell id="Im4FhcCXqjplq8VreH-y-295" value="" style="shape=partialRectangle;html=1;whiteSpace=wrap;connectable=0;overflow=hidden;fillColor=none;top=1;left=1;bottom=1;right=1;" vertex="1" parent="Im4FhcCXqjplq8VreH-y-291">
          <mxGeometry x="120" width="40" height="40" as="geometry" />
        </mxCell>
        <mxCell id="Im4FhcCXqjplq8VreH-y-296" value="4578" style="shape=partialRectangle;html=1;whiteSpace=wrap;connectable=0;overflow=hidden;fillColor=#fad9d5;top=1;left=1;bottom=1;right=1;fontSize=8;" vertex="1" parent="Im4FhcCXqjplq8VreH-y-291">
          <mxGeometry x="160" width="40" height="40" as="geometry" />
        </mxCell>
        <mxCell id="Im4FhcCXqjplq8VreH-y-297" value="79" style="shape=partialRectangle;html=1;whiteSpace=wrap;connectable=0;overflow=hidden;fillColor=#fad9d5;top=1;left=1;bottom=1;right=1;fontSize=8;" vertex="1" parent="Im4FhcCXqjplq8VreH-y-291">
          <mxGeometry x="200" width="40" height="40" as="geometry" />
        </mxCell>
        <mxCell id="Im4FhcCXqjplq8VreH-y-298" value="&lt;span style=&quot;font-size: 8px;&quot;&gt;5789&lt;/span&gt;" style="shape=partialRectangle;html=1;whiteSpace=wrap;connectable=0;overflow=hidden;fillColor=#fad9d5;top=1;left=1;bottom=1;right=1;fontSize=8;" vertex="1" parent="Im4FhcCXqjplq8VreH-y-291">
          <mxGeometry x="240" width="40" height="40" as="geometry" />
        </mxCell>
        <mxCell id="Im4FhcCXqjplq8VreH-y-299" value="" style="shape=partialRectangle;html=1;whiteSpace=wrap;connectable=0;overflow=hidden;fillColor=none;top=1;left=1;bottom=1;right=1;" vertex="1" parent="Im4FhcCXqjplq8VreH-y-291">
          <mxGeometry x="280" width="40" height="40" as="geometry" />
        </mxCell>
        <mxCell id="Im4FhcCXqjplq8VreH-y-300" value="" style="shape=partialRectangle;html=1;whiteSpace=wrap;connectable=0;overflow=hidden;fillColor=none;top=1;left=1;bottom=1;right=1;" vertex="1" parent="Im4FhcCXqjplq8VreH-y-291">
          <mxGeometry x="320" width="40" height="40" as="geometry" />
        </mxCell>
        <mxCell id="Im4FhcCXqjplq8VreH-y-301" value="" style="shape=partialRectangle;html=1;whiteSpace=wrap;connectable=0;overflow=hidden;fillColor=none;top=1;left=1;bottom=1;right=1;" vertex="1" parent="Im4FhcCXqjplq8VreH-y-291">
          <mxGeometry x="360" width="40" height="40" as="geometry" />
        </mxCell>
        <mxCell id="Im4FhcCXqjplq8VreH-y-302" value="" style="shape=partialRectangle;html=1;whiteSpace=wrap;collapsible=0;dropTarget=0;pointerEvents=0;fillColor=none;top=0;left=0;bottom=0;right=0;points=[[0,0.5],[1,0.5]];portConstraint=eastwest;" vertex="1" parent="Im4FhcCXqjplq8VreH-y-224">
          <mxGeometry y="284" width="400" height="40" as="geometry" />
        </mxCell>
        <mxCell id="Im4FhcCXqjplq8VreH-y-303" value="7" style="shape=partialRectangle;html=1;whiteSpace=wrap;connectable=0;overflow=hidden;fillColor=#b0e3e6;top=0;left=0;bottom=0;right=0;strokeColor=#0e8088;fontStyle=1;fontSize=18;" vertex="1" parent="Im4FhcCXqjplq8VreH-y-302">
          <mxGeometry width="40" height="40" as="geometry" />
        </mxCell>
        <mxCell id="Im4FhcCXqjplq8VreH-y-304" value="" style="shape=partialRectangle;html=1;whiteSpace=wrap;connectable=0;overflow=hidden;fillColor=#fad9d5;top=1;left=1;bottom=1;right=1;" vertex="1" parent="Im4FhcCXqjplq8VreH-y-302">
          <mxGeometry x="40" width="40" height="40" as="geometry" />
        </mxCell>
        <mxCell id="Im4FhcCXqjplq8VreH-y-305" value="" style="shape=partialRectangle;html=1;whiteSpace=wrap;connectable=0;overflow=hidden;fillColor=#fad9d5;top=1;left=1;bottom=1;right=1;" vertex="1" parent="Im4FhcCXqjplq8VreH-y-302">
          <mxGeometry x="80" width="40" height="40" as="geometry" />
        </mxCell>
        <mxCell id="Im4FhcCXqjplq8VreH-y-306" value="" style="shape=partialRectangle;html=1;whiteSpace=wrap;connectable=0;overflow=hidden;fillColor=#fad9d5;top=1;left=1;bottom=1;right=1;" vertex="1" parent="Im4FhcCXqjplq8VreH-y-302">
          <mxGeometry x="120" width="40" height="40" as="geometry" />
        </mxCell>
        <mxCell id="Im4FhcCXqjplq8VreH-y-307" value="5678" style="shape=partialRectangle;html=1;whiteSpace=wrap;connectable=0;overflow=hidden;fillColor=none;top=1;left=1;bottom=1;right=1;fontSize=8;" vertex="1" parent="Im4FhcCXqjplq8VreH-y-302">
          <mxGeometry x="160" width="40" height="40" as="geometry" />
        </mxCell>
        <mxCell id="Im4FhcCXqjplq8VreH-y-308" value="679" style="shape=partialRectangle;html=1;whiteSpace=wrap;connectable=0;overflow=hidden;fillColor=none;top=1;left=1;bottom=1;right=1;fontSize=8;" vertex="1" parent="Im4FhcCXqjplq8VreH-y-302">
          <mxGeometry x="200" width="40" height="40" as="geometry" />
        </mxCell>
        <mxCell id="Im4FhcCXqjplq8VreH-y-309" value="5789" style="shape=partialRectangle;html=1;whiteSpace=wrap;connectable=0;overflow=hidden;fillColor=none;top=1;left=1;bottom=1;right=1;fontSize=8;" vertex="1" parent="Im4FhcCXqjplq8VreH-y-302">
          <mxGeometry x="240" width="40" height="40" as="geometry" />
        </mxCell>
        <mxCell id="Im4FhcCXqjplq8VreH-y-310" value="" style="shape=partialRectangle;html=1;whiteSpace=wrap;connectable=0;overflow=hidden;fillColor=#fad9d5;top=1;left=1;bottom=1;right=1;" vertex="1" parent="Im4FhcCXqjplq8VreH-y-302">
          <mxGeometry x="280" width="40" height="40" as="geometry" />
        </mxCell>
        <mxCell id="Im4FhcCXqjplq8VreH-y-311" value="" style="shape=partialRectangle;html=1;whiteSpace=wrap;connectable=0;overflow=hidden;fillColor=#fad9d5;top=1;left=1;bottom=1;right=1;" vertex="1" parent="Im4FhcCXqjplq8VreH-y-302">
          <mxGeometry x="320" width="40" height="40" as="geometry" />
        </mxCell>
        <mxCell id="Im4FhcCXqjplq8VreH-y-312" value="" style="shape=partialRectangle;html=1;whiteSpace=wrap;connectable=0;overflow=hidden;fillColor=#fad9d5;top=1;left=1;bottom=1;right=1;" vertex="1" parent="Im4FhcCXqjplq8VreH-y-302">
          <mxGeometry x="360" width="40" height="40" as="geometry" />
        </mxCell>
        <mxCell id="Im4FhcCXqjplq8VreH-y-313" value="" style="shape=partialRectangle;html=1;whiteSpace=wrap;collapsible=0;dropTarget=0;pointerEvents=0;fillColor=none;top=0;left=0;bottom=0;right=0;points=[[0,0.5],[1,0.5]];portConstraint=eastwest;" vertex="1" parent="Im4FhcCXqjplq8VreH-y-224">
          <mxGeometry y="324" width="400" height="40" as="geometry" />
        </mxCell>
        <mxCell id="Im4FhcCXqjplq8VreH-y-314" value="8" style="shape=partialRectangle;html=1;whiteSpace=wrap;connectable=0;overflow=hidden;fillColor=#b0e3e6;top=0;left=0;bottom=0;right=0;strokeColor=#0e8088;fontStyle=1;fontSize=18;" vertex="1" parent="Im4FhcCXqjplq8VreH-y-313">
          <mxGeometry width="40" height="40" as="geometry" />
        </mxCell>
        <mxCell id="Im4FhcCXqjplq8VreH-y-315" value="" style="shape=partialRectangle;html=1;whiteSpace=wrap;connectable=0;overflow=hidden;fillColor=#fad9d5;top=1;left=1;bottom=1;right=1;" vertex="1" parent="Im4FhcCXqjplq8VreH-y-313">
          <mxGeometry x="40" width="40" height="40" as="geometry" />
        </mxCell>
        <mxCell id="Im4FhcCXqjplq8VreH-y-316" value="" style="shape=partialRectangle;html=1;whiteSpace=wrap;connectable=0;overflow=hidden;fillColor=#fad9d5;top=1;left=1;bottom=1;right=1;" vertex="1" parent="Im4FhcCXqjplq8VreH-y-313">
          <mxGeometry x="80" width="40" height="40" as="geometry" />
        </mxCell>
        <mxCell id="Im4FhcCXqjplq8VreH-y-317" value="" style="shape=partialRectangle;html=1;whiteSpace=wrap;connectable=0;overflow=hidden;fillColor=#fad9d5;top=1;left=1;bottom=1;right=1;" vertex="1" parent="Im4FhcCXqjplq8VreH-y-313">
          <mxGeometry x="120" width="40" height="40" as="geometry" />
        </mxCell>
        <mxCell id="Im4FhcCXqjplq8VreH-y-318" value="3567" style="shape=partialRectangle;html=1;whiteSpace=wrap;connectable=0;overflow=hidden;fillColor=none;top=1;left=1;bottom=1;right=1;fontSize=8;" vertex="1" parent="Im4FhcCXqjplq8VreH-y-313">
          <mxGeometry x="160" width="40" height="40" as="geometry" />
        </mxCell>
        <mxCell id="Im4FhcCXqjplq8VreH-y-319" value="4" style="shape=partialRectangle;html=1;whiteSpace=wrap;connectable=0;overflow=hidden;fillColor=none;top=1;left=1;bottom=1;right=1;fontSize=8;" vertex="1" parent="Im4FhcCXqjplq8VreH-y-313">
          <mxGeometry x="200" width="40" height="40" as="geometry" />
        </mxCell>
        <mxCell id="Im4FhcCXqjplq8VreH-y-320" value="2579" style="shape=partialRectangle;html=1;whiteSpace=wrap;connectable=0;overflow=hidden;fillColor=none;top=1;left=1;bottom=1;right=1;fontSize=8;" vertex="1" parent="Im4FhcCXqjplq8VreH-y-313">
          <mxGeometry x="240" width="40" height="40" as="geometry" />
        </mxCell>
        <mxCell id="Im4FhcCXqjplq8VreH-y-321" value="" style="shape=partialRectangle;html=1;whiteSpace=wrap;connectable=0;overflow=hidden;fillColor=#fad9d5;top=1;left=1;bottom=1;right=1;" vertex="1" parent="Im4FhcCXqjplq8VreH-y-313">
          <mxGeometry x="280" width="40" height="40" as="geometry" />
        </mxCell>
        <mxCell id="Im4FhcCXqjplq8VreH-y-322" value="" style="shape=partialRectangle;html=1;whiteSpace=wrap;connectable=0;overflow=hidden;fillColor=#fad9d5;top=1;left=1;bottom=1;right=1;" vertex="1" parent="Im4FhcCXqjplq8VreH-y-313">
          <mxGeometry x="320" width="40" height="40" as="geometry" />
        </mxCell>
        <mxCell id="Im4FhcCXqjplq8VreH-y-323" value="" style="shape=partialRectangle;html=1;whiteSpace=wrap;connectable=0;overflow=hidden;fillColor=#fad9d5;top=1;left=1;bottom=1;right=1;" vertex="1" parent="Im4FhcCXqjplq8VreH-y-313">
          <mxGeometry x="360" width="40" height="40" as="geometry" />
        </mxCell>
        <mxCell id="Im4FhcCXqjplq8VreH-y-324" value="" style="shape=partialRectangle;html=1;whiteSpace=wrap;collapsible=0;dropTarget=0;pointerEvents=0;fillColor=none;top=0;left=0;bottom=0;right=0;points=[[0,0.5],[1,0.5]];portConstraint=eastwest;" vertex="1" parent="Im4FhcCXqjplq8VreH-y-224">
          <mxGeometry y="364" width="400" height="40" as="geometry" />
        </mxCell>
        <mxCell id="Im4FhcCXqjplq8VreH-y-325" value="9" style="shape=partialRectangle;html=1;whiteSpace=wrap;connectable=0;overflow=hidden;fillColor=#b0e3e6;top=0;left=0;bottom=0;right=0;strokeColor=#0e8088;fontStyle=1;fontSize=18;" vertex="1" parent="Im4FhcCXqjplq8VreH-y-324">
          <mxGeometry width="40" height="40" as="geometry" />
        </mxCell>
        <mxCell id="Im4FhcCXqjplq8VreH-y-326" value="" style="shape=partialRectangle;html=1;whiteSpace=wrap;connectable=0;overflow=hidden;fillColor=#fad9d5;top=1;left=1;bottom=1;right=1;" vertex="1" parent="Im4FhcCXqjplq8VreH-y-324">
          <mxGeometry x="40" width="40" height="40" as="geometry" />
        </mxCell>
        <mxCell id="Im4FhcCXqjplq8VreH-y-327" value="" style="shape=partialRectangle;html=1;whiteSpace=wrap;connectable=0;overflow=hidden;fillColor=#fad9d5;top=1;left=1;bottom=1;right=1;" vertex="1" parent="Im4FhcCXqjplq8VreH-y-324">
          <mxGeometry x="80" width="40" height="40" as="geometry" />
        </mxCell>
        <mxCell id="Im4FhcCXqjplq8VreH-y-328" value="" style="shape=partialRectangle;html=1;whiteSpace=wrap;connectable=0;overflow=hidden;fillColor=#fad9d5;top=1;left=1;bottom=1;right=1;" vertex="1" parent="Im4FhcCXqjplq8VreH-y-324">
          <mxGeometry x="120" width="40" height="40" as="geometry" />
        </mxCell>
        <mxCell id="Im4FhcCXqjplq8VreH-y-329" value="368" style="shape=partialRectangle;html=1;whiteSpace=wrap;connectable=0;overflow=hidden;fillColor=none;top=1;left=1;bottom=1;right=1;fontSize=8;" vertex="1" parent="Im4FhcCXqjplq8VreH-y-324">
          <mxGeometry x="160" width="40" height="40" as="geometry" />
        </mxCell>
        <mxCell id="Im4FhcCXqjplq8VreH-y-330" value="369" style="shape=partialRectangle;html=1;whiteSpace=wrap;connectable=0;overflow=hidden;fillColor=none;top=1;left=1;bottom=1;right=1;fontSize=8;" vertex="1" parent="Im4FhcCXqjplq8VreH-y-324">
          <mxGeometry x="200" width="40" height="40" as="geometry" />
        </mxCell>
        <mxCell id="Im4FhcCXqjplq8VreH-y-331" value="1" style="shape=partialRectangle;html=1;whiteSpace=wrap;connectable=0;overflow=hidden;fillColor=none;top=1;left=1;bottom=1;right=1;fontSize=8;" vertex="1" parent="Im4FhcCXqjplq8VreH-y-324">
          <mxGeometry x="240" width="40" height="40" as="geometry" />
        </mxCell>
        <mxCell id="Im4FhcCXqjplq8VreH-y-332" value="" style="shape=partialRectangle;html=1;whiteSpace=wrap;connectable=0;overflow=hidden;fillColor=#fad9d5;top=1;left=1;bottom=1;right=1;" vertex="1" parent="Im4FhcCXqjplq8VreH-y-324">
          <mxGeometry x="280" width="40" height="40" as="geometry" />
        </mxCell>
        <mxCell id="Im4FhcCXqjplq8VreH-y-333" value="" style="shape=partialRectangle;html=1;whiteSpace=wrap;connectable=0;overflow=hidden;fillColor=#fad9d5;top=1;left=1;bottom=1;right=1;" vertex="1" parent="Im4FhcCXqjplq8VreH-y-324">
          <mxGeometry x="320" width="40" height="40" as="geometry" />
        </mxCell>
        <mxCell id="Im4FhcCXqjplq8VreH-y-334" value="" style="shape=partialRectangle;html=1;whiteSpace=wrap;connectable=0;overflow=hidden;fillColor=#fad9d5;top=1;left=1;bottom=1;right=1;" vertex="1" parent="Im4FhcCXqjplq8VreH-y-324">
          <mxGeometry x="360" width="40" height="40" as="geometry" />
        </mxCell>
        <mxCell id="Im4FhcCXqjplq8VreH-y-335" value="Copied Table (with different guess in cell D3)" style="text;strokeColor=none;fillColor=none;html=1;fontSize=24;fontStyle=1;verticalAlign=middle;align=center;rounded=0;shadow=1;" vertex="1" parent="1">
          <mxGeometry x="537" y="547" width="780" height="40" as="geometry" />
        </mxCell>
        <mxCell id="Im4FhcCXqjplq8VreH-y-347" value="" style="shape=table;html=1;whiteSpace=wrap;startSize=0;container=1;collapsible=0;childLayout=tableLayout;aspect=fixed;rowLines=1;columnLines=1;" vertex="1" parent="1">
          <mxGeometry x="-863" y="214" width="400" height="400" as="geometry" />
        </mxCell>
        <mxCell id="Im4FhcCXqjplq8VreH-y-348" value="" style="shape=partialRectangle;html=1;whiteSpace=wrap;collapsible=0;dropTarget=0;pointerEvents=0;fillColor=none;top=0;left=0;bottom=0;right=0;points=[[0,0.5],[1,0.5]];portConstraint=eastwest;" vertex="1" parent="Im4FhcCXqjplq8VreH-y-347">
          <mxGeometry width="400" height="40" as="geometry" />
        </mxCell>
        <mxCell id="Im4FhcCXqjplq8VreH-y-349" value="" style="shape=partialRectangle;html=1;whiteSpace=wrap;connectable=0;overflow=hidden;fillColor=#b0e3e6;top=0;left=0;bottom=0;right=0;strokeColor=#0e8088;fontStyle=1;fontSize=18;" vertex="1" parent="Im4FhcCXqjplq8VreH-y-348">
          <mxGeometry width="40" height="40" as="geometry" />
        </mxCell>
        <mxCell id="Im4FhcCXqjplq8VreH-y-350" value="A" style="shape=partialRectangle;html=1;whiteSpace=wrap;connectable=0;overflow=hidden;fillColor=#b0e3e6;top=0;left=0;bottom=0;right=0;strokeColor=#0e8088;fontStyle=1;fontSize=18;" vertex="1" parent="Im4FhcCXqjplq8VreH-y-348">
          <mxGeometry x="40" width="40" height="40" as="geometry" />
        </mxCell>
        <mxCell id="Im4FhcCXqjplq8VreH-y-351" value="B" style="shape=partialRectangle;html=1;whiteSpace=wrap;connectable=0;overflow=hidden;fillColor=#b0e3e6;top=0;left=0;bottom=0;right=0;strokeColor=#0e8088;fontStyle=1;fontSize=18;" vertex="1" parent="Im4FhcCXqjplq8VreH-y-348">
          <mxGeometry x="80" width="40" height="40" as="geometry" />
        </mxCell>
        <mxCell id="Im4FhcCXqjplq8VreH-y-352" value="C" style="shape=partialRectangle;html=1;whiteSpace=wrap;connectable=0;overflow=hidden;fillColor=#b0e3e6;top=0;left=0;bottom=0;right=0;strokeColor=#0e8088;fontStyle=1;fontSize=18;" vertex="1" parent="Im4FhcCXqjplq8VreH-y-348">
          <mxGeometry x="120" width="40" height="40" as="geometry" />
        </mxCell>
        <mxCell id="Im4FhcCXqjplq8VreH-y-353" value="D" style="shape=partialRectangle;html=1;whiteSpace=wrap;connectable=0;overflow=hidden;fillColor=#b0e3e6;top=0;left=0;bottom=0;right=0;strokeColor=#0e8088;fontStyle=1;fontSize=18;" vertex="1" parent="Im4FhcCXqjplq8VreH-y-348">
          <mxGeometry x="160" width="40" height="40" as="geometry" />
        </mxCell>
        <mxCell id="Im4FhcCXqjplq8VreH-y-354" value="E" style="shape=partialRectangle;html=1;whiteSpace=wrap;connectable=0;overflow=hidden;fillColor=#b0e3e6;top=0;left=0;bottom=0;right=0;strokeColor=#0e8088;fontStyle=1;fontSize=18;" vertex="1" parent="Im4FhcCXqjplq8VreH-y-348">
          <mxGeometry x="200" width="40" height="40" as="geometry" />
        </mxCell>
        <mxCell id="Im4FhcCXqjplq8VreH-y-355" value="F" style="shape=partialRectangle;html=1;whiteSpace=wrap;connectable=0;overflow=hidden;fillColor=#b0e3e6;top=0;left=0;bottom=0;right=0;strokeColor=#0e8088;fontStyle=1;fontSize=18;" vertex="1" parent="Im4FhcCXqjplq8VreH-y-348">
          <mxGeometry x="240" width="40" height="40" as="geometry" />
        </mxCell>
        <mxCell id="Im4FhcCXqjplq8VreH-y-356" value="G" style="shape=partialRectangle;html=1;whiteSpace=wrap;connectable=0;overflow=hidden;fillColor=#b0e3e6;top=0;left=0;bottom=0;right=0;strokeColor=#0e8088;fontStyle=1;fontSize=18;" vertex="1" parent="Im4FhcCXqjplq8VreH-y-348">
          <mxGeometry x="280" width="40" height="40" as="geometry" />
        </mxCell>
        <mxCell id="Im4FhcCXqjplq8VreH-y-357" value="H" style="shape=partialRectangle;html=1;whiteSpace=wrap;connectable=0;overflow=hidden;fillColor=#b0e3e6;top=0;left=0;bottom=0;right=0;strokeColor=#0e8088;fontStyle=1;fontSize=18;" vertex="1" parent="Im4FhcCXqjplq8VreH-y-348">
          <mxGeometry x="320" width="40" height="40" as="geometry" />
        </mxCell>
        <mxCell id="Im4FhcCXqjplq8VreH-y-358" value="I" style="shape=partialRectangle;html=1;whiteSpace=wrap;connectable=0;overflow=hidden;fillColor=#b0e3e6;top=0;left=0;bottom=0;right=0;strokeColor=#0e8088;fontStyle=1;fontSize=18;" vertex="1" parent="Im4FhcCXqjplq8VreH-y-348">
          <mxGeometry x="360" width="40" height="40" as="geometry" />
        </mxCell>
        <mxCell id="Im4FhcCXqjplq8VreH-y-359" value="" style="shape=partialRectangle;html=1;whiteSpace=wrap;collapsible=0;dropTarget=0;pointerEvents=0;fillColor=none;top=0;left=0;bottom=0;right=0;points=[[0,0.5],[1,0.5]];portConstraint=eastwest;" vertex="1" parent="Im4FhcCXqjplq8VreH-y-347">
          <mxGeometry y="40" width="400" height="40" as="geometry" />
        </mxCell>
        <mxCell id="Im4FhcCXqjplq8VreH-y-360" value="1" style="shape=partialRectangle;html=1;whiteSpace=wrap;connectable=0;overflow=hidden;fillColor=#b0e3e6;top=0;left=0;bottom=0;right=0;strokeColor=#0e8088;fontStyle=1;fontSize=18;" vertex="1" parent="Im4FhcCXqjplq8VreH-y-359">
          <mxGeometry width="40" height="40" as="geometry" />
        </mxCell>
        <mxCell id="Im4FhcCXqjplq8VreH-y-361" value="1" style="shape=partialRectangle;html=1;whiteSpace=wrap;connectable=0;overflow=hidden;fillColor=#fad9d5;top=1;left=1;bottom=1;right=1;" vertex="1" parent="Im4FhcCXqjplq8VreH-y-359">
          <mxGeometry x="40" width="40" height="40" as="geometry" />
        </mxCell>
        <mxCell id="Im4FhcCXqjplq8VreH-y-362" value="5" style="shape=partialRectangle;html=1;whiteSpace=wrap;connectable=0;overflow=hidden;fillColor=#fad9d5;top=1;left=1;bottom=1;right=1;" vertex="1" parent="Im4FhcCXqjplq8VreH-y-359">
          <mxGeometry x="80" width="40" height="40" as="geometry" />
        </mxCell>
        <mxCell id="Im4FhcCXqjplq8VreH-y-363" value="3" style="shape=partialRectangle;html=1;whiteSpace=wrap;connectable=0;overflow=hidden;fillColor=#fad9d5;top=1;left=1;bottom=1;right=1;" vertex="1" parent="Im4FhcCXqjplq8VreH-y-359">
          <mxGeometry x="120" width="40" height="40" as="geometry" />
        </mxCell>
        <mxCell id="Im4FhcCXqjplq8VreH-y-364" value="2" style="shape=partialRectangle;html=1;whiteSpace=wrap;connectable=0;overflow=hidden;fillColor=none;top=1;left=1;bottom=1;right=1;" vertex="1" parent="Im4FhcCXqjplq8VreH-y-359">
          <mxGeometry x="160" width="40" height="40" as="geometry" />
        </mxCell>
        <mxCell id="Im4FhcCXqjplq8VreH-y-365" value="8" style="shape=partialRectangle;html=1;whiteSpace=wrap;connectable=0;overflow=hidden;fillColor=none;top=1;left=1;bottom=1;right=1;" vertex="1" parent="Im4FhcCXqjplq8VreH-y-359">
          <mxGeometry x="200" width="40" height="40" as="geometry" />
        </mxCell>
        <mxCell id="Im4FhcCXqjplq8VreH-y-366" value="4" style="shape=partialRectangle;html=1;whiteSpace=wrap;connectable=0;overflow=hidden;fillColor=none;top=1;left=1;bottom=1;right=1;" vertex="1" parent="Im4FhcCXqjplq8VreH-y-359">
          <mxGeometry x="240" width="40" height="40" as="geometry" />
        </mxCell>
        <mxCell id="Im4FhcCXqjplq8VreH-y-367" value="9" style="shape=partialRectangle;html=1;whiteSpace=wrap;connectable=0;overflow=hidden;fillColor=#fad9d5;top=1;left=1;bottom=1;right=1;perimeterSpacing=2;" vertex="1" parent="Im4FhcCXqjplq8VreH-y-359">
          <mxGeometry x="280" width="40" height="40" as="geometry" />
        </mxCell>
        <mxCell id="Im4FhcCXqjplq8VreH-y-368" value="6" style="shape=partialRectangle;html=1;whiteSpace=wrap;connectable=0;overflow=hidden;fillColor=#fad9d5;top=1;left=1;bottom=1;right=1;" vertex="1" parent="Im4FhcCXqjplq8VreH-y-359">
          <mxGeometry x="320" width="40" height="40" as="geometry" />
        </mxCell>
        <mxCell id="Im4FhcCXqjplq8VreH-y-369" value="7" style="shape=partialRectangle;html=1;whiteSpace=wrap;connectable=0;overflow=hidden;fillColor=#fad9d5;top=1;left=1;bottom=1;right=1;" vertex="1" parent="Im4FhcCXqjplq8VreH-y-359">
          <mxGeometry x="360" width="40" height="40" as="geometry" />
        </mxCell>
        <mxCell id="Im4FhcCXqjplq8VreH-y-370" value="" style="shape=partialRectangle;html=1;whiteSpace=wrap;collapsible=0;dropTarget=0;pointerEvents=0;fillColor=none;top=0;left=0;bottom=0;right=0;points=[[0,0.5],[1,0.5]];portConstraint=eastwest;" vertex="1" parent="Im4FhcCXqjplq8VreH-y-347">
          <mxGeometry y="80" width="400" height="40" as="geometry" />
        </mxCell>
        <mxCell id="Im4FhcCXqjplq8VreH-y-371" value="2" style="shape=partialRectangle;html=1;whiteSpace=wrap;connectable=0;overflow=hidden;fillColor=#b0e3e6;top=0;left=0;bottom=0;right=0;strokeColor=#0e8088;fontStyle=1;fontSize=18;" vertex="1" parent="Im4FhcCXqjplq8VreH-y-370">
          <mxGeometry width="40" height="40" as="geometry" />
        </mxCell>
        <mxCell id="Im4FhcCXqjplq8VreH-y-372" value="8" style="shape=partialRectangle;html=1;whiteSpace=wrap;connectable=0;overflow=hidden;fillColor=#fad9d5;top=1;left=1;bottom=1;right=1;" vertex="1" parent="Im4FhcCXqjplq8VreH-y-370">
          <mxGeometry x="40" width="40" height="40" as="geometry" />
        </mxCell>
        <mxCell id="Im4FhcCXqjplq8VreH-y-373" value="2" style="shape=partialRectangle;html=1;whiteSpace=wrap;connectable=0;overflow=hidden;fillColor=#fad9d5;top=1;left=1;bottom=1;right=1;" vertex="1" parent="Im4FhcCXqjplq8VreH-y-370">
          <mxGeometry x="80" width="40" height="40" as="geometry" />
        </mxCell>
        <mxCell id="Im4FhcCXqjplq8VreH-y-374" value="7" style="shape=partialRectangle;html=1;whiteSpace=wrap;connectable=0;overflow=hidden;fillColor=#fad9d5;top=1;left=1;bottom=1;right=1;" vertex="1" parent="Im4FhcCXqjplq8VreH-y-370">
          <mxGeometry x="120" width="40" height="40" as="geometry" />
        </mxCell>
        <mxCell id="Im4FhcCXqjplq8VreH-y-375" value="9" style="shape=partialRectangle;html=1;whiteSpace=wrap;connectable=0;overflow=hidden;fillColor=none;top=1;left=1;bottom=1;right=1;" vertex="1" parent="Im4FhcCXqjplq8VreH-y-370">
          <mxGeometry x="160" width="40" height="40" as="geometry" />
        </mxCell>
        <mxCell id="Im4FhcCXqjplq8VreH-y-376" value="5" style="shape=partialRectangle;html=1;whiteSpace=wrap;connectable=0;overflow=hidden;fillColor=none;top=1;left=1;bottom=1;right=1;" vertex="1" parent="Im4FhcCXqjplq8VreH-y-370">
          <mxGeometry x="200" width="40" height="40" as="geometry" />
        </mxCell>
        <mxCell id="Im4FhcCXqjplq8VreH-y-377" value="6" style="shape=partialRectangle;html=1;whiteSpace=wrap;connectable=0;overflow=hidden;fillColor=none;top=1;left=1;bottom=1;right=1;" vertex="1" parent="Im4FhcCXqjplq8VreH-y-370">
          <mxGeometry x="240" width="40" height="40" as="geometry" />
        </mxCell>
        <mxCell id="Im4FhcCXqjplq8VreH-y-378" value="1" style="shape=partialRectangle;html=1;whiteSpace=wrap;connectable=0;overflow=hidden;fillColor=#fad9d5;top=1;left=1;bottom=1;right=1;" vertex="1" parent="Im4FhcCXqjplq8VreH-y-370">
          <mxGeometry x="280" width="40" height="40" as="geometry" />
        </mxCell>
        <mxCell id="Im4FhcCXqjplq8VreH-y-379" value="4" style="shape=partialRectangle;html=1;whiteSpace=wrap;connectable=0;overflow=hidden;fillColor=#fad9d5;top=1;left=1;bottom=1;right=1;" vertex="1" parent="Im4FhcCXqjplq8VreH-y-370">
          <mxGeometry x="320" width="40" height="40" as="geometry" />
        </mxCell>
        <mxCell id="Im4FhcCXqjplq8VreH-y-380" value="3" style="shape=partialRectangle;html=1;whiteSpace=wrap;connectable=0;overflow=hidden;fillColor=#fad9d5;top=1;left=1;bottom=1;right=1;" vertex="1" parent="Im4FhcCXqjplq8VreH-y-370">
          <mxGeometry x="360" width="40" height="40" as="geometry" />
        </mxCell>
        <mxCell id="Im4FhcCXqjplq8VreH-y-381" value="" style="shape=partialRectangle;html=1;whiteSpace=wrap;collapsible=0;dropTarget=0;pointerEvents=0;fillColor=none;top=0;left=0;bottom=0;right=0;points=[[0,0.5],[1,0.5]];portConstraint=eastwest;" vertex="1" parent="Im4FhcCXqjplq8VreH-y-347">
          <mxGeometry y="120" width="400" height="40" as="geometry" />
        </mxCell>
        <mxCell id="Im4FhcCXqjplq8VreH-y-382" value="3" style="shape=partialRectangle;html=1;whiteSpace=wrap;connectable=0;overflow=hidden;fillColor=#b0e3e6;top=0;left=0;bottom=0;right=0;strokeColor=#0e8088;fontStyle=1;fontSize=18;" vertex="1" parent="Im4FhcCXqjplq8VreH-y-381">
          <mxGeometry width="40" height="40" as="geometry" />
        </mxCell>
        <mxCell id="Im4FhcCXqjplq8VreH-y-383" value="4" style="shape=partialRectangle;html=1;whiteSpace=wrap;connectable=0;overflow=hidden;fillColor=#fad9d5;top=1;left=1;bottom=1;right=1;" vertex="1" parent="Im4FhcCXqjplq8VreH-y-381">
          <mxGeometry x="40" width="40" height="40" as="geometry" />
        </mxCell>
        <mxCell id="Im4FhcCXqjplq8VreH-y-384" value="6" style="shape=partialRectangle;html=1;whiteSpace=wrap;connectable=0;overflow=hidden;fillColor=#fad9d5;top=1;left=1;bottom=1;right=1;" vertex="1" parent="Im4FhcCXqjplq8VreH-y-381">
          <mxGeometry x="80" width="40" height="40" as="geometry" />
        </mxCell>
        <mxCell id="Im4FhcCXqjplq8VreH-y-385" value="9" style="shape=partialRectangle;html=1;whiteSpace=wrap;connectable=0;overflow=hidden;fillColor=#fad9d5;top=1;left=1;bottom=1;right=1;" vertex="1" parent="Im4FhcCXqjplq8VreH-y-381">
          <mxGeometry x="120" width="40" height="40" as="geometry" />
        </mxCell>
        <mxCell id="Im4FhcCXqjplq8VreH-y-386" value="&lt;font style=&quot;font-size: 8px&quot;&gt;17&lt;/font&gt;" style="shape=partialRectangle;html=1;whiteSpace=wrap;connectable=0;overflow=hidden;fillColor=none;top=1;left=1;bottom=1;right=1;" vertex="1" parent="Im4FhcCXqjplq8VreH-y-381">
          <mxGeometry x="160" width="40" height="40" as="geometry" />
        </mxCell>
        <mxCell id="Im4FhcCXqjplq8VreH-y-387" value="&lt;font style=&quot;font-size: 8px&quot;&gt;17&lt;/font&gt;" style="shape=partialRectangle;html=1;whiteSpace=wrap;connectable=0;overflow=hidden;fillColor=none;top=1;left=1;bottom=1;right=1;" vertex="1" parent="Im4FhcCXqjplq8VreH-y-381">
          <mxGeometry x="200" width="40" height="40" as="geometry" />
        </mxCell>
        <mxCell id="Im4FhcCXqjplq8VreH-y-388" value="3" style="shape=partialRectangle;html=1;whiteSpace=wrap;connectable=0;overflow=hidden;fillColor=none;top=1;left=1;bottom=1;right=1;" vertex="1" parent="Im4FhcCXqjplq8VreH-y-381">
          <mxGeometry x="240" width="40" height="40" as="geometry" />
        </mxCell>
        <mxCell id="Im4FhcCXqjplq8VreH-y-389" value="58" style="shape=partialRectangle;html=1;whiteSpace=wrap;connectable=0;overflow=hidden;fillColor=#fad9d5;top=1;left=1;bottom=1;right=1;fontSize=8;" vertex="1" parent="Im4FhcCXqjplq8VreH-y-381">
          <mxGeometry x="280" width="40" height="40" as="geometry" />
        </mxCell>
        <mxCell id="Im4FhcCXqjplq8VreH-y-390" value="58" style="shape=partialRectangle;html=1;whiteSpace=wrap;connectable=0;overflow=hidden;fillColor=#fad9d5;top=1;left=1;bottom=1;right=1;fontSize=8;" vertex="1" parent="Im4FhcCXqjplq8VreH-y-381">
          <mxGeometry x="320" width="40" height="40" as="geometry" />
        </mxCell>
        <mxCell id="Im4FhcCXqjplq8VreH-y-391" value="2" style="shape=partialRectangle;html=1;whiteSpace=wrap;connectable=0;overflow=hidden;fillColor=#fad9d5;top=1;left=1;bottom=1;right=1;" vertex="1" parent="Im4FhcCXqjplq8VreH-y-381">
          <mxGeometry x="360" width="40" height="40" as="geometry" />
        </mxCell>
        <mxCell id="Im4FhcCXqjplq8VreH-y-392" value="" style="shape=partialRectangle;html=1;whiteSpace=wrap;collapsible=0;dropTarget=0;pointerEvents=0;fillColor=none;top=0;left=0;bottom=0;right=0;points=[[0,0.5],[1,0.5]];portConstraint=eastwest;" vertex="1" parent="Im4FhcCXqjplq8VreH-y-347">
          <mxGeometry y="160" width="400" height="40" as="geometry" />
        </mxCell>
        <mxCell id="Im4FhcCXqjplq8VreH-y-393" value="4" style="shape=partialRectangle;html=1;whiteSpace=wrap;connectable=0;overflow=hidden;fillColor=#b0e3e6;top=0;left=0;bottom=0;right=0;strokeColor=#0e8088;fontStyle=1;fontSize=18;" vertex="1" parent="Im4FhcCXqjplq8VreH-y-392">
          <mxGeometry width="40" height="40" as="geometry" />
        </mxCell>
        <mxCell id="Im4FhcCXqjplq8VreH-y-394" value="" style="shape=partialRectangle;html=1;whiteSpace=wrap;connectable=0;overflow=hidden;fillColor=none;top=1;left=1;bottom=1;right=1;" vertex="1" parent="Im4FhcCXqjplq8VreH-y-392">
          <mxGeometry x="40" width="40" height="40" as="geometry" />
        </mxCell>
        <mxCell id="Im4FhcCXqjplq8VreH-y-395" value="" style="shape=partialRectangle;html=1;whiteSpace=wrap;connectable=0;overflow=hidden;fillColor=none;top=1;left=1;bottom=1;right=1;" vertex="1" parent="Im4FhcCXqjplq8VreH-y-392">
          <mxGeometry x="80" width="40" height="40" as="geometry" />
        </mxCell>
        <mxCell id="Im4FhcCXqjplq8VreH-y-396" value="" style="shape=partialRectangle;html=1;whiteSpace=wrap;connectable=0;overflow=hidden;fillColor=none;top=1;left=1;bottom=1;right=1;" vertex="1" parent="Im4FhcCXqjplq8VreH-y-392">
          <mxGeometry x="120" width="40" height="40" as="geometry" />
        </mxCell>
        <mxCell id="Im4FhcCXqjplq8VreH-y-397" value="&lt;font style=&quot;font-size: 8px&quot;&gt;345678&lt;/font&gt;" style="shape=partialRectangle;html=1;whiteSpace=wrap;connectable=0;overflow=hidden;fillColor=#fad9d5;top=1;left=1;bottom=1;right=1;" vertex="1" parent="Im4FhcCXqjplq8VreH-y-392">
          <mxGeometry x="160" width="40" height="40" as="geometry" />
        </mxCell>
        <mxCell id="Im4FhcCXqjplq8VreH-y-398" value="2" style="shape=partialRectangle;html=1;whiteSpace=wrap;connectable=0;overflow=hidden;fillColor=#fad9d5;top=1;left=1;bottom=1;right=1;" vertex="1" parent="Im4FhcCXqjplq8VreH-y-392">
          <mxGeometry x="200" width="40" height="40" as="geometry" />
        </mxCell>
        <mxCell id="Im4FhcCXqjplq8VreH-y-399" value="5789" style="shape=partialRectangle;html=1;whiteSpace=wrap;connectable=0;overflow=hidden;fillColor=#fad9d5;top=1;left=1;bottom=1;right=1;fontSize=8;" vertex="1" parent="Im4FhcCXqjplq8VreH-y-392">
          <mxGeometry x="240" width="40" height="40" as="geometry" />
        </mxCell>
        <mxCell id="Im4FhcCXqjplq8VreH-y-400" value="" style="shape=partialRectangle;html=1;whiteSpace=wrap;connectable=0;overflow=hidden;fillColor=none;top=1;left=1;bottom=1;right=1;" vertex="1" parent="Im4FhcCXqjplq8VreH-y-392">
          <mxGeometry x="280" width="40" height="40" as="geometry" />
        </mxCell>
        <mxCell id="Im4FhcCXqjplq8VreH-y-401" value="" style="shape=partialRectangle;html=1;whiteSpace=wrap;connectable=0;overflow=hidden;fillColor=none;top=1;left=1;bottom=1;right=1;" vertex="1" parent="Im4FhcCXqjplq8VreH-y-392">
          <mxGeometry x="320" width="40" height="40" as="geometry" />
        </mxCell>
        <mxCell id="Im4FhcCXqjplq8VreH-y-402" value="" style="shape=partialRectangle;html=1;whiteSpace=wrap;connectable=0;overflow=hidden;fillColor=none;top=1;left=1;bottom=1;right=1;" vertex="1" parent="Im4FhcCXqjplq8VreH-y-392">
          <mxGeometry x="360" width="40" height="40" as="geometry" />
        </mxCell>
        <mxCell id="Im4FhcCXqjplq8VreH-y-403" value="" style="shape=partialRectangle;html=1;whiteSpace=wrap;collapsible=0;dropTarget=0;pointerEvents=0;fillColor=none;top=0;left=0;bottom=0;right=0;points=[[0,0.5],[1,0.5]];portConstraint=eastwest;" vertex="1" parent="Im4FhcCXqjplq8VreH-y-347">
          <mxGeometry y="200" width="400" height="40" as="geometry" />
        </mxCell>
        <mxCell id="Im4FhcCXqjplq8VreH-y-404" value="5" style="shape=partialRectangle;html=1;whiteSpace=wrap;connectable=0;overflow=hidden;fillColor=#b0e3e6;top=0;left=0;bottom=0;right=0;strokeColor=#0e8088;fontStyle=1;fontSize=18;" vertex="1" parent="Im4FhcCXqjplq8VreH-y-403">
          <mxGeometry width="40" height="40" as="geometry" />
        </mxCell>
        <mxCell id="Im4FhcCXqjplq8VreH-y-405" value="" style="shape=partialRectangle;html=1;whiteSpace=wrap;connectable=0;overflow=hidden;fillColor=none;top=1;left=1;bottom=1;right=1;" vertex="1" parent="Im4FhcCXqjplq8VreH-y-403">
          <mxGeometry x="40" width="40" height="40" as="geometry" />
        </mxCell>
        <mxCell id="Im4FhcCXqjplq8VreH-y-406" value="" style="shape=partialRectangle;html=1;whiteSpace=wrap;connectable=0;overflow=hidden;fillColor=none;top=1;left=1;bottom=1;right=1;" vertex="1" parent="Im4FhcCXqjplq8VreH-y-403">
          <mxGeometry x="80" width="40" height="40" as="geometry" />
        </mxCell>
        <mxCell id="Im4FhcCXqjplq8VreH-y-407" value="" style="shape=partialRectangle;html=1;whiteSpace=wrap;connectable=0;overflow=hidden;fillColor=none;top=1;left=1;bottom=1;right=1;" vertex="1" parent="Im4FhcCXqjplq8VreH-y-403">
          <mxGeometry x="120" width="40" height="40" as="geometry" />
        </mxCell>
        <mxCell id="Im4FhcCXqjplq8VreH-y-408" value="&lt;font style=&quot;font-size: 8px&quot;&gt;1345678&lt;/font&gt;" style="shape=partialRectangle;html=1;whiteSpace=wrap;connectable=0;overflow=hidden;fillColor=#fad9d5;top=1;left=1;bottom=1;right=1;" vertex="1" parent="Im4FhcCXqjplq8VreH-y-403">
          <mxGeometry x="160" width="40" height="40" as="geometry" />
        </mxCell>
        <mxCell id="Im4FhcCXqjplq8VreH-y-409" value="13679" style="shape=partialRectangle;html=1;whiteSpace=wrap;connectable=0;overflow=hidden;fillColor=#fad9d5;top=1;left=1;bottom=1;right=1;fontSize=8;" vertex="1" parent="Im4FhcCXqjplq8VreH-y-403">
          <mxGeometry x="200" width="40" height="40" as="geometry" />
        </mxCell>
        <mxCell id="Im4FhcCXqjplq8VreH-y-410" value="&lt;span style=&quot;font-size: 8px;&quot;&gt;5789&lt;/span&gt;" style="shape=partialRectangle;html=1;whiteSpace=wrap;connectable=0;overflow=hidden;fillColor=#fad9d5;top=1;left=1;bottom=1;right=1;fontSize=8;" vertex="1" parent="Im4FhcCXqjplq8VreH-y-403">
          <mxGeometry x="240" width="40" height="40" as="geometry" />
        </mxCell>
        <mxCell id="Im4FhcCXqjplq8VreH-y-411" value="" style="shape=partialRectangle;html=1;whiteSpace=wrap;connectable=0;overflow=hidden;fillColor=none;top=1;left=1;bottom=1;right=1;" vertex="1" parent="Im4FhcCXqjplq8VreH-y-403">
          <mxGeometry x="280" width="40" height="40" as="geometry" />
        </mxCell>
        <mxCell id="Im4FhcCXqjplq8VreH-y-412" value="" style="shape=partialRectangle;html=1;whiteSpace=wrap;connectable=0;overflow=hidden;fillColor=none;top=1;left=1;bottom=1;right=1;" vertex="1" parent="Im4FhcCXqjplq8VreH-y-403">
          <mxGeometry x="320" width="40" height="40" as="geometry" />
        </mxCell>
        <mxCell id="Im4FhcCXqjplq8VreH-y-413" value="" style="shape=partialRectangle;html=1;whiteSpace=wrap;connectable=0;overflow=hidden;fillColor=none;top=1;left=1;bottom=1;right=1;" vertex="1" parent="Im4FhcCXqjplq8VreH-y-403">
          <mxGeometry x="360" width="40" height="40" as="geometry" />
        </mxCell>
        <mxCell id="Im4FhcCXqjplq8VreH-y-414" value="" style="shape=partialRectangle;html=1;whiteSpace=wrap;collapsible=0;dropTarget=0;pointerEvents=0;fillColor=none;top=0;left=0;bottom=0;right=0;points=[[0,0.5],[1,0.5]];portConstraint=eastwest;" vertex="1" parent="Im4FhcCXqjplq8VreH-y-347">
          <mxGeometry y="240" width="400" height="40" as="geometry" />
        </mxCell>
        <mxCell id="Im4FhcCXqjplq8VreH-y-415" value="6" style="shape=partialRectangle;html=1;whiteSpace=wrap;connectable=0;overflow=hidden;fillColor=#b0e3e6;top=0;left=0;bottom=0;right=0;strokeColor=#0e8088;fontStyle=1;fontSize=18;" vertex="1" parent="Im4FhcCXqjplq8VreH-y-414">
          <mxGeometry width="40" height="40" as="geometry" />
        </mxCell>
        <mxCell id="Im4FhcCXqjplq8VreH-y-416" value="" style="shape=partialRectangle;html=1;whiteSpace=wrap;connectable=0;overflow=hidden;fillColor=none;top=1;left=1;bottom=1;right=1;" vertex="1" parent="Im4FhcCXqjplq8VreH-y-414">
          <mxGeometry x="40" width="40" height="40" as="geometry" />
        </mxCell>
        <mxCell id="Im4FhcCXqjplq8VreH-y-417" value="" style="shape=partialRectangle;html=1;whiteSpace=wrap;connectable=0;overflow=hidden;fillColor=none;top=1;left=1;bottom=1;right=1;" vertex="1" parent="Im4FhcCXqjplq8VreH-y-414">
          <mxGeometry x="80" width="40" height="40" as="geometry" />
        </mxCell>
        <mxCell id="Im4FhcCXqjplq8VreH-y-418" value="" style="shape=partialRectangle;html=1;whiteSpace=wrap;connectable=0;overflow=hidden;fillColor=none;top=1;left=1;bottom=1;right=1;" vertex="1" parent="Im4FhcCXqjplq8VreH-y-414">
          <mxGeometry x="120" width="40" height="40" as="geometry" />
        </mxCell>
        <mxCell id="Im4FhcCXqjplq8VreH-y-419" value="4578" style="shape=partialRectangle;html=1;whiteSpace=wrap;connectable=0;overflow=hidden;fillColor=#fad9d5;top=1;left=1;bottom=1;right=1;fontSize=8;" vertex="1" parent="Im4FhcCXqjplq8VreH-y-414">
          <mxGeometry x="160" width="40" height="40" as="geometry" />
        </mxCell>
        <mxCell id="Im4FhcCXqjplq8VreH-y-420" value="79" style="shape=partialRectangle;html=1;whiteSpace=wrap;connectable=0;overflow=hidden;fillColor=#fad9d5;top=1;left=1;bottom=1;right=1;fontSize=8;" vertex="1" parent="Im4FhcCXqjplq8VreH-y-414">
          <mxGeometry x="200" width="40" height="40" as="geometry" />
        </mxCell>
        <mxCell id="Im4FhcCXqjplq8VreH-y-421" value="&lt;span style=&quot;font-size: 8px;&quot;&gt;5789&lt;/span&gt;" style="shape=partialRectangle;html=1;whiteSpace=wrap;connectable=0;overflow=hidden;fillColor=#fad9d5;top=1;left=1;bottom=1;right=1;fontSize=8;" vertex="1" parent="Im4FhcCXqjplq8VreH-y-414">
          <mxGeometry x="240" width="40" height="40" as="geometry" />
        </mxCell>
        <mxCell id="Im4FhcCXqjplq8VreH-y-422" value="" style="shape=partialRectangle;html=1;whiteSpace=wrap;connectable=0;overflow=hidden;fillColor=none;top=1;left=1;bottom=1;right=1;" vertex="1" parent="Im4FhcCXqjplq8VreH-y-414">
          <mxGeometry x="280" width="40" height="40" as="geometry" />
        </mxCell>
        <mxCell id="Im4FhcCXqjplq8VreH-y-423" value="" style="shape=partialRectangle;html=1;whiteSpace=wrap;connectable=0;overflow=hidden;fillColor=none;top=1;left=1;bottom=1;right=1;" vertex="1" parent="Im4FhcCXqjplq8VreH-y-414">
          <mxGeometry x="320" width="40" height="40" as="geometry" />
        </mxCell>
        <mxCell id="Im4FhcCXqjplq8VreH-y-424" value="" style="shape=partialRectangle;html=1;whiteSpace=wrap;connectable=0;overflow=hidden;fillColor=none;top=1;left=1;bottom=1;right=1;" vertex="1" parent="Im4FhcCXqjplq8VreH-y-414">
          <mxGeometry x="360" width="40" height="40" as="geometry" />
        </mxCell>
        <mxCell id="Im4FhcCXqjplq8VreH-y-425" value="" style="shape=partialRectangle;html=1;whiteSpace=wrap;collapsible=0;dropTarget=0;pointerEvents=0;fillColor=none;top=0;left=0;bottom=0;right=0;points=[[0,0.5],[1,0.5]];portConstraint=eastwest;" vertex="1" parent="Im4FhcCXqjplq8VreH-y-347">
          <mxGeometry y="280" width="400" height="40" as="geometry" />
        </mxCell>
        <mxCell id="Im4FhcCXqjplq8VreH-y-426" value="7" style="shape=partialRectangle;html=1;whiteSpace=wrap;connectable=0;overflow=hidden;fillColor=#b0e3e6;top=0;left=0;bottom=0;right=0;strokeColor=#0e8088;fontStyle=1;fontSize=18;" vertex="1" parent="Im4FhcCXqjplq8VreH-y-425">
          <mxGeometry width="40" height="40" as="geometry" />
        </mxCell>
        <mxCell id="Im4FhcCXqjplq8VreH-y-427" value="" style="shape=partialRectangle;html=1;whiteSpace=wrap;connectable=0;overflow=hidden;fillColor=#fad9d5;top=1;left=1;bottom=1;right=1;" vertex="1" parent="Im4FhcCXqjplq8VreH-y-425">
          <mxGeometry x="40" width="40" height="40" as="geometry" />
        </mxCell>
        <mxCell id="Im4FhcCXqjplq8VreH-y-428" value="" style="shape=partialRectangle;html=1;whiteSpace=wrap;connectable=0;overflow=hidden;fillColor=#fad9d5;top=1;left=1;bottom=1;right=1;" vertex="1" parent="Im4FhcCXqjplq8VreH-y-425">
          <mxGeometry x="80" width="40" height="40" as="geometry" />
        </mxCell>
        <mxCell id="Im4FhcCXqjplq8VreH-y-429" value="" style="shape=partialRectangle;html=1;whiteSpace=wrap;connectable=0;overflow=hidden;fillColor=#fad9d5;top=1;left=1;bottom=1;right=1;" vertex="1" parent="Im4FhcCXqjplq8VreH-y-425">
          <mxGeometry x="120" width="40" height="40" as="geometry" />
        </mxCell>
        <mxCell id="Im4FhcCXqjplq8VreH-y-430" value="5678" style="shape=partialRectangle;html=1;whiteSpace=wrap;connectable=0;overflow=hidden;fillColor=none;top=1;left=1;bottom=1;right=1;fontSize=8;" vertex="1" parent="Im4FhcCXqjplq8VreH-y-425">
          <mxGeometry x="160" width="40" height="40" as="geometry" />
        </mxCell>
        <mxCell id="Im4FhcCXqjplq8VreH-y-431" value="679" style="shape=partialRectangle;html=1;whiteSpace=wrap;connectable=0;overflow=hidden;fillColor=none;top=1;left=1;bottom=1;right=1;fontSize=8;" vertex="1" parent="Im4FhcCXqjplq8VreH-y-425">
          <mxGeometry x="200" width="40" height="40" as="geometry" />
        </mxCell>
        <mxCell id="Im4FhcCXqjplq8VreH-y-432" value="5789" style="shape=partialRectangle;html=1;whiteSpace=wrap;connectable=0;overflow=hidden;fillColor=none;top=1;left=1;bottom=1;right=1;fontSize=8;" vertex="1" parent="Im4FhcCXqjplq8VreH-y-425">
          <mxGeometry x="240" width="40" height="40" as="geometry" />
        </mxCell>
        <mxCell id="Im4FhcCXqjplq8VreH-y-433" value="" style="shape=partialRectangle;html=1;whiteSpace=wrap;connectable=0;overflow=hidden;fillColor=#fad9d5;top=1;left=1;bottom=1;right=1;" vertex="1" parent="Im4FhcCXqjplq8VreH-y-425">
          <mxGeometry x="280" width="40" height="40" as="geometry" />
        </mxCell>
        <mxCell id="Im4FhcCXqjplq8VreH-y-434" value="" style="shape=partialRectangle;html=1;whiteSpace=wrap;connectable=0;overflow=hidden;fillColor=#fad9d5;top=1;left=1;bottom=1;right=1;" vertex="1" parent="Im4FhcCXqjplq8VreH-y-425">
          <mxGeometry x="320" width="40" height="40" as="geometry" />
        </mxCell>
        <mxCell id="Im4FhcCXqjplq8VreH-y-435" value="" style="shape=partialRectangle;html=1;whiteSpace=wrap;connectable=0;overflow=hidden;fillColor=#fad9d5;top=1;left=1;bottom=1;right=1;" vertex="1" parent="Im4FhcCXqjplq8VreH-y-425">
          <mxGeometry x="360" width="40" height="40" as="geometry" />
        </mxCell>
        <mxCell id="Im4FhcCXqjplq8VreH-y-436" value="" style="shape=partialRectangle;html=1;whiteSpace=wrap;collapsible=0;dropTarget=0;pointerEvents=0;fillColor=none;top=0;left=0;bottom=0;right=0;points=[[0,0.5],[1,0.5]];portConstraint=eastwest;" vertex="1" parent="Im4FhcCXqjplq8VreH-y-347">
          <mxGeometry y="320" width="400" height="40" as="geometry" />
        </mxCell>
        <mxCell id="Im4FhcCXqjplq8VreH-y-437" value="8" style="shape=partialRectangle;html=1;whiteSpace=wrap;connectable=0;overflow=hidden;fillColor=#b0e3e6;top=0;left=0;bottom=0;right=0;strokeColor=#0e8088;fontStyle=1;fontSize=18;" vertex="1" parent="Im4FhcCXqjplq8VreH-y-436">
          <mxGeometry width="40" height="40" as="geometry" />
        </mxCell>
        <mxCell id="Im4FhcCXqjplq8VreH-y-438" value="" style="shape=partialRectangle;html=1;whiteSpace=wrap;connectable=0;overflow=hidden;fillColor=#fad9d5;top=1;left=1;bottom=1;right=1;" vertex="1" parent="Im4FhcCXqjplq8VreH-y-436">
          <mxGeometry x="40" width="40" height="40" as="geometry" />
        </mxCell>
        <mxCell id="Im4FhcCXqjplq8VreH-y-439" value="" style="shape=partialRectangle;html=1;whiteSpace=wrap;connectable=0;overflow=hidden;fillColor=#fad9d5;top=1;left=1;bottom=1;right=1;" vertex="1" parent="Im4FhcCXqjplq8VreH-y-436">
          <mxGeometry x="80" width="40" height="40" as="geometry" />
        </mxCell>
        <mxCell id="Im4FhcCXqjplq8VreH-y-440" value="" style="shape=partialRectangle;html=1;whiteSpace=wrap;connectable=0;overflow=hidden;fillColor=#fad9d5;top=1;left=1;bottom=1;right=1;" vertex="1" parent="Im4FhcCXqjplq8VreH-y-436">
          <mxGeometry x="120" width="40" height="40" as="geometry" />
        </mxCell>
        <mxCell id="Im4FhcCXqjplq8VreH-y-441" value="3567" style="shape=partialRectangle;html=1;whiteSpace=wrap;connectable=0;overflow=hidden;fillColor=none;top=1;left=1;bottom=1;right=1;fontSize=8;" vertex="1" parent="Im4FhcCXqjplq8VreH-y-436">
          <mxGeometry x="160" width="40" height="40" as="geometry" />
        </mxCell>
        <mxCell id="Im4FhcCXqjplq8VreH-y-442" value="4" style="shape=partialRectangle;html=1;whiteSpace=wrap;connectable=0;overflow=hidden;fillColor=none;top=1;left=1;bottom=1;right=1;fontSize=8;" vertex="1" parent="Im4FhcCXqjplq8VreH-y-436">
          <mxGeometry x="200" width="40" height="40" as="geometry" />
        </mxCell>
        <mxCell id="Im4FhcCXqjplq8VreH-y-443" value="2579" style="shape=partialRectangle;html=1;whiteSpace=wrap;connectable=0;overflow=hidden;fillColor=none;top=1;left=1;bottom=1;right=1;fontSize=8;" vertex="1" parent="Im4FhcCXqjplq8VreH-y-436">
          <mxGeometry x="240" width="40" height="40" as="geometry" />
        </mxCell>
        <mxCell id="Im4FhcCXqjplq8VreH-y-444" value="" style="shape=partialRectangle;html=1;whiteSpace=wrap;connectable=0;overflow=hidden;fillColor=#fad9d5;top=1;left=1;bottom=1;right=1;" vertex="1" parent="Im4FhcCXqjplq8VreH-y-436">
          <mxGeometry x="280" width="40" height="40" as="geometry" />
        </mxCell>
        <mxCell id="Im4FhcCXqjplq8VreH-y-445" value="" style="shape=partialRectangle;html=1;whiteSpace=wrap;connectable=0;overflow=hidden;fillColor=#fad9d5;top=1;left=1;bottom=1;right=1;" vertex="1" parent="Im4FhcCXqjplq8VreH-y-436">
          <mxGeometry x="320" width="40" height="40" as="geometry" />
        </mxCell>
        <mxCell id="Im4FhcCXqjplq8VreH-y-446" value="" style="shape=partialRectangle;html=1;whiteSpace=wrap;connectable=0;overflow=hidden;fillColor=#fad9d5;top=1;left=1;bottom=1;right=1;" vertex="1" parent="Im4FhcCXqjplq8VreH-y-436">
          <mxGeometry x="360" width="40" height="40" as="geometry" />
        </mxCell>
        <mxCell id="Im4FhcCXqjplq8VreH-y-447" value="" style="shape=partialRectangle;html=1;whiteSpace=wrap;collapsible=0;dropTarget=0;pointerEvents=0;fillColor=none;top=0;left=0;bottom=0;right=0;points=[[0,0.5],[1,0.5]];portConstraint=eastwest;" vertex="1" parent="Im4FhcCXqjplq8VreH-y-347">
          <mxGeometry y="360" width="400" height="40" as="geometry" />
        </mxCell>
        <mxCell id="Im4FhcCXqjplq8VreH-y-448" value="9" style="shape=partialRectangle;html=1;whiteSpace=wrap;connectable=0;overflow=hidden;fillColor=#b0e3e6;top=0;left=0;bottom=0;right=0;strokeColor=#0e8088;fontStyle=1;fontSize=18;" vertex="1" parent="Im4FhcCXqjplq8VreH-y-447">
          <mxGeometry width="40" height="40" as="geometry" />
        </mxCell>
        <mxCell id="Im4FhcCXqjplq8VreH-y-449" value="" style="shape=partialRectangle;html=1;whiteSpace=wrap;connectable=0;overflow=hidden;fillColor=#fad9d5;top=1;left=1;bottom=1;right=1;" vertex="1" parent="Im4FhcCXqjplq8VreH-y-447">
          <mxGeometry x="40" width="40" height="40" as="geometry" />
        </mxCell>
        <mxCell id="Im4FhcCXqjplq8VreH-y-450" value="" style="shape=partialRectangle;html=1;whiteSpace=wrap;connectable=0;overflow=hidden;fillColor=#fad9d5;top=1;left=1;bottom=1;right=1;" vertex="1" parent="Im4FhcCXqjplq8VreH-y-447">
          <mxGeometry x="80" width="40" height="40" as="geometry" />
        </mxCell>
        <mxCell id="Im4FhcCXqjplq8VreH-y-451" value="" style="shape=partialRectangle;html=1;whiteSpace=wrap;connectable=0;overflow=hidden;fillColor=#fad9d5;top=1;left=1;bottom=1;right=1;" vertex="1" parent="Im4FhcCXqjplq8VreH-y-447">
          <mxGeometry x="120" width="40" height="40" as="geometry" />
        </mxCell>
        <mxCell id="Im4FhcCXqjplq8VreH-y-452" value="368" style="shape=partialRectangle;html=1;whiteSpace=wrap;connectable=0;overflow=hidden;fillColor=none;top=1;left=1;bottom=1;right=1;fontSize=8;" vertex="1" parent="Im4FhcCXqjplq8VreH-y-447">
          <mxGeometry x="160" width="40" height="40" as="geometry" />
        </mxCell>
        <mxCell id="Im4FhcCXqjplq8VreH-y-453" value="369" style="shape=partialRectangle;html=1;whiteSpace=wrap;connectable=0;overflow=hidden;fillColor=none;top=1;left=1;bottom=1;right=1;fontSize=8;" vertex="1" parent="Im4FhcCXqjplq8VreH-y-447">
          <mxGeometry x="200" width="40" height="40" as="geometry" />
        </mxCell>
        <mxCell id="Im4FhcCXqjplq8VreH-y-454" value="1" style="shape=partialRectangle;html=1;whiteSpace=wrap;connectable=0;overflow=hidden;fillColor=none;top=1;left=1;bottom=1;right=1;fontSize=8;" vertex="1" parent="Im4FhcCXqjplq8VreH-y-447">
          <mxGeometry x="240" width="40" height="40" as="geometry" />
        </mxCell>
        <mxCell id="Im4FhcCXqjplq8VreH-y-455" value="" style="shape=partialRectangle;html=1;whiteSpace=wrap;connectable=0;overflow=hidden;fillColor=#fad9d5;top=1;left=1;bottom=1;right=1;" vertex="1" parent="Im4FhcCXqjplq8VreH-y-447">
          <mxGeometry x="280" width="40" height="40" as="geometry" />
        </mxCell>
        <mxCell id="Im4FhcCXqjplq8VreH-y-456" value="" style="shape=partialRectangle;html=1;whiteSpace=wrap;connectable=0;overflow=hidden;fillColor=#fad9d5;top=1;left=1;bottom=1;right=1;" vertex="1" parent="Im4FhcCXqjplq8VreH-y-447">
          <mxGeometry x="320" width="40" height="40" as="geometry" />
        </mxCell>
        <mxCell id="Im4FhcCXqjplq8VreH-y-457" value="" style="shape=partialRectangle;html=1;whiteSpace=wrap;connectable=0;overflow=hidden;fillColor=#fad9d5;top=1;left=1;bottom=1;right=1;" vertex="1" parent="Im4FhcCXqjplq8VreH-y-447">
          <mxGeometry x="360" width="40" height="40" as="geometry" />
        </mxCell>
        <mxCell id="Im4FhcCXqjplq8VreH-y-458" value="&lt;font style=&quot;font-size: 20px&quot;&gt;Cell address: E2&lt;/font&gt;" style="text;html=1;resizable=0;autosize=1;align=center;verticalAlign=middle;points=[];rounded=0;labelBackgroundColor=none;fontSize=8;" vertex="1" parent="1">
          <mxGeometry x="-609" y="146" width="157" height="18" as="geometry" />
        </mxCell>
        <mxCell id="Im4FhcCXqjplq8VreH-y-459" value="" style="endArrow=classic;html=1;fontSize=8;exitX=0.706;exitY=1.222;exitDx=0;exitDy=0;exitPerimeter=0;" edge="1" parent="1" source="Im4FhcCXqjplq8VreH-y-458" target="Im4FhcCXqjplq8VreH-y-370">
          <mxGeometry width="50" height="50" relative="1" as="geometry">
            <mxPoint x="-393" y="523" as="sourcePoint" />
            <mxPoint x="-343" y="473" as="targetPoint" />
          </mxGeometry>
        </mxCell>
        <mxCell id="Im4FhcCXqjplq8VreH-y-587" value="" style="edgeStyle=orthogonalEdgeStyle;rounded=0;orthogonalLoop=1;jettySize=auto;html=1;fontSize=8;" edge="1" parent="1" source="Im4FhcCXqjplq8VreH-y-460" target="Im4FhcCXqjplq8VreH-y-576">
          <mxGeometry relative="1" as="geometry" />
        </mxCell>
        <mxCell id="Im4FhcCXqjplq8VreH-y-460" value="" style="ellipse;whiteSpace=wrap;html=1;labelBackgroundColor=none;strokeColor=#000000;fontSize=8;fillColor=none;" vertex="1" parent="1">
          <mxGeometry x="-830" y="293.5" width="389" height="39" as="geometry" />
        </mxCell>
        <mxCell id="Im4FhcCXqjplq8VreH-y-461" value="&lt;font style=&quot;font-size: 20px&quot;&gt;Column names&lt;/font&gt;" style="text;html=1;resizable=0;autosize=1;align=center;verticalAlign=middle;points=[];rounded=0;labelBackgroundColor=none;fontSize=8;" vertex="1" parent="1">
          <mxGeometry x="-392" y="230" width="145" height="18" as="geometry" />
        </mxCell>
        <mxCell id="Im4FhcCXqjplq8VreH-y-462" value="" style="shape=flexArrow;endArrow=classic;html=1;fontSize=8;fillColor=#60a917;strokeColor=#2D7600;" edge="1" parent="1">
          <mxGeometry width="50" height="50" relative="1" as="geometry">
            <mxPoint x="-398" y="237.5" as="sourcePoint" />
            <mxPoint x="-455" y="237.5" as="targetPoint" />
          </mxGeometry>
        </mxCell>
        <mxCell id="Im4FhcCXqjplq8VreH-y-463" value="" style="shape=flexArrow;endArrow=classic;html=1;fontSize=8;fillColor=#60a917;strokeColor=#2D7600;" edge="1" parent="1">
          <mxGeometry width="50" height="50" relative="1" as="geometry">
            <mxPoint x="-845" y="197" as="sourcePoint" />
            <mxPoint x="-845" y="241.5" as="targetPoint" />
          </mxGeometry>
        </mxCell>
        <mxCell id="Im4FhcCXqjplq8VreH-y-464" value="&lt;font style=&quot;font-size: 20px&quot;&gt;Row names&lt;/font&gt;" style="text;html=1;resizable=0;autosize=1;align=center;verticalAlign=middle;points=[];rounded=0;labelBackgroundColor=none;fontSize=8;" vertex="1" parent="1">
          <mxGeometry x="-891" y="168" width="116" height="18" as="geometry" />
        </mxCell>
        <mxCell id="Im4FhcCXqjplq8VreH-y-576" value="&lt;font style=&quot;font-size: 20px&quot;&gt;Row Group&lt;/font&gt;" style="text;html=1;resizable=0;autosize=1;align=center;verticalAlign=middle;points=[];rounded=0;labelBackgroundColor=none;fontSize=8;" vertex="1" parent="1">
          <mxGeometry x="-361" y="306.5" width="111" height="18" as="geometry" />
        </mxCell>
        <mxCell id="Im4FhcCXqjplq8VreH-y-577" value="" style="shape=flexArrow;endArrow=classic;html=1;fontSize=8;fillColor=#60a917;strokeColor=#2D7600;" edge="1" parent="1">
          <mxGeometry width="50" height="50" relative="1" as="geometry">
            <mxPoint x="-384" y="314" as="sourcePoint" />
            <mxPoint x="-441" y="314" as="targetPoint" />
          </mxGeometry>
        </mxCell>
        <mxCell id="Im4FhcCXqjplq8VreH-y-578" value="&lt;font style=&quot;font-size: 20px&quot;&gt;Box Group&lt;/font&gt;" style="text;html=1;resizable=0;autosize=1;align=center;verticalAlign=middle;points=[];rounded=0;labelBackgroundColor=none;fontSize=8;" vertex="1" parent="1">
          <mxGeometry x="-546" y="657" width="106" height="18" as="geometry" />
        </mxCell>
        <mxCell id="Im4FhcCXqjplq8VreH-y-579" value="" style="shape=flexArrow;endArrow=classic;html=1;fontSize=8;fillColor=#60a917;strokeColor=#2D7600;entryX=0.728;entryY=0.971;entryDx=0;entryDy=0;entryPerimeter=0;" edge="1" parent="1" target="Im4FhcCXqjplq8VreH-y-580">
          <mxGeometry width="50" height="50" relative="1" as="geometry">
            <mxPoint x="-572" y="664.5" as="sourcePoint" />
            <mxPoint x="-629" y="664.5" as="targetPoint" />
          </mxGeometry>
        </mxCell>
        <mxCell id="Im4FhcCXqjplq8VreH-y-580" value="" style="ellipse;whiteSpace=wrap;html=1;labelBackgroundColor=none;strokeColor=#000000;fontSize=8;fillColor=none;" vertex="1" parent="1">
          <mxGeometry x="-717" y="487" width="149" height="140" as="geometry" />
        </mxCell>
        <mxCell id="Im4FhcCXqjplq8VreH-y-581" value="&lt;font style=&quot;font-size: 20px&quot;&gt;Column Group&lt;/font&gt;" style="text;html=1;resizable=0;autosize=1;align=center;verticalAlign=middle;points=[];rounded=0;labelBackgroundColor=none;fontSize=8;" vertex="1" parent="1">
          <mxGeometry x="-841" y="695" width="140" height="18" as="geometry" />
        </mxCell>
        <mxCell id="Im4FhcCXqjplq8VreH-y-582" value="" style="shape=flexArrow;endArrow=classic;html=1;fontSize=8;fillColor=#60a917;strokeColor=#2D7600;" edge="1" parent="1">
          <mxGeometry width="50" height="50" relative="1" as="geometry">
            <mxPoint x="-763" y="690" as="sourcePoint" />
            <mxPoint x="-763" y="622" as="targetPoint" />
          </mxGeometry>
        </mxCell>
        <mxCell id="Im4FhcCXqjplq8VreH-y-583" value="" style="ellipse;whiteSpace=wrap;html=1;labelBackgroundColor=none;strokeColor=#000000;fontSize=8;fillColor=none;rotation=90;" vertex="1" parent="1">
          <mxGeometry x="-943.5" y="415.5" width="365" height="39" as="geometry" />
        </mxCell>
        <mxCell id="Im4FhcCXqjplq8VreH-y-584" value="" style="ellipse;whiteSpace=wrap;html=1;labelBackgroundColor=none;strokeColor=#000000;fontSize=8;fillColor=none;" vertex="1" parent="1">
          <mxGeometry x="-626" y="417" width="39" height="34" as="geometry" />
        </mxCell>
        <mxCell id="Im4FhcCXqjplq8VreH-y-585" value="" style="shape=flexArrow;endArrow=classic;html=1;fontSize=8;fillColor=#60a917;strokeColor=#2D7600;" edge="1" parent="1">
          <mxGeometry width="50" height="50" relative="1" as="geometry">
            <mxPoint x="-411" y="434" as="sourcePoint" />
            <mxPoint x="-583" y="433.5" as="targetPoint" />
          </mxGeometry>
        </mxCell>
        <mxCell id="Im4FhcCXqjplq8VreH-y-586" value="&lt;div style=&quot;text-align: left&quot;&gt;&lt;span style=&quot;font-size: 20px&quot;&gt;Cell:&lt;/span&gt;&lt;/div&gt;&lt;font style=&quot;font-size: 20px&quot;&gt;&lt;div style=&quot;text-align: right&quot;&gt;&lt;span&gt;&amp;nbsp; &amp;nbsp;address: F5&lt;/span&gt;&lt;/div&gt;&lt;div style=&quot;text-align: right&quot;&gt;&lt;span&gt;value: 5789&lt;/span&gt;&lt;/div&gt;&lt;/font&gt;" style="text;html=1;resizable=0;autosize=1;align=center;verticalAlign=middle;points=[];rounded=0;labelBackgroundColor=none;fontSize=8;labelBorderColor=#000000;" vertex="1" parent="1">
          <mxGeometry x="-405" y="444" width="132" height="38" as="geometry" />
        </mxCell>
        <mxCell id="Im4FhcCXqjplq8VreH-y-590" value="&lt;font style=&quot;font-size: 20px&quot;&gt;Double&lt;/font&gt;" style="text;html=1;resizable=0;autosize=1;align=center;verticalAlign=middle;points=[];rounded=0;labelBackgroundColor=none;fontSize=8;" vertex="1" parent="1">
          <mxGeometry x="-428" y="378" width="73" height="18" as="geometry" />
        </mxCell>
        <mxCell id="Im4FhcCXqjplq8VreH-y-591" value="" style="shape=flexArrow;endArrow=classic;html=1;fontSize=8;fillColor=#60a917;strokeColor=#2D7600;entryX=0.926;entryY=0.752;entryDx=0;entryDy=0;entryPerimeter=0;" edge="1" parent="1" target="Im4FhcCXqjplq8VreH-y-592">
          <mxGeometry width="50" height="50" relative="1" as="geometry">
            <mxPoint x="-435" y="385" as="sourcePoint" />
            <mxPoint x="-492" y="385" as="targetPoint" />
          </mxGeometry>
        </mxCell>
        <mxCell id="Im4FhcCXqjplq8VreH-y-592" value="" style="ellipse;whiteSpace=wrap;html=1;labelBackgroundColor=none;strokeColor=#000000;fontSize=8;fillColor=none;" vertex="1" parent="1">
          <mxGeometry x="-582" y="336" width="76" height="39" as="geometry" />
        </mxCell>
        <mxCell id="Im4FhcCXqjplq8VreH-y-594" value="&lt;font style=&quot;font-size: 20px&quot;&gt;Singleton&lt;/font&gt;" style="text;html=1;resizable=0;autosize=1;align=center;verticalAlign=middle;points=[];rounded=0;labelBackgroundColor=none;fontSize=8;" vertex="1" parent="1">
          <mxGeometry x="-959.5" y="410" width="93" height="18" as="geometry" />
        </mxCell>
        <mxCell id="Im4FhcCXqjplq8VreH-y-595" value="" style="ellipse;whiteSpace=wrap;html=1;labelBackgroundColor=none;strokeColor=#000000;fontSize=8;fillColor=none;" vertex="1" parent="1">
          <mxGeometry x="-814" y="339" width="32" height="39" as="geometry" />
        </mxCell>
        <mxCell id="Im4FhcCXqjplq8VreH-y-596" value="" style="shape=flexArrow;endArrow=classic;html=1;fontSize=8;fillColor=#60a917;strokeColor=#2D7600;" edge="1" parent="1">
          <mxGeometry width="50" height="50" relative="1" as="geometry">
            <mxPoint x="-919" y="405" as="sourcePoint" />
            <mxPoint x="-814" y="363" as="targetPoint" />
          </mxGeometry>
        </mxCell>
      </root>
    </mxGraphModel>
  </diagram>
</mxfile>
